<svg width="386" height="386" viewBox="0 0 386 386" fill="none" xmlns="http://www.w3.org/2000/svg">
<path d="M191.93 160.091C192.172 160.091 192.172 160.091 192.419 160.091C193.715 160.404 194.332 161.084 195.022 162.177C195.277 162.607 195.529 163.039 195.779 163.473C196.062 163.95 196.345 164.428 196.629 164.904C196.843 165.266 196.843 165.266 197.061 165.634C200.842 171.973 205.067 178.094 209.318 184.124C209.684 184.644 210.049 185.165 210.413 185.686C211.713 187.543 213.043 189.375 214.391 191.196C215.288 192.409 216.176 193.629 217.058 194.853C218.081 196.275 219.115 197.689 220.156 199.098C221.149 200.441 222.131 201.79 223.097 203.153C223.753 204.076 224.423 204.986 225.099 205.895C226.712 208.067 228.255 210.279 229.772 212.52C230.139 213.059 230.516 213.592 230.894 214.123C231.787 215.393 232.62 216.701 233.459 218.006C233.942 218.758 234.431 219.505 234.923 220.25C235.053 220.448 235.183 220.646 235.317 220.85C235.568 221.23 235.819 221.61 236.072 221.989C236.784 223.074 237.397 224.172 237.963 225.339C238.387 226.198 238.872 227.015 239.357 227.839C241.269 231.102 242.889 234.491 244.093 238.081C244.326 238.777 244.326 238.777 244.648 239.449C248.819 249.058 248.301 261.019 245.693 270.914C245.631 271.16 245.631 271.16 245.568 271.411C243.096 281.178 236.824 290.291 228.942 296.494C228.729 296.668 228.517 296.842 228.297 297.021C224.556 300.014 220.397 302.234 216.039 304.19C215.641 304.372 215.641 304.372 215.234 304.557C213.604 305.268 211.921 305.802 210.216 306.301C209.681 306.46 209.149 306.628 208.616 306.795C204.965 307.905 201.259 308.329 197.476 308.718C197.258 308.742 197.04 308.766 196.815 308.79C195.181 308.957 193.557 308.988 191.916 308.987C191.633 308.986 191.35 308.986 191.058 308.986C189.089 308.973 187.132 308.893 185.168 308.746C184.926 308.728 184.684 308.711 184.435 308.692C183.216 308.59 182.124 308.405 180.951 308.039C180.377 307.929 179.802 307.826 179.225 307.727C177.79 307.473 176.426 307.111 175.039 306.658C174.476 306.482 173.932 306.352 173.354 306.242C172.306 306.023 171.364 305.617 170.384 305.192C169.559 304.838 168.727 304.506 167.893 304.176C166.648 303.682 165.419 303.162 164.2 302.606C164.2 302.456 164.2 302.307 164.2 302.153C164.052 302.138 163.904 302.123 163.752 302.108C162.788 301.852 162.028 301.362 161.186 300.837C161.008 300.727 160.829 300.617 160.645 300.503C158.945 299.436 157.339 298.262 155.76 297.024C155.424 296.762 155.084 296.504 154.744 296.247C148.818 291.643 144.435 285.498 141.11 278.837C141.004 278.627 140.898 278.417 140.788 278.201C140.144 276.861 139.643 275.468 139.144 274.069C139.076 273.882 139.009 273.694 138.939 273.501C138.549 272.38 138.26 271.275 138.044 270.107C137.883 269.243 137.683 268.389 137.488 267.533C135.821 260.072 135.842 252.439 137.793 245.026C137.928 244.483 138.027 243.948 138.111 243.396C138.444 241.653 139.164 240.004 139.794 238.353C140.018 237.76 140.225 237.161 140.431 236.562C141.004 234.987 141.739 233.485 142.468 231.978C142.536 231.837 142.604 231.695 142.673 231.549C146.191 224.213 150.762 217.423 155.441 210.79C155.803 210.276 156.165 209.762 156.526 209.248C158.8 206.013 161.119 202.812 163.469 199.631C164.485 198.255 165.488 196.87 166.487 195.481C167.38 194.241 168.285 193.011 169.194 191.783C170.437 190.103 171.652 188.405 172.852 186.694C173.239 186.141 173.629 185.591 174.026 185.045C175.421 183.12 176.743 181.15 178.055 179.166C178.886 177.91 179.731 176.667 180.598 175.436C182.095 173.306 183.492 171.113 184.87 168.906C185.014 168.675 185.158 168.445 185.307 168.208C186.025 167.056 186.735 165.901 187.435 164.738C187.565 164.523 187.696 164.307 187.831 164.085C188.076 163.679 188.319 163.273 188.56 162.864C190.273 160.04 190.273 160.04 191.93 160.091Z" fill="#FEFEFE"/>
<path d="M191.93 160.091C192.172 160.091 192.172 160.091 192.419 160.091C193.715 160.404 194.332 161.084 195.022 162.177C195.277 162.607 195.529 163.039 195.779 163.473C196.062 163.95 196.345 164.428 196.629 164.904C196.843 165.266 196.843 165.266 197.061 165.634C200.842 171.973 205.067 178.094 209.318 184.124C209.684 184.644 210.049 185.165 210.413 185.686C211.713 187.543 213.043 189.375 214.391 191.196C215.288 192.409 216.176 193.629 217.058 194.853C218.081 196.275 219.115 197.689 220.156 199.098C221.149 200.441 222.131 201.79 223.097 203.153C223.753 204.076 224.423 204.986 225.099 205.895C226.712 208.067 228.255 210.279 229.772 212.52C230.139 213.059 230.516 213.592 230.894 214.123C231.787 215.393 232.62 216.701 233.459 218.006C233.942 218.758 234.431 219.505 234.923 220.25C235.053 220.448 235.183 220.646 235.317 220.85C235.568 221.23 235.819 221.61 236.072 221.989C236.784 223.074 237.397 224.172 237.963 225.339C238.387 226.198 238.872 227.015 239.357 227.839C241.269 231.102 242.889 234.491 244.093 238.081C244.326 238.777 244.326 238.777 244.648 239.449C248.819 249.058 248.301 261.019 245.693 270.914C245.631 271.16 245.631 271.16 245.568 271.411C243.096 281.178 236.824 290.291 228.942 296.494C228.729 296.668 228.517 296.842 228.297 297.021C224.556 300.014 220.397 302.234 216.039 304.19C215.641 304.372 215.641 304.372 215.234 304.557C213.604 305.268 211.921 305.802 210.216 306.301C209.681 306.46 209.149 306.628 208.616 306.795C204.965 307.905 201.259 308.329 197.476 308.718C197.258 308.742 197.04 308.766 196.815 308.79C195.181 308.957 193.557 308.988 191.916 308.987C191.633 308.986 191.35 308.986 191.058 308.986C189.089 308.973 187.132 308.893 185.168 308.746C184.926 308.728 184.684 308.711 184.435 308.692C183.216 308.59 182.124 308.405 180.951 308.039C180.377 307.929 179.802 307.826 179.225 307.727C177.79 307.473 176.426 307.111 175.039 306.658C174.476 306.482 173.932 306.352 173.354 306.242C172.306 306.023 171.364 305.617 170.384 305.192C169.559 304.838 168.727 304.506 167.893 304.176C166.648 303.682 165.419 303.162 164.2 302.606C164.2 302.456 164.2 302.307 164.2 302.153C164.052 302.138 163.904 302.123 163.752 302.108C162.788 301.852 162.028 301.362 161.186 300.837C161.008 300.727 160.829 300.617 160.645 300.503C158.945 299.436 157.339 298.262 155.76 297.024C155.424 296.762 155.084 296.504 154.744 296.247C148.818 291.643 144.435 285.498 141.11 278.837C141.004 278.627 140.898 278.417 140.788 278.201C140.144 276.861 139.643 275.468 139.144 274.069C139.076 273.882 139.009 273.694 138.939 273.501C138.549 272.38 138.26 271.275 138.044 270.107C137.883 269.243 137.683 268.389 137.488 267.533C135.821 260.072 135.842 252.439 137.793 245.026C137.928 244.483 138.027 243.948 138.111 243.396C138.444 241.653 139.164 240.004 139.794 238.353C140.018 237.76 140.225 237.161 140.431 236.562C141.004 234.987 141.739 233.485 142.468 231.978C142.536 231.837 142.604 231.695 142.673 231.549C146.191 224.213 150.762 217.423 155.441 210.79C155.803 210.276 156.165 209.762 156.526 209.248C158.8 206.013 161.119 202.812 163.469 199.631C164.485 198.255 165.488 196.87 166.487 195.481C167.38 194.241 168.285 193.011 169.194 191.783C170.437 190.103 171.652 188.405 172.852 186.694C173.239 186.141 173.629 185.591 174.026 185.045C175.421 183.12 176.743 181.15 178.055 179.166C178.886 177.91 179.731 176.667 180.598 175.436C182.095 173.306 183.492 171.113 184.87 168.906C185.014 168.675 185.158 168.445 185.307 168.208C186.025 167.056 186.735 165.901 187.435 164.738C187.565 164.523 187.696 164.307 187.831 164.085C188.076 163.679 188.319 163.273 188.56 162.864C190.273 160.04 190.273 160.04 191.93 160.091ZM191.817 169.5C190.67 170.856 189.787 172.465 188.853 173.973C187.931 175.458 186.964 176.911 185.987 178.361C185.706 178.78 185.426 179.201 185.147 179.621C183.238 182.499 181.287 185.346 179.272 188.151C178.863 188.722 178.457 189.295 178.054 189.87C176.71 191.785 175.342 193.68 173.95 195.561C173.18 196.601 172.419 197.646 171.67 198.702C170.793 199.938 169.897 201.161 168.996 202.38C167.581 204.296 166.183 206.223 164.792 208.155C164.423 208.667 164.053 209.177 163.684 209.688C160.491 214.095 157.346 218.529 154.466 223.15C154.328 223.371 154.19 223.592 154.048 223.819C153.579 224.574 153.116 225.333 152.655 226.093C152.57 226.232 152.485 226.371 152.398 226.515C149.091 231.963 146.292 237.598 144.393 243.693C144.319 243.93 144.245 244.167 144.169 244.411C143.749 245.812 143.451 247.194 143.241 248.641C143.148 249.182 143.148 249.182 142.921 249.635C142.384 252.715 142.401 255.8 142.468 258.916C142.473 259.209 142.477 259.502 142.481 259.803C142.64 263.86 143.515 268.032 144.959 271.819C145.142 272.357 145.326 272.895 145.51 273.432C146.065 274.979 146.734 276.453 147.449 277.931C147.598 277.931 147.747 277.931 147.901 277.931C147.929 278.166 147.929 278.166 147.958 278.405C148.169 279.225 148.569 279.853 149.033 280.549C149.125 280.688 149.216 280.827 149.311 280.971C154.322 288.513 160.98 294.24 169.18 298.078C169.368 298.168 169.557 298.257 169.751 298.349C171.236 299.041 172.739 299.625 174.288 300.158C174.506 300.236 174.724 300.313 174.949 300.393C176.335 300.875 177.698 301.21 179.14 301.474C179.483 301.548 179.825 301.623 180.167 301.7C180.336 301.738 180.506 301.775 180.68 301.814C181.016 301.888 181.35 301.963 181.685 302.04C185.058 302.775 188.434 302.918 191.874 302.903C192.079 302.902 192.284 302.902 192.495 302.901C195.497 302.889 198.38 302.773 201.325 302.153C201.758 302.068 202.191 301.982 202.624 301.897C203.427 301.737 204.229 301.57 205.032 301.403C205.183 301.372 205.334 301.341 205.49 301.31C207.487 300.896 209.304 300.33 211.176 299.539C211.87 299.249 212.565 298.992 213.276 298.746C214.502 298.306 215.64 297.744 216.789 297.131C216.995 297.021 217.201 296.912 217.414 296.799C221.238 294.745 224.657 292.234 227.81 289.25C228.127 288.955 228.127 288.955 228.449 288.655C230.356 286.842 231.936 284.818 233.469 282.685C233.575 282.538 233.681 282.391 233.79 282.24C235.743 279.494 237.273 276.562 238.45 273.404C238.562 273.119 238.676 272.834 238.789 272.549C239.404 270.984 239.943 269.498 240.165 267.82C240.261 267.292 240.261 267.292 240.475 266.769C241.653 263.764 241.465 260.251 241.477 257.077C241.479 256.886 241.481 256.695 241.483 256.498C241.501 253.925 241.296 251.482 240.802 248.957C240.71 248.488 240.624 248.018 240.539 247.548C240.263 246.038 239.915 244.593 239.397 243.148C239.2 242.593 239.019 242.041 238.846 241.479C237.334 236.704 234.967 232.112 232.479 227.776C232.378 227.6 232.277 227.424 232.173 227.242C231.941 226.85 231.689 226.47 231.432 226.093C231.283 226.093 231.133 226.093 230.979 226.093C230.944 225.906 230.944 225.906 230.909 225.716C230.239 223.439 228.451 221.36 227.117 219.415C226.926 219.135 226.735 218.856 226.545 218.576C224.12 215.026 221.647 211.513 219.121 208.034C218.75 207.523 218.381 207.01 218.013 206.497C216.841 204.868 215.663 203.246 214.454 201.645C213.118 199.874 211.819 198.077 210.525 196.276C210.034 195.593 209.542 194.912 209.049 194.23C208.804 193.89 208.558 193.55 208.313 193.21C207.708 192.371 207.101 191.533 206.491 190.697C202.715 185.517 199.173 180.165 195.68 174.791C195.56 174.608 195.441 174.424 195.318 174.235C194.769 173.389 194.224 172.539 193.688 171.684C193.594 171.534 193.499 171.384 193.402 171.229C193.152 170.832 192.904 170.433 192.656 170.034C192.465 169.77 192.465 169.77 192.27 169.5C192.121 169.5 191.971 169.5 191.817 169.5Z" fill="#89744F"/>
<path d="M211.284 74.1988C212.126 75.1034 212.771 76.084 213.407 77.1416C215.698 80.8728 218.244 84.4279 220.858 87.9382C221.984 89.4583 223.088 90.9955 224.187 92.5348C224.28 92.6647 224.373 92.7946 224.469 92.9284C229.004 99.2928 233.549 106.391 232.495 114.568C231.532 120.304 228.842 125.177 224.187 128.754C224.023 128.881 223.859 129.007 223.69 129.138C218.487 132.781 211.524 133.61 205.372 132.631C204.693 132.5 204.028 132.333 203.361 132.15C203.13 132.089 202.899 132.029 202.661 131.967C199.275 130.964 196.276 129.044 193.854 126.49C193.742 126.394 193.63 126.297 193.514 126.197C190.141 123.167 188.252 118.043 187.937 113.594C187.814 110.885 188.118 108.488 188.874 105.891C188.964 105.548 188.964 105.548 189.056 105.198C191.04 98.3864 196.385 92.2942 200.549 86.6899C202.056 84.6606 203.518 82.6176 204.899 80.5003C205.187 80.0616 205.48 79.6262 205.775 79.1914C206.996 77.3901 206.996 77.3901 208.073 75.5005C208.839 74.0859 209.709 73.7207 211.284 74.1988Z" fill="#FCFCFC"/>
<path d="M254.068 130.565C255.227 131.186 255.828 131.957 256.473 133.07C256.672 133.399 256.87 133.728 257.069 134.056C257.171 134.228 257.274 134.399 257.379 134.575C257.886 135.42 258.409 136.254 258.935 137.088C259.045 137.262 259.155 137.437 259.268 137.617C262.435 142.611 265.778 147.5 269.235 152.297C269.463 152.614 269.691 152.932 269.919 153.249C271.19 155.015 272.47 156.773 273.762 158.522C275.876 161.383 277.956 164.269 280.018 167.167C280.36 167.648 280.706 168.125 281.053 168.602C283.856 172.465 286.552 176.454 288.929 180.593C289.081 180.851 289.232 181.108 289.388 181.373C290.534 183.332 291.571 185.338 292.551 187.384C292.707 187.705 292.707 187.705 292.867 188.033C293.747 189.882 294.459 191.759 295.084 193.709C295.133 193.862 295.182 194.015 295.232 194.173C297.628 201.73 297.782 210.833 295.267 218.397C295.168 218.77 295.069 219.142 294.97 219.515C294.493 221.099 293.725 222.572 293.004 224.056C292.872 224.346 292.872 224.346 292.737 224.642C290.953 228.456 288.316 231.785 285.307 234.696C285.123 234.88 284.939 235.064 284.75 235.254C282.121 237.879 279.31 239.811 276.083 241.628C275.819 241.777 275.819 241.777 275.551 241.929C275.305 242.065 275.305 242.065 275.053 242.203C274.908 242.284 274.762 242.364 274.612 242.447C274.215 242.619 274.215 242.619 273.536 242.619C273.536 242.768 273.536 242.918 273.536 243.071C271.403 243.928 269.25 244.652 267.042 245.293C266.807 245.361 266.571 245.429 266.329 245.5C264.342 246.068 262.491 246.482 260.406 246.241C259.685 245.731 259.685 245.731 259.275 245.109C259.176 244.969 259.078 244.829 258.977 244.684C258.741 243.954 258.743 243.382 258.822 242.619C259.457 241.395 260.176 240.799 261.484 240.382C261.703 240.331 261.921 240.28 262.147 240.228C262.387 240.17 262.628 240.113 262.876 240.053C263.458 239.928 264.035 239.827 264.623 239.733C266.46 239.381 268.191 238.572 269.914 237.865C270.108 237.788 270.302 237.711 270.502 237.632C275.573 235.521 280.14 231.995 283.496 227.678C283.636 227.506 283.776 227.333 283.92 227.155C285.683 224.972 285.683 224.972 286.892 222.472C287.041 222.472 287.191 222.472 287.344 222.472C287.378 222.242 287.378 222.242 287.412 222.008C287.607 221.189 287.951 220.47 288.307 219.713C289.195 217.742 289.8 215.747 290.287 213.643C290.325 213.485 290.362 213.327 290.401 213.165C292.123 205.585 290.613 197.502 287.344 190.554C287.205 190.233 287.066 189.912 286.927 189.591C284.483 184.087 281.025 178.982 277.532 174.1C277.166 173.588 276.804 173.074 276.443 172.559C275.281 170.902 274.105 169.257 272.904 167.628C272.103 166.541 271.311 165.447 270.522 164.351C269.485 162.91 268.437 161.478 267.381 160.05C266.197 158.446 265.023 156.836 263.873 155.207C263.669 154.919 263.464 154.631 263.259 154.343C261.315 151.617 259.448 148.843 257.591 146.058C257.473 145.881 257.355 145.704 257.234 145.523C256.891 145.008 256.548 144.492 256.205 143.977C256.097 143.814 255.989 143.651 255.877 143.484C255.127 142.351 254.398 141.207 253.688 140.048C253.418 139.59 253.418 139.59 252.936 139.394C252.883 139.545 252.83 139.697 252.775 139.853C252.406 140.703 251.933 141.457 251.436 142.238C251.335 142.398 251.234 142.559 251.129 142.724C247.675 148.175 243.909 153.444 240.116 158.662C239.854 159.022 239.593 159.383 239.332 159.744C238.524 160.859 237.708 161.968 236.891 163.076C233.998 166.994 231.11 170.923 228.383 174.96C228.252 175.153 228.121 175.347 227.985 175.547C227.733 175.92 227.482 176.295 227.232 176.67C226.425 177.866 225.628 178.878 224.413 179.688C223.478 179.763 222.853 179.784 221.98 179.447C221.301 178.862 220.844 178.273 220.565 177.424C220.466 175.818 221.082 174.727 221.994 173.463C222.116 173.287 222.238 173.112 222.363 172.931C222.741 172.389 223.125 171.85 223.508 171.312C223.733 170.99 223.957 170.667 224.181 170.344C225.487 168.466 226.837 166.621 228.198 164.783C229.096 163.57 229.984 162.35 230.865 161.125C231.875 159.723 232.894 158.328 233.921 156.937C236.356 153.639 238.74 150.314 241.043 146.922C241.374 146.437 241.707 145.953 242.042 145.47C243.531 143.323 244.964 141.143 246.371 138.941C246.513 138.72 246.654 138.5 246.8 138.273C247.589 137.038 248.367 135.797 249.144 134.555C249.241 134.401 249.337 134.248 249.436 134.089C249.528 133.943 249.619 133.796 249.714 133.644C249.801 133.504 249.889 133.364 249.979 133.22C250.189 132.879 250.39 132.534 250.59 132.187C251.45 130.822 252.524 130.437 254.068 130.565Z" fill="#89744F"/>
<path d="M142.241 112.002C143.691 112.667 144.207 113.843 144.957 115.172C146.343 117.467 147.814 119.704 149.301 121.934C149.388 122.065 149.474 122.195 149.564 122.329C150.649 123.957 151.751 125.571 152.88 127.169C153.095 127.476 153.311 127.782 153.526 128.089C155.691 131.165 157.889 134.216 160.124 137.243C167.486 147.217 167.486 147.217 170.084 151.617C170.265 151.915 170.447 152.212 170.628 152.509C170.815 152.815 171.001 153.122 171.188 153.428C171.318 153.64 171.318 153.64 171.45 153.856C172.178 155.063 172.754 156.066 172.574 157.503C172.101 158.222 171.708 158.609 170.99 159.087C170.518 159.171 170.518 159.171 169.999 159.187C169.83 159.196 169.66 159.205 169.485 159.214C168.431 158.964 167.867 158.068 167.32 157.19C167.155 156.908 166.992 156.626 166.83 156.343C166.651 156.038 166.472 155.732 166.293 155.428C166.162 155.205 166.162 155.205 166.029 154.977C162.689 149.31 158.639 143.944 154.677 138.7C153.392 136.999 152.163 135.261 150.94 133.514C150.435 132.797 149.925 132.084 149.414 131.371C147.464 128.644 145.541 125.901 143.771 123.052C143.649 122.855 143.526 122.658 143.399 122.454C143.158 122.065 142.917 121.674 142.679 121.282C142.569 121.106 142.46 120.929 142.347 120.747C142.201 120.509 142.201 120.509 142.053 120.266C141.922 120.098 141.922 120.098 141.788 119.925C141.639 119.925 141.489 119.925 141.335 119.925C141.003 120.341 141.003 120.341 140.668 120.889C140.533 121.099 140.399 121.308 140.261 121.524C140.043 121.867 140.043 121.867 139.821 122.217C139.513 122.698 139.203 123.178 138.894 123.658C138.735 123.904 138.577 124.15 138.414 124.403C136.358 127.565 134.185 130.646 131.962 133.692C131.348 134.534 130.739 135.379 130.13 136.224C129.884 136.564 129.639 136.904 129.393 137.244C128.905 137.919 128.418 138.596 127.931 139.272C126.799 140.844 125.662 142.412 124.508 143.968C122.977 146.034 121.485 148.12 120.056 150.259C119.94 150.433 119.824 150.607 119.704 150.787C116.692 155.312 113.898 159.882 112.058 165.014C111.928 165.368 111.787 165.718 111.645 166.067C109.156 172.227 109.801 180.135 112.289 186.167C115.38 193.291 120.942 198.73 128.14 201.632C129.973 202.342 131.774 202.939 133.715 203.275C134.458 203.498 134.89 203.829 135.45 204.362C135.795 205.398 135.921 206.318 135.46 207.322C134.957 208.033 134.583 208.386 133.713 208.55C132.58 208.573 131.737 208.426 130.696 207.984C130.254 207.848 129.81 207.716 129.366 207.587C122.586 205.502 116.483 201.643 112.134 195.986C111.878 195.664 111.878 195.664 111.618 195.336C105.953 188.043 104.21 179.057 105.314 170.003C105.593 168.034 106.021 166.166 106.701 164.294C106.816 163.958 106.932 163.623 107.047 163.287C107.889 160.881 108.88 158.61 110.096 156.371C110.176 156.221 110.257 156.071 110.339 155.917C113.161 150.685 116.658 145.715 120.197 140.947C120.509 140.525 120.819 140.102 121.128 139.679C122.008 138.474 122.893 137.273 123.779 136.074C125.349 133.949 126.909 131.818 128.432 129.659C128.551 129.491 128.67 129.323 128.793 129.149C131.445 125.395 134.025 121.599 136.445 117.691C138.16 114.925 138.16 114.925 139.029 113.629C139.143 113.46 139.256 113.29 139.373 113.116C140.187 112.179 141.014 111.827 142.241 112.002Z" fill="#89744F"/>
<path d="M211.284 74.1988C212.126 75.1034 212.771 76.084 213.407 77.1416C215.698 80.8728 218.244 84.4279 220.858 87.9382C221.984 89.4583 223.088 90.9955 224.187 92.5348C224.28 92.6647 224.373 92.7946 224.469 92.9284C229.004 99.2928 233.549 106.391 232.495 114.568C231.532 120.304 228.842 125.177 224.187 128.754C224.023 128.881 223.859 129.007 223.69 129.138C218.487 132.781 211.524 133.61 205.372 132.631C204.693 132.5 204.028 132.333 203.361 132.15C203.13 132.089 202.899 132.029 202.661 131.967C199.275 130.964 196.276 129.044 193.854 126.49C193.742 126.394 193.63 126.297 193.514 126.197C190.141 123.167 188.252 118.043 187.937 113.594C187.814 110.885 188.118 108.488 188.874 105.891C188.964 105.548 188.964 105.548 189.056 105.198C191.04 98.3864 196.385 92.2942 200.549 86.6899C202.056 84.6606 203.518 82.6176 204.899 80.5003C205.187 80.0616 205.48 79.6262 205.775 79.1914C206.996 77.3901 206.996 77.3901 208.073 75.5005C208.839 74.0859 209.709 73.7207 211.284 74.1988ZM210.152 80.0845C209.115 81.3877 208.196 82.7831 207.28 84.1733C205.636 86.666 203.871 89.0751 202.074 91.4596C193.845 102.317 193.845 102.317 192.101 115.447C192.783 119.427 195.616 123.194 198.806 125.557C203.586 128.629 208.694 129.574 214.279 128.671C214.9 128.546 214.9 128.546 215.441 128.314C216.038 128.075 216.038 128.075 216.913 127.869C220.761 126.938 224.184 123.89 226.225 120.605C228.204 117.199 228.732 113.639 228.489 109.739C228.414 109.664 228.339 109.59 228.262 109.513C228.217 109.183 228.175 108.853 228.135 108.522C227.218 103.386 223.781 98.9239 220.792 94.7985C220.53 94.4349 220.268 94.0712 220.006 93.7074C219.396 92.8619 218.786 92.0171 218.173 91.1746C217.954 90.8702 217.739 90.5632 217.528 90.2537C217.268 89.8749 216.994 89.506 216.717 89.1393C216.568 89.1393 216.418 89.1393 216.264 89.1393C216.238 89.0059 216.211 88.8726 216.183 88.7352C216.032 88.2117 215.844 87.8934 215.525 87.4548C215.418 87.3059 215.312 87.1571 215.201 87.0037C215.027 86.7652 215.027 86.7652 214.85 86.5219C214.604 86.1802 214.358 85.8383 214.113 85.4961C213.984 85.3167 213.856 85.1372 213.723 84.9523C212.899 83.7879 212.104 82.6027 211.308 81.4188C211.189 81.2443 211.071 81.0698 210.949 80.89C210.844 80.7343 210.74 80.5786 210.632 80.4182C210.548 80.3081 210.465 80.1979 210.379 80.0845C210.304 80.0845 210.229 80.0845 210.152 80.0845Z" fill="#89744F"/>
<path d="M160.845 267.745C161.452 268.177 161.653 268.408 162.023 269.023C162.121 269.185 162.219 269.347 162.32 269.514C162.588 269.967 162.856 270.421 163.123 270.875C164.399 273.026 165.838 274.799 167.593 276.574C167.738 276.735 167.883 276.897 168.033 277.063C173.563 283.088 182.405 285.623 190.273 286.096C190.52 286.105 190.768 286.115 191.022 286.125C192.397 286.193 193.262 286.285 194.305 287.213C194.964 288.201 195.131 288.978 194.984 290.156C194.462 291.162 193.978 291.73 192.947 292.193C192.163 292.295 191.388 292.29 190.598 292.278C190.252 292.274 190.252 292.274 189.898 292.269C180.632 292.066 171.235 288.629 164.424 282.233C164.294 282.111 164.163 281.989 164.029 281.863C161.145 279.136 158.892 276.186 156.954 272.726C156.823 272.492 156.692 272.258 156.557 272.017C156.117 271.004 156.218 270.155 156.501 269.104C157.465 267.381 159.078 267.191 160.845 267.745Z" fill="#89744F"/>
<path d="M121.417 181.498C122.507 182.156 122.898 182.804 123.415 183.935C125.744 188.361 130.504 191.159 135.127 192.619C136.979 193.09 138.867 193.268 140.772 193.354C142.003 193.434 142.721 193.521 143.602 194.401C144.078 195.225 144.205 195.953 144.055 196.892C143.759 197.659 143.417 198.072 142.696 198.476C141.563 198.622 140.475 198.585 139.338 198.507C138.899 198.479 138.459 198.468 138.019 198.459C135.889 198.388 134.043 197.83 132.057 197.118C131.637 196.975 131.637 196.975 131.208 196.829C126.179 194.991 121.841 191.388 119.058 186.825C118.691 186.214 118.691 186.214 118.149 185.545C117.654 184.633 117.532 183.868 117.796 182.857C118.658 181.547 119.917 181.14 121.417 181.498Z" fill="#89744F"/>
<path d="M198.382 112.003C199.278 112.483 199.653 113.122 200.137 113.983C201.622 116.547 204.098 117.924 206.885 118.751C207.938 119.014 208.97 119.101 210.05 119.177C210.792 119.27 211.343 119.516 211.965 119.926C212.321 120.638 212.27 121.175 212.191 121.963C211.396 123.236 211.396 123.236 210.626 123.43C210.137 123.455 209.666 123.44 209.177 123.406C208.926 123.397 208.926 123.397 208.669 123.387C208.258 123.372 207.848 123.347 207.437 123.321C207.437 123.172 207.437 123.022 207.437 122.868C207.176 122.901 206.914 122.934 206.645 122.967C203.495 122.962 200.395 120.543 198.213 118.511C197.028 117.277 195.639 115.602 195.496 113.828C195.88 112.26 196.834 111.754 198.382 112.003Z" fill="#89744F"/>
<path d="M156.369 252.461C157.461 252.681 158.067 253.118 158.682 254.035C159.121 255.178 159.1 256.231 159.091 257.446C159.098 257.792 159.098 257.792 159.105 258.145C159.104 259.53 159.02 260.36 158.087 261.408C157.104 262.116 156.329 262.174 155.169 261.988C154.442 261.793 154.06 261.515 153.559 260.955C152.834 259.606 152.749 258.411 152.739 256.894C152.728 256.679 152.718 256.464 152.708 256.242C152.696 255.036 152.831 254.289 153.603 253.339C154.513 252.434 155.116 252.361 156.369 252.461Z" fill="#89744F"/>
<path d="M119.547 172.047C120.213 172.565 120.668 172.94 120.811 173.807C120.852 174.368 120.862 174.923 120.863 175.485C120.871 175.677 120.879 175.869 120.888 176.066C120.898 177.442 120.898 177.442 120.44 178.03C119.706 178.651 119.125 178.989 118.175 179.079C117.203 178.997 116.887 178.782 116.208 178.103C115.566 177.139 115.672 176.307 115.67 175.174C115.665 174.969 115.659 174.764 115.654 174.552C115.647 173.048 115.647 173.048 116.171 172.315C117.233 171.612 118.386 171.52 119.547 172.047Z" fill="#89744F"/>
<path d="M245.919 143.469C246.218 143.469 246.517 143.469 246.825 143.469C246.899 143.992 246.974 144.515 247.051 145.053C247.649 145.128 248.246 145.203 248.862 145.28C248.937 145.504 249.011 145.728 249.088 145.959C248.753 146.506 248.412 147.004 248.027 147.515C247.875 147.723 247.875 147.723 247.72 147.935C247.139 148.726 246.538 149.498 245.919 150.26C245.546 150.185 245.172 150.11 244.787 150.033C244.937 149.585 245.086 149.137 245.24 148.675C245.114 148.736 244.988 148.797 244.858 148.859C244.335 148.902 244.335 148.902 243.712 148.378C243.203 147.77 243.203 147.77 243.203 147.317C243.053 147.317 242.904 147.317 242.75 147.317C242.75 147.093 242.75 146.869 242.75 146.638C243.373 146.468 243.373 146.468 244.108 146.412C244.646 146.85 244.646 146.85 245.014 147.317C245.014 146.608 244.55 146.258 244.108 145.732C244.258 145.658 244.407 145.583 244.561 145.506C244.636 145.282 244.71 145.058 244.787 144.827C245.011 144.976 245.236 145.126 245.466 145.28C245.466 145.429 245.466 145.579 245.466 145.732C245.616 145.732 245.765 145.732 245.919 145.732C245.919 144.985 245.919 144.238 245.919 143.469Z" fill="#89744F"/>
<path d="M109.641 176.971C110.384 177.772 110.537 178.644 110.716 179.687C110.748 179.848 110.779 180.009 110.811 180.175C110.955 180.973 111.07 181.634 110.773 182.404C110.624 182.105 110.474 181.806 110.32 181.498C109.797 181.648 109.274 181.797 108.736 181.951C108.885 182.399 109.034 182.847 109.188 183.309C109.039 183.309 108.89 183.309 108.736 183.309C108.736 183.533 108.736 183.757 108.736 183.988C107.879 183.866 107.478 183.509 106.925 182.856C106.925 182.707 106.925 182.558 106.925 182.404C106.234 182.175 106.234 182.175 105.566 182.404C105.641 181.657 105.716 180.91 105.793 180.14C105.867 180.364 105.942 180.588 106.019 180.819C106.318 180.744 106.617 180.67 106.925 180.593C106.999 180.294 107.074 179.995 107.151 179.687C107.3 179.687 107.45 179.687 107.604 179.687C107.664 179.547 107.725 179.407 107.788 179.263C108.056 178.782 108.056 178.782 108.736 178.329C109.034 178.329 109.333 178.329 109.641 178.329C109.641 177.881 109.641 177.432 109.641 176.971Z" fill="#89744F"/>
<path d="M242.464 147.755C242.982 148 243.288 148.234 243.652 148.675C243.422 149.531 243.135 150.15 242.591 150.839C242.284 151.225 242.284 151.225 242.067 151.617C242.136 152.226 242.136 152.226 242.294 152.749C241.968 153.159 241.968 153.159 241.615 153.428C240.858 153.098 240.345 152.679 239.761 152.098C239.525 151.868 239.525 151.868 239.285 151.633C238.892 151.158 238.762 150.861 238.672 150.259C239.12 150.259 239.568 150.259 240.03 150.259C240.035 150.1 240.039 149.942 240.044 149.778C240.399 148.69 241.282 147.782 242.464 147.755Z" fill="#89744F"/>
<path d="M226.903 213.869C227.202 214.019 227.501 214.168 227.809 214.322C227.734 214.546 227.659 214.77 227.582 215.001C227.433 215.001 227.283 215.001 227.13 215.001C227.13 215.15 227.13 215.3 227.13 215.454C227.578 215.304 228.026 215.155 228.488 215.001C228.562 215.3 228.637 215.599 228.714 215.906C228.565 215.906 228.415 215.906 228.261 215.906C228.336 216.131 228.411 216.355 228.488 216.586C228.637 216.361 228.787 216.137 228.94 215.906C229.165 215.906 229.389 215.906 229.62 215.906C229.534 216.536 229.467 216.945 229.068 217.449C228.714 217.717 228.714 217.717 228.261 217.717C228.187 217.867 228.112 218.016 228.035 218.17C227.886 218.095 227.736 218.021 227.582 217.944C227.657 218.243 227.732 218.541 227.809 218.849C227.51 219.073 227.211 219.298 226.903 219.528C226.593 219.102 226.287 218.672 225.984 218.241C225.813 218.002 225.642 217.763 225.466 217.517C225.092 216.812 225.092 216.812 225.099 216.218C225.354 215.592 225.665 215.197 226.125 214.704C226.27 214.546 226.415 214.388 226.564 214.225C226.676 214.108 226.788 213.99 226.903 213.869Z" fill="#89744F"/>
<path d="M134.771 203.909C135.45 204.362 135.45 204.362 135.676 205.041C135.805 206.145 135.806 206.834 135.153 207.757C134.655 208.286 134.398 208.424 133.673 208.535C133.05 208.536 132.447 208.506 131.828 208.437C131.902 208.287 131.977 208.138 132.054 207.984C131.83 207.76 131.606 207.536 131.375 207.305C131.735 206.368 132.417 205.668 133.186 205.041C133.335 205.041 133.485 205.041 133.639 205.041C133.639 204.817 133.639 204.593 133.639 204.362C134.162 204.107 134.162 204.107 134.771 203.909Z" fill="#89744F"/>
<path d="M234.599 155.918C234.748 155.918 234.898 155.918 235.052 155.918C235.386 156.587 235.292 157.218 235.278 157.955C235.801 157.955 236.324 157.955 236.863 157.955C236.552 158.671 236.412 158.859 235.731 159.314C235.219 159.407 235.219 159.407 234.67 159.455C234.487 159.472 234.304 159.489 234.115 159.506C233.906 159.523 233.906 159.523 233.693 159.54C233.619 159.839 233.544 160.138 233.467 160.445C233.691 160.445 233.915 160.445 234.146 160.445C234.071 160.744 233.997 161.043 233.92 161.351C233.52 161.499 233.52 161.499 233.014 161.577C232.579 161.352 232.579 161.352 232.165 161.025C232.026 160.918 231.888 160.811 231.744 160.701C231.641 160.617 231.537 160.532 231.43 160.445C232.181 159.293 232.954 158.157 233.75 157.036C233.901 156.823 234.051 156.61 234.206 156.391C234.336 156.235 234.465 156.079 234.599 155.918Z" fill="#89744F"/>
<path d="M245.917 246.24C246.141 246.315 246.365 246.39 246.596 246.467C247.299 249.578 247.299 249.578 246.822 250.994C246.285 251.475 246.285 251.475 245.69 251.673C245.466 251.598 245.242 251.524 245.011 251.447C245.011 251.297 245.011 251.148 245.011 250.994C244.881 250.938 244.75 250.882 244.615 250.824C244.013 250.49 243.622 250.183 243.2 249.636C243.186 249.07 243.186 249.07 243.427 248.504C244.007 247.98 244.007 247.98 244.559 247.598C244.708 247.673 244.857 247.748 245.011 247.825C244.813 248.9 244.813 248.9 244.559 249.409C245.007 249.111 245.455 248.812 245.917 248.504C245.842 248.369 245.767 248.233 245.69 248.094C245.464 247.598 245.464 247.598 245.464 246.919C245.613 246.919 245.763 246.919 245.917 246.919C245.917 246.695 245.917 246.471 245.917 246.24Z" fill="#89744F"/>
<path d="M187.288 304.87C187.438 304.87 187.587 304.87 187.741 304.87C187.792 305.334 187.844 305.799 187.896 306.263C187.926 306.684 187.926 306.684 188.194 306.907C188.537 306.96 188.881 307.001 189.226 307.035C189.414 307.054 189.601 307.073 189.793 307.092C189.938 307.106 190.082 307.12 190.231 307.134C190.231 307.283 190.231 307.433 190.231 307.587C189.944 307.733 189.656 307.879 189.368 308.025C189.208 308.107 189.048 308.188 188.882 308.272C187.638 308.864 186.497 308.708 185.152 308.648C184.914 308.64 184.676 308.632 184.432 308.623C184.203 308.614 183.974 308.604 183.738 308.594C183.424 308.581 183.424 308.581 183.104 308.568C182.534 308.492 182.534 308.492 181.629 308.039C182.6 308.114 183.571 308.189 184.572 308.266C184.721 307.892 184.871 307.519 185.024 307.134C185.174 306.984 185.323 306.835 185.477 306.681C185.701 306.681 185.925 306.681 186.156 306.681C186.156 306.905 186.156 307.129 186.156 307.36C186.38 307.36 186.605 307.36 186.835 307.36C186.83 307.218 186.825 307.077 186.82 306.93C186.815 306.745 186.811 306.56 186.807 306.37C186.802 306.186 186.797 306.002 186.791 305.813C186.835 305.323 186.835 305.323 187.288 304.87Z" fill="#89744F"/>
<path d="M215.131 128.754C214.607 129.32 214.607 129.32 213.999 129.886C213.775 129.886 213.551 129.886 213.32 129.886C213.32 129.737 213.32 129.587 213.32 129.433C212.797 129.583 212.274 129.732 211.735 129.886C211.661 130.185 211.586 130.484 211.509 130.792C211.658 130.792 211.808 130.792 211.962 130.792C211.962 130.642 211.962 130.493 211.962 130.339C212.111 130.339 212.26 130.339 212.414 130.339C212.414 130.189 212.414 130.04 212.414 129.886C212.713 129.961 213.012 130.036 213.32 130.112C212.924 130.99 212.924 130.99 212.414 131.244C212.34 131.468 212.265 131.693 212.188 131.923C210.963 131.787 210.963 131.787 210.434 131.428C210.052 130.874 209.884 130.302 209.698 129.66C209.175 129.585 208.652 129.51 208.113 129.433C208.113 129.359 208.113 129.284 208.113 129.207C210.018 129.095 210.018 129.095 211.962 128.981C211.962 128.906 211.962 128.831 211.962 128.754C213.098 128.578 213.994 128.498 215.131 128.754Z" fill="#89744F"/>
<path d="M151.748 289.704C151.55 290.779 151.55 290.779 151.296 291.289C151.426 291.172 151.557 291.055 151.692 290.935C152.201 290.61 152.201 290.61 152.711 290.68C152.841 290.732 152.972 290.783 153.107 290.836C152.88 291.289 152.654 291.741 152.428 292.194C152.577 292.194 152.726 292.194 152.88 292.194C152.955 292.045 153.03 291.895 153.107 291.741C153.405 291.816 153.704 291.891 154.012 291.968C153.666 292.746 153.197 293.353 152.654 294.005C151.352 293.299 150.391 292.506 149.938 291.062C150.982 289.704 150.982 289.704 151.748 289.704Z" fill="#89744F"/>
<path d="M206.53 184.894C206.707 186.706 206.707 186.706 206.006 187.596C205.588 187.918 205.158 188.224 204.719 188.516C203.598 187.205 203.598 187.205 203.559 186.21C204.163 184.699 205.03 184.541 206.53 184.894Z" fill="#89744F"/>
<path d="M153.557 286.534C153.782 286.684 154.006 286.833 154.237 286.987C154.321 287.553 154.321 287.553 154.237 288.119C154.012 288.268 153.788 288.418 153.557 288.572C153.483 288.796 153.408 289.02 153.331 289.251C153.854 289.027 154.377 288.802 154.916 288.572C154.916 288.87 154.916 289.169 154.916 289.477C154.766 289.477 154.617 289.477 154.463 289.477C154.463 289.701 154.463 289.925 154.463 290.156C154.911 290.007 155.359 289.857 155.821 289.703C155.821 290.609 155.821 290.609 155.524 290.945C155.17 291.21 154.817 291.475 154.463 291.741C154.16 291.488 153.858 291.233 153.557 290.977C153.389 290.835 153.221 290.693 153.048 290.547C152.917 290.418 152.787 290.289 152.652 290.156C152.652 290.007 152.652 289.857 152.652 289.703C152.503 289.703 152.353 289.703 152.199 289.703C152.329 289.054 152.394 288.829 152.878 288.345C153.024 287.877 153.024 287.877 153.105 287.44C153.254 287.44 153.404 287.44 153.557 287.44C153.483 287.216 153.408 286.991 153.331 286.761C153.406 286.686 153.48 286.611 153.557 286.534Z" fill="#89744F"/>
<path d="M238.676 151.165C238.721 151.986 238.644 152.493 238.223 153.202C238.358 153.09 238.494 152.978 238.633 152.863C239.129 152.523 239.129 152.523 239.808 152.523C239.733 152.822 239.658 153.121 239.581 153.429C239.432 153.429 239.282 153.429 239.129 153.429C239.129 153.653 239.129 153.877 239.129 154.108C239.427 154.108 239.726 154.108 240.034 154.108C240.034 153.884 240.034 153.66 240.034 153.429C240.333 153.503 240.632 153.578 240.94 153.655C240.94 153.879 240.94 154.103 240.94 154.334C240.543 154.698 240.543 154.698 240.034 155.056C239.866 155.176 239.698 155.296 239.525 155.419C239.394 155.509 239.263 155.6 239.129 155.692C239.129 155.543 239.129 155.394 239.129 155.24C238.979 155.24 238.83 155.24 238.676 155.24C238.195 154.815 238.195 154.815 237.77 154.334C237.77 154.185 237.77 154.035 237.77 153.881C237.546 153.807 237.322 153.732 237.091 153.655C237.001 152.862 237.056 152.574 237.516 151.901C238.211 151.165 238.211 151.165 238.676 151.165Z" fill="#89744F"/>
<path d="M244.335 146.637C244.561 146.863 244.787 147.09 245.014 147.316C245.49 147.478 245.49 147.478 245.919 147.542C245.919 147.692 245.919 147.841 245.919 147.995C246.367 147.995 246.816 147.995 247.277 147.995C246.967 148.899 246.54 149.534 245.919 150.259C245.546 150.184 245.172 150.109 244.787 150.032C244.937 149.584 245.086 149.136 245.24 148.674C245.114 148.735 244.988 148.796 244.858 148.858C244.335 148.901 244.335 148.901 243.712 148.377C243.203 147.769 243.203 147.769 243.203 147.316C243.053 147.316 242.904 147.316 242.75 147.316C242.75 147.092 242.75 146.868 242.75 146.637C243.467 146.398 243.652 146.381 244.335 146.637Z" fill="#89744F"/>
<path d="M228.714 211.832C229.595 212.171 229.952 212.671 230.468 213.445C230.677 213.754 230.677 213.754 230.889 214.069C231.045 214.306 231.045 214.306 231.204 214.548C230.98 214.997 230.756 215.445 230.525 215.907C229.368 215.346 228.562 214.44 227.809 213.417C227.809 212.964 227.809 212.964 228.134 212.624C228.251 212.512 228.367 212.4 228.488 212.285C228.562 212.135 228.637 211.986 228.714 211.832Z" fill="#89744F"/>
<path d="M118.924 171.764C118.924 171.914 118.924 172.063 118.924 172.217C118.746 172.236 118.569 172.254 118.386 172.274C117.772 172.378 117.772 172.378 117.537 172.839C117.472 173.008 117.407 173.176 117.339 173.349C117.115 173.728 116.89 174.105 116.66 174.481C116.884 174.481 117.108 174.481 117.339 174.481C117.339 174.779 117.339 175.078 117.339 175.386C117.115 175.386 116.891 175.386 116.66 175.386C116.66 175.536 116.66 175.685 116.66 175.839C116.511 175.839 116.361 175.839 116.207 175.839C116.133 176.362 116.058 176.885 115.981 177.423C115.906 177.423 115.832 177.423 115.755 177.423C115.728 176.688 115.712 175.952 115.698 175.216C115.69 175.008 115.683 174.8 115.675 174.585C115.653 173.04 115.653 173.04 116.168 172.312C117.085 171.713 117.855 171.744 118.924 171.764Z" fill="#89744F"/>
<path d="M143.372 195.081C144.051 196.1 144.051 196.1 144.051 196.892C143.739 197.62 143.377 198.073 142.693 198.477C141.686 198.545 140.742 198.425 139.75 198.25C139.92 198.116 140.09 197.981 140.266 197.843C140.888 197.34 141.48 196.813 142.071 196.274C142.504 195.959 142.849 195.855 143.372 195.76C143.372 195.536 143.372 195.312 143.372 195.081Z" fill="#89744F"/>
<path d="M209.247 130.339C209.247 130.489 209.247 130.638 209.247 130.792C209.396 130.792 209.545 130.792 209.699 130.792C209.625 131.315 209.55 131.838 209.473 132.377C209.996 132.377 210.519 132.377 211.058 132.377C211.058 132.451 211.058 132.526 211.058 132.603C210.161 132.603 209.265 132.603 208.341 132.603C208.416 132.304 208.49 132.005 208.567 131.697C208.12 131.776 208.12 131.776 207.662 131.924C207.587 132.073 207.513 132.223 207.436 132.377C207.585 132.526 207.734 132.675 207.888 132.829C206.992 132.755 206.095 132.68 205.172 132.603C205.471 132.528 205.769 132.454 206.077 132.377C206.077 132.227 206.077 132.078 206.077 131.924C206.301 131.924 206.526 131.924 206.756 131.924C206.756 131.7 206.756 131.476 206.756 131.245C206.906 131.245 207.055 131.245 207.209 131.245C207.284 131.021 207.359 130.797 207.436 130.566C208.049 130.259 208.57 130.325 209.247 130.339Z" fill="#89744F"/>
<path d="M236.411 153.428C236.56 153.652 236.71 153.876 236.864 154.107C236.666 154.715 236.666 154.715 236.411 155.239C236.71 155.089 237.009 154.94 237.316 154.786C237.242 155.309 237.167 155.832 237.09 156.371C237.263 156.254 237.436 156.137 237.614 156.017C237.814 155.909 238.015 155.802 238.222 155.691C238.446 155.766 238.67 155.841 238.901 155.918C238.691 156.184 238.479 156.448 238.264 156.71C238.146 156.857 238.028 157.004 237.906 157.156C237.543 157.502 237.543 157.502 236.864 157.502C236.084 157.017 235.384 156.485 235.109 155.592C235.359 154.739 235.858 154.113 236.411 153.428Z" fill="#89744F"/>
<path d="M207.436 182.178C208.365 182.519 208.689 183.075 209.191 183.904C209.33 184.131 209.469 184.358 209.612 184.592C209.716 184.766 209.819 184.941 209.926 185.121C209.702 185.121 209.478 185.121 209.247 185.121C208.935 184.752 208.633 184.374 208.342 183.989C208.192 183.914 208.043 183.839 207.889 183.762C207.889 183.912 207.889 184.061 207.889 184.215C208.113 184.29 208.337 184.364 208.568 184.441C208.398 184.88 208.398 184.88 208.115 185.347C207.634 185.517 207.634 185.517 207.21 185.573C207.182 185.363 207.182 185.363 207.153 185.149C207.026 184.626 207.026 184.626 206.517 184.385C206.372 184.329 206.227 184.273 206.078 184.215C206.153 183.916 206.228 183.617 206.304 183.31C207.21 183.31 207.21 183.31 207.663 183.536C207.513 183.162 207.364 182.789 207.21 182.404C207.285 182.329 207.359 182.255 207.436 182.178Z" fill="#89744F"/>
<path d="M190.246 308.228C190.425 308.227 190.603 308.227 190.787 308.226C191.163 308.225 191.54 308.224 191.917 308.224C192.494 308.224 193.07 308.22 193.647 308.215C194.013 308.215 194.379 308.214 194.746 308.214C194.918 308.212 195.091 308.211 195.269 308.209C196.127 308.213 196.517 308.231 197.25 308.719C195.368 308.959 193.5 308.987 191.605 308.988C191.307 308.99 191.01 308.993 190.704 308.996C190.42 308.996 190.136 308.997 189.844 308.997C189.587 308.998 189.33 308.999 189.065 309C188.421 308.945 188.421 308.945 187.742 308.492C188.584 308.212 189.369 308.229 190.246 308.228Z" fill="#89744F"/>
<path d="M195.663 93.4404C195.738 93.5898 195.812 93.7392 195.889 93.8932C196.487 93.8932 197.085 93.8932 197.7 93.8932C197.502 94.7704 197.502 94.7704 197.248 95.025C196.719 95.0343 196.191 95.0346 195.663 95.025C195.705 95.2771 195.747 95.5293 195.79 95.789C195.889 96.6096 195.889 96.6096 195.663 97.0624C195.514 97.0624 195.364 97.0624 195.21 97.0624C195.21 96.913 195.21 96.7635 195.21 96.6096C194.911 96.4602 194.613 96.3108 194.305 96.1569C194.305 95.3347 194.521 95.0823 194.984 94.4167C195.11 94.2337 195.236 94.0507 195.366 93.8622C195.464 93.723 195.562 93.5838 195.663 93.4404Z" fill="#89744F"/>
<path d="M225.546 215.228C226.079 215.741 226.574 216.27 227.046 216.84C227.552 217.474 227.552 217.474 228.036 217.944C227.886 217.944 227.737 217.944 227.583 217.944C227.658 218.243 227.733 218.542 227.81 218.849C227.511 219.074 227.212 219.298 226.904 219.529C226.593 219.102 226.288 218.672 225.984 218.241C225.814 218.002 225.643 217.763 225.467 217.517C225.093 216.812 225.093 216.812 225.136 216.185C225.319 215.68 225.319 215.68 225.546 215.228Z" fill="#89744F"/>
<path d="M155.597 131.923C156.834 132.613 157.411 133.406 158.087 134.639C157.408 135.092 157.408 135.092 156.729 135.092C156.729 134.868 156.729 134.644 156.729 134.413C156.505 134.413 156.281 134.413 156.05 134.413C155.583 133.776 155.583 133.776 155.144 133.055C154.995 132.831 154.845 132.606 154.691 132.376C154.99 132.226 155.289 132.077 155.597 131.923Z" fill="#89744F"/>
<path d="M153.557 133.282C153.707 133.357 153.856 133.432 154.01 133.509C153.711 133.882 153.413 134.256 153.105 134.64C153.553 134.566 154.001 134.491 154.463 134.414C154.449 134.744 154.429 135.075 154.406 135.404C154.391 135.68 154.391 135.68 154.374 135.962C154.237 136.451 154.237 136.451 153.773 136.743C153.554 136.823 153.554 136.823 153.331 136.904C153.14 136.656 152.952 136.405 152.765 136.154C152.66 136.015 152.555 135.876 152.447 135.733C152.199 135.32 152.199 135.32 152.199 134.64C152.349 134.64 152.498 134.64 152.652 134.64C152.717 134.5 152.783 134.36 152.85 134.216C153.105 133.735 153.105 133.735 153.557 133.282Z" fill="#89744F"/>
<path d="M244.335 146.638C244.844 147.218 244.844 147.218 245.24 147.77C245.091 148.068 244.941 148.367 244.787 148.675C244.053 148.548 243.671 148.355 243.203 147.77C243.203 147.62 243.203 147.471 243.203 147.317C243.053 147.317 242.904 147.317 242.75 147.317C242.75 147.093 242.75 146.869 242.75 146.638C243.473 146.397 243.653 146.349 244.335 146.638Z" fill="#89744F"/>
<path d="M231.206 160.673C231.355 160.748 231.505 160.822 231.659 160.899C231.509 161.347 231.36 161.796 231.206 162.257C231.318 162.36 231.43 162.463 231.545 162.569C231.885 162.937 231.885 162.937 231.885 163.389C231.437 163.613 231.437 163.613 230.98 163.842C230.527 163.389 230.527 163.389 229.848 162.484C230.296 161.886 230.744 161.289 231.206 160.673Z" fill="#89744F"/>
<path d="M231.204 285.402C231.428 285.402 231.652 285.402 231.883 285.402C231.883 285.552 231.883 285.701 231.883 285.855C231.61 286.072 231.61 286.072 231.331 286.294C230.698 286.718 230.698 286.718 230.525 287.44C230.18 287.779 230.18 287.779 229.761 288.119C229.233 288.55 228.736 288.988 228.261 289.477C228.112 289.328 227.963 289.178 227.809 289.024C227.978 288.858 228.147 288.691 228.321 288.519C228.547 288.296 228.772 288.073 228.997 287.85C229.108 287.741 229.219 287.631 229.334 287.519C229.864 286.992 230.337 286.484 230.79 285.886C230.995 285.647 230.995 285.647 231.204 285.402Z" fill="#89744F"/>
<path d="M160.801 267.745C160.951 267.82 161.1 267.895 161.254 267.972C161.179 268.121 161.105 268.271 161.028 268.425C160.835 268.371 160.835 268.371 160.638 268.317C159.781 268.12 158.955 268.053 158.085 268.198C157.391 268.722 157.391 268.722 156.953 269.33C156.953 268.425 156.953 268.425 157.25 268.043C158.265 267.253 159.643 267.359 160.801 267.745Z" fill="#89744F"/>
<path d="M208.116 75.3311C208.48 76.2415 208.229 76.9322 207.889 77.8211C207.451 78.2739 207.451 78.2739 206.984 78.5002C206.76 78.4255 206.536 78.3508 206.305 78.2739C206.477 78.0404 206.65 77.807 206.828 77.5665C207.339 76.8536 207.746 76.1285 208.116 75.3311Z" fill="#89744F"/>
<path d="M197.248 94.7988C197.248 94.8735 197.248 94.9482 197.248 95.0251C196.725 95.0251 196.202 95.0251 195.663 95.0251C195.705 95.2773 195.747 95.5294 195.79 95.7891C195.889 96.6097 195.889 96.6097 195.663 97.0625C195.514 97.0625 195.364 97.0625 195.21 97.0625C195.21 96.9131 195.21 96.7637 195.21 96.6097C194.986 96.535 194.762 96.4603 194.531 96.3834C194.617 95.886 194.735 95.5144 194.998 95.0817C195.715 94.619 196.408 94.7575 197.248 94.7988Z" fill="#89744F"/>
<path d="M241.39 259.144C241.465 259.144 241.54 259.144 241.617 259.144C241.667 259.686 241.714 260.228 241.758 260.771C241.773 260.923 241.787 261.076 241.802 261.233C241.876 262.183 241.795 262.814 241.39 263.671C241.304 264.197 241.226 264.726 241.164 265.256C241.089 265.256 241.014 265.256 240.937 265.256C240.915 263.833 240.992 262.465 241.164 261.054C241.185 260.868 241.207 260.683 241.229 260.492C241.282 260.043 241.336 259.593 241.39 259.144Z" fill="#101010"/>
<path d="M271.723 156.145C272.408 156.79 273.03 157.46 273.619 158.196C273.796 158.417 273.796 158.417 273.978 158.643C274.213 159.087 274.213 159.087 274.137 159.596C274.087 159.727 274.037 159.858 273.986 159.993C273.846 159.773 273.706 159.554 273.562 159.328C273.159 158.628 273.159 158.628 272.628 158.408C272.553 158.184 272.479 157.96 272.402 157.729C272.285 157.622 272.168 157.514 272.048 157.404C271.723 157.05 271.723 157.05 271.723 156.145Z" fill="#89744F"/>
<path d="M245.918 246.24C246.142 246.315 246.366 246.39 246.597 246.467C246.671 247.139 246.746 247.811 246.823 248.504C246.524 248.504 246.225 248.504 245.918 248.504C245.587 247.905 245.465 247.622 245.465 246.919C245.614 246.919 245.764 246.919 245.918 246.919C245.918 246.695 245.918 246.471 245.918 246.24Z" fill="#89744F"/>
<path d="M159.444 205.041C159.743 205.19 160.042 205.34 160.35 205.494C160.2 205.494 160.051 205.494 159.897 205.494C159.85 205.699 159.804 205.905 159.755 206.116C159.372 207.023 158.929 207.281 158.086 207.757C158.086 206.935 158.302 206.683 158.765 206.017C158.891 205.834 159.017 205.651 159.147 205.463C159.245 205.324 159.343 205.184 159.444 205.041Z" fill="#89744F"/>
<path d="M134.994 205.268C134.668 206.03 134.24 206.515 133.636 207.079C133.412 207.004 133.188 206.929 132.957 206.852C133.455 205.741 133.72 205.268 134.994 205.268Z" fill="#89744F"/>
<path d="M171.898 155.692C172.047 155.692 172.197 155.692 172.351 155.692C172.678 156.346 172.662 156.778 172.577 157.503C172.011 158.154 172.011 158.154 171.445 158.635C171.37 158.411 171.296 158.187 171.219 157.956C171.368 157.956 171.518 157.956 171.671 157.956C171.746 157.209 171.821 156.462 171.898 155.692Z" fill="#89744F"/>
<path d="M245.691 148.222C245.989 148.595 246.288 148.969 246.596 149.354C246.372 149.652 246.148 149.951 245.917 150.259C245.543 150.184 245.17 150.11 244.785 150.033C245.181 148.731 245.181 148.731 245.691 148.222Z" fill="#89744F"/>
<path d="M235.959 289.251C236.033 289.55 236.108 289.849 236.185 290.156C236.026 290.264 235.868 290.371 235.704 290.482C234.848 291.245 234.297 292.131 233.695 293.099C233.546 292.875 233.396 292.651 233.242 292.42C233.4 292.248 233.559 292.076 233.721 291.899C233.93 291.672 234.138 291.445 234.346 291.218C234.45 291.104 234.554 290.991 234.661 290.875C235.141 290.351 235.564 289.843 235.959 289.251Z" fill="#E3E3E3"/>
<path d="M109.19 179.688C108.926 180.44 108.703 181.008 108.058 181.498C107.834 181.498 107.61 181.498 107.379 181.498C107.379 180.593 107.379 180.593 107.775 180.084C108.284 179.688 108.284 179.688 109.19 179.688Z" fill="#89744F"/>
<path d="M221.018 174.934C221.167 174.934 221.317 174.934 221.471 174.934C221.396 175.905 221.321 176.876 221.244 177.876C221.095 177.876 220.946 177.876 220.792 177.876C220.51 177.314 220.576 177.024 220.65 176.405C220.671 176.225 220.691 176.045 220.712 175.86C220.792 175.386 220.792 175.386 221.018 174.934Z" fill="#89744F"/>
<path d="M156.952 133.282C157.326 133.656 157.699 134.029 158.084 134.414C157.787 134.754 157.787 134.754 157.405 135.093C157.181 135.093 156.957 135.093 156.726 135.093C156.726 134.869 156.726 134.645 156.726 134.414C156.502 134.339 156.278 134.265 156.047 134.188C156.346 133.889 156.644 133.59 156.952 133.282Z" fill="#89744F"/>
<path d="M205.623 185.799C205.517 186.761 204.952 187.202 204.265 187.836C204.116 187.463 203.966 187.089 203.812 186.704C205.114 185.799 205.114 185.799 205.623 185.799Z" fill="#89744F"/>
<path d="M202.23 174.707C203.368 175.244 203.716 175.887 204.268 176.971C204.118 177.12 203.969 177.27 203.815 177.423C203.815 177.199 203.815 176.975 203.815 176.744C203.591 176.67 203.367 176.595 203.136 176.518C202.683 176.065 202.683 176.065 202.23 175.386C202.23 175.162 202.23 174.938 202.23 174.707Z" fill="#89744F"/>
<path d="M166.008 282.912C166.307 282.912 166.605 282.912 166.913 282.912C166.988 283.062 167.063 283.211 167.14 283.365C167.289 283.365 167.438 283.365 167.592 283.365C167.592 283.664 167.592 283.962 167.592 284.27C167.817 284.345 168.041 284.42 168.272 284.497C168.197 284.721 168.122 284.945 168.045 285.176C167.144 284.525 166.588 283.858 166.008 282.912Z" fill="#89744F"/>
<path d="M240.483 148.448C240.558 148.672 240.632 148.896 240.709 149.127C240.56 149.127 240.411 149.127 240.257 149.127C240.182 149.501 240.107 149.874 240.03 150.259C239.657 150.334 239.283 150.409 238.898 150.486C239.153 149.813 239.402 149.278 239.804 148.675C240.028 148.6 240.252 148.525 240.483 148.448Z" fill="#89744F"/>
<path d="M241.616 149.127C241.915 149.127 242.214 149.127 242.522 149.127C242.447 149.351 242.372 149.575 242.296 149.806C242.146 149.806 241.997 149.806 241.843 149.806C241.782 149.951 241.721 150.096 241.659 150.245C241.39 150.712 241.39 150.712 240.711 150.938C240.786 150.49 240.86 150.041 240.937 149.58C241.161 149.58 241.386 149.58 241.616 149.58C241.616 149.43 241.616 149.281 241.616 149.127Z" fill="#89744F"/>
<path d="M105.794 181.498C106.13 181.722 106.13 181.722 106.473 181.951C106.473 182.1 106.473 182.25 106.473 182.404C106.623 182.404 106.772 182.404 106.926 182.404C106.851 182.777 106.777 183.151 106.7 183.535C106.55 183.535 106.401 183.535 106.247 183.535C106.172 183.685 106.098 183.834 106.021 183.988C105.754 183.156 105.778 182.365 105.794 181.498Z" fill="#89744F"/>
<path d="M193.853 119.699C194.345 120.344 194.805 121.003 195.253 121.68C195.373 121.861 195.493 122.042 195.617 122.228C195.707 122.365 195.797 122.501 195.89 122.642C195.666 122.754 195.666 122.754 195.437 122.868C193.878 121.391 193.878 121.391 193.824 120.209C193.838 119.956 193.838 119.956 193.853 119.699Z" fill="#89744F"/>
<path d="M284.174 227.452C284.174 228.131 284.174 228.131 283.722 228.81C283.572 228.81 283.423 228.81 283.269 228.81C283.269 228.96 283.269 229.109 283.269 229.263C282.821 229.487 282.821 229.487 282.363 229.716C282.363 228.736 282.842 228.377 283.495 227.679C283.719 227.604 283.943 227.529 284.174 227.452Z" fill="#89744F"/>
<path d="M247.051 146.185C247.424 146.185 247.798 146.185 248.183 146.185C248.183 147.09 248.183 147.09 247.843 147.486C247.731 147.58 247.619 147.673 247.504 147.769C247.504 147.62 247.504 147.47 247.504 147.316C247.354 147.316 247.205 147.316 247.051 147.316C247.051 146.943 247.051 146.569 247.051 146.185Z" fill="#89744F"/>
<path d="M119.151 182.178C119.151 182.327 119.151 182.477 119.151 182.63C119.002 182.63 118.852 182.63 118.698 182.63C118.675 182.92 118.652 183.209 118.628 183.508C118.588 184.001 118.588 184.001 118.472 184.441C118.248 184.591 118.024 184.74 117.793 184.894C117.774 184.569 117.761 184.243 117.75 183.918C117.743 183.737 117.735 183.556 117.727 183.369C117.793 182.857 117.793 182.857 118.093 182.451C118.472 182.178 118.472 182.178 119.151 182.178Z" fill="#484848"/>
<path d="M188.646 106.797C188.795 106.797 188.944 106.797 189.098 106.797C189.067 107.132 189.033 107.467 188.999 107.801C188.981 107.988 188.963 108.174 188.944 108.366C188.872 108.834 188.872 108.834 188.646 109.061C188.562 109.588 188.487 110.116 188.419 110.645C188.345 110.645 188.27 110.645 188.193 110.645C188.136 109.271 188.261 108.118 188.646 106.797Z" fill="#89744F"/>
<path d="M225.09 215.906C225.314 216.018 225.314 216.018 225.543 216.133C225.543 216.282 225.543 216.431 225.543 216.585C225.841 216.735 226.14 216.884 226.448 217.038C226.448 217.337 226.448 217.636 226.448 217.944C226.224 218.056 226.224 218.056 225.995 218.17C225.09 216.925 225.09 216.925 225.09 215.906Z" fill="#89744F"/>
<path d="M244.108 145.731C245.212 146.807 245.212 146.807 245.467 147.316C245.317 147.465 245.168 147.615 245.014 147.769C245.014 147.619 245.014 147.47 245.014 147.316C244.79 147.241 244.566 147.167 244.335 147.09C244.26 146.94 244.185 146.791 244.108 146.637C243.735 146.637 243.361 146.637 242.977 146.637C243.261 146.069 243.543 145.987 244.108 145.731Z" fill="#89744F"/>
<path d="M185.706 167.464C185.856 167.464 186.005 167.464 186.159 167.464C186.315 167.86 186.315 167.86 186.386 168.369C186.103 168.879 186.103 168.879 185.706 169.275C185.482 169.275 185.258 169.275 185.027 169.275C185.169 168.612 185.386 168.061 185.706 167.464Z" fill="#89744F"/>
<path d="M153.787 134.413C154.011 134.413 154.235 134.413 154.466 134.413C154.452 134.743 154.432 135.074 154.409 135.403C154.399 135.587 154.388 135.771 154.377 135.961C154.239 136.45 154.239 136.45 153.776 136.742C153.557 136.822 153.557 136.822 153.334 136.903C153.241 136.088 153.299 135.82 153.787 135.135C153.936 134.971 154.086 134.808 154.239 134.639C154.09 134.565 153.941 134.49 153.787 134.413Z" fill="#89744F"/>
<path d="M154.691 130.112C155.46 130.82 155.961 131.372 156.276 132.376C155.597 132.376 155.597 132.376 154.918 131.923C154.759 131.32 154.742 130.737 154.691 130.112Z" fill="#89744F"/>
<path d="M152.881 287.893C152.881 288.702 152.635 289.036 152.202 289.704C152.352 289.778 152.501 289.853 152.655 289.93C152.506 289.93 152.356 289.93 152.202 289.93C152.128 290.154 152.053 290.378 151.976 290.609C151.948 290.464 151.92 290.32 151.891 290.17C151.844 290.016 151.798 289.862 151.75 289.704C151.6 289.629 151.451 289.554 151.297 289.477C151.825 288.949 152.353 288.421 152.881 287.893Z" fill="#89744F"/>
<path d="M231.206 285.402C231.43 285.402 231.654 285.402 231.885 285.402C231.885 285.552 231.885 285.701 231.885 285.855C231.612 286.072 231.612 286.072 231.333 286.294C230.699 286.718 230.699 286.718 230.527 287.44C230.303 287.44 230.079 287.44 229.848 287.44C230.194 286.661 230.629 286.031 231.206 285.402Z" fill="#89744F"/>
<path d="M159.445 136.678C160.19 137.382 160.767 138.04 161.256 138.941C161.032 139.053 161.032 139.053 160.804 139.168C160.574 138.925 160.349 138.679 160.124 138.432C159.998 138.296 159.872 138.159 159.742 138.018C159.445 137.583 159.445 137.583 159.445 136.678Z" fill="#89744F"/>
<path d="M218.303 296.042C218.527 296.191 218.751 296.341 218.982 296.495C218.368 297.084 218.101 297.173 217.228 297.216C216.985 297.202 216.742 297.188 216.492 297.174C217.038 296.628 217.611 296.373 218.303 296.042Z" fill="#89744F"/>
<path d="M162.616 200.74C162.841 200.74 163.065 200.74 163.296 200.74C163.023 201.305 162.74 201.8 162.39 202.325C162.241 202.325 162.091 202.325 161.937 202.325C161.863 202.474 161.788 202.624 161.711 202.778C161.711 201.86 162.062 201.454 162.616 200.74Z" fill="#89744F"/>
<path d="M143.146 197.797C142.921 198.133 142.921 198.133 142.693 198.476C141.722 198.401 140.751 198.327 139.75 198.25C139.75 198.175 139.75 198.1 139.75 198.023C140.103 197.94 140.457 197.861 140.811 197.783C141.008 197.738 141.205 197.693 141.408 197.647C142.05 197.566 142.523 197.636 143.146 197.797Z" fill="#89744F"/>
<path d="M250.444 132.149C250.594 132.374 250.743 132.598 250.897 132.829C250.598 133.351 250.299 133.874 249.992 134.413C249.768 134.413 249.543 134.413 249.312 134.413C249.686 133.666 250.06 132.919 250.444 132.149Z" fill="#89744F"/>
<path d="M195.606 94.2607C195.858 94.3028 195.858 94.3028 196.115 94.3456C195.826 94.7322 195.523 95.1093 195.21 95.4775C195.061 95.4775 194.911 95.4775 194.757 95.4775C194.683 95.7016 194.608 95.9257 194.531 96.1566C194.381 96.0072 194.232 95.8578 194.078 95.7039C194.83 94.3665 194.83 94.3665 195.606 94.2607Z" fill="#383838"/>
<path d="M210.604 74.1988C210.753 74.3482 210.903 74.4976 211.057 74.6515C210.31 74.8009 209.563 74.9503 208.793 75.1042C208.793 74.8801 208.793 74.656 208.793 74.4251C209.482 74.0067 209.844 73.8948 210.604 74.1988Z" fill="#89744F"/>
<path d="M224.863 100.457C225.456 100.993 225.843 101.565 226.221 102.268C226.221 102.417 226.221 102.567 226.221 102.721C225.542 102.494 225.542 102.494 225.278 102.076C225.202 101.911 225.125 101.745 225.047 101.575C224.969 101.409 224.891 101.243 224.811 101.072C224.753 100.943 224.696 100.815 224.637 100.683C224.711 100.609 224.786 100.534 224.863 100.457Z" fill="#89744F"/>
<path d="M201.779 302.154C201.779 302.304 201.779 302.453 201.779 302.607C200.731 302.837 199.89 302.797 198.836 302.607C198.836 302.532 198.836 302.458 198.836 302.381C199.829 302.222 200.773 302.13 201.779 302.154Z" fill="#89744F"/>
<path d="M254.293 130.792C255.206 131.261 255.635 131.69 256.104 132.603C255.88 132.715 255.88 132.715 255.651 132.829C255.371 132.49 255.091 132.151 254.811 131.812C254.575 131.537 254.323 131.275 254.066 131.018C254.141 130.944 254.216 130.869 254.293 130.792Z" fill="#89744F"/>
<path d="M198.609 112.229C199.713 113.275 199.713 113.275 199.967 114.039C199.743 114.039 199.519 114.039 199.288 114.039C199.214 113.741 199.139 113.442 199.062 113.134C198.913 113.134 198.763 113.134 198.609 113.134C198.534 112.91 198.46 112.686 198.383 112.455C198.458 112.38 198.532 112.305 198.609 112.229Z" fill="#89744F"/>
<path d="M238.898 227.904C239.123 227.979 239.347 228.054 239.578 228.131C239.96 228.937 239.96 228.937 240.257 229.715C240.033 229.715 239.808 229.715 239.578 229.715C238.898 228.414 238.898 228.414 238.898 227.904Z" fill="#89744F"/>
<path d="M227.132 217.944C227.356 218.094 227.58 218.243 227.811 218.397C227.415 219.274 227.415 219.274 226.906 219.529C226.756 219.23 226.607 218.931 226.453 218.623C226.603 218.623 226.752 218.623 226.906 218.623C226.981 218.399 227.055 218.175 227.132 217.944Z" fill="#89744F"/>
<path d="M206.573 184.37C206.983 184.667 206.983 184.667 207.209 185.346C207.06 185.346 206.91 185.346 206.756 185.346C206.756 185.72 206.756 186.093 206.756 186.478C206.682 186.478 206.607 186.478 206.53 186.478C206.53 185.955 206.53 185.432 206.53 184.893C205.858 184.781 205.858 184.781 205.172 184.667C205.942 184.172 205.942 184.172 206.573 184.37Z" fill="#89744F"/>
<path d="M199.059 179.461C199.357 179.536 199.656 179.61 199.964 179.687C200.039 180.061 200.113 180.434 200.19 180.819C199.966 180.894 199.742 180.969 199.511 181.046C199.059 180.366 199.059 180.366 199.059 179.461Z" fill="#89744F"/>
<path d="M109.418 157.729C109.642 157.729 109.866 157.729 110.097 157.729C109.814 158.513 109.491 159.121 108.965 159.767C108.965 158.908 109.078 158.493 109.418 157.729Z" fill="#89744F"/>
<path d="M146.992 276.801C147.445 277.254 147.445 277.254 147.445 277.933C147.594 277.933 147.744 277.933 147.897 277.933C147.823 278.157 147.748 278.381 147.671 278.612C147.447 278.537 147.223 278.462 146.992 278.385C146.906 277.935 146.831 277.482 146.766 277.027C146.84 276.952 146.915 276.878 146.992 276.801Z" fill="#89744F"/>
<path d="M154.691 211.832C154.99 211.832 155.289 211.832 155.597 211.832C155.359 212.426 155.223 212.691 154.663 213.02C154.523 213.077 154.383 213.133 154.238 213.19C154.238 212.511 154.238 212.511 154.691 211.832Z" fill="#89744F"/>
<path d="M208.792 185.12C208.942 185.12 209.091 185.12 209.245 185.12C209.17 185.494 209.096 185.867 209.019 186.252C208.72 186.252 208.421 186.252 208.113 186.252C208.538 185.375 208.538 185.375 208.792 185.12Z" fill="#89744F"/>
<path d="M274.441 160.22C275.25 160.645 275.697 160.937 276.026 161.804C275.802 161.804 275.578 161.804 275.347 161.804C274.441 160.821 274.441 160.821 274.441 160.22Z" fill="#89744F"/>
<path d="M209.248 130.339C209.173 130.489 209.098 130.638 209.022 130.792C208.645 130.873 208.268 130.948 207.89 131.018C207.171 131.303 207.171 131.303 206.758 131.924C206.758 131.7 206.758 131.476 206.758 131.245C206.907 131.245 207.057 131.245 207.211 131.245C207.285 131.021 207.36 130.797 207.437 130.566C208.05 130.259 208.571 130.325 209.248 130.339Z" fill="#89744F"/>
<path d="M244.561 247.599C244.711 247.748 244.86 247.897 245.014 248.051C244.79 248.051 244.566 248.051 244.335 248.051C244.274 248.187 244.214 248.322 244.151 248.462C243.886 248.951 243.612 249.264 243.203 249.636C243.272 248.804 243.375 248.554 244.01 247.981C244.192 247.855 244.374 247.729 244.561 247.599Z" fill="#89744F"/>
<path d="M144.503 228.81C144.578 228.959 144.652 229.108 144.729 229.262C144.281 229.935 144.281 229.935 143.824 230.621C143.674 230.471 143.525 230.322 143.371 230.168C143.994 229.064 143.994 229.064 144.503 228.81Z" fill="#89744F"/>
<path d="M120.959 181.498C120.402 182.056 119.894 182.177 119.148 182.404C118.999 182.254 118.849 182.105 118.695 181.951C119.52 181.401 119.988 181.461 120.959 181.498Z" fill="#101010"/>
<path d="M233.921 157.05C234.071 157.274 234.22 157.498 234.374 157.729C233.909 158.238 233.693 158.409 233.016 158.634C233.259 157.974 233.418 157.553 233.921 157.05Z" fill="#89744F"/>
<path d="M256.332 133.282C256.862 133.764 257.171 134.214 257.464 134.867C257.314 135.016 257.165 135.166 257.011 135.32C256.492 134.541 256.332 134.25 256.332 133.282Z" fill="#89744F"/>
<path d="M198.154 116.982C198.453 117.281 198.752 117.58 199.06 117.888C198.985 118.037 198.91 118.187 198.833 118.341C198.609 118.341 198.385 118.341 198.154 118.341C197.928 117.662 197.928 117.662 198.154 116.982Z" fill="#89744F"/>
<path d="M182.535 291.062C183.653 290.985 183.845 291.025 184.799 291.741C184.052 291.666 183.305 291.591 182.535 291.514C182.535 291.365 182.535 291.216 182.535 291.062Z" fill="#474747"/>
<path d="M154.465 261.181C154.754 261.204 155.044 261.227 155.342 261.251C155.586 261.271 155.586 261.271 155.835 261.291C156.276 261.407 156.276 261.407 156.729 262.086C156.106 262.143 156.106 262.143 155.37 262.086C154.833 261.633 154.833 261.633 154.465 261.181Z" fill="#89744F"/>
<path d="M156.953 253.031C157.491 253.102 157.491 253.102 158.085 253.258C158.538 253.937 158.538 253.937 158.453 254.432C158.406 254.567 158.359 254.703 158.311 254.842C158.171 254.627 158.031 254.413 157.887 254.191C157.447 253.497 157.447 253.497 156.953 253.031Z" fill="#89744F"/>
<path d="M267.421 244.203C267.645 244.278 267.869 244.353 268.1 244.429C267.876 244.766 267.876 244.766 267.647 245.109C266.827 245.264 266.827 245.264 266.062 245.335C266.287 245.26 266.511 245.186 266.742 245.109C266.742 244.959 266.742 244.81 266.742 244.656C266.966 244.506 267.19 244.357 267.421 244.203Z" fill="#89744F"/>
<path d="M230.753 214.096C230.903 214.32 231.052 214.544 231.206 214.775C230.87 215.335 230.87 215.335 230.527 215.907C230.378 215.832 230.228 215.757 230.074 215.68C230.149 215.307 230.224 214.933 230.301 214.548C230.45 214.548 230.599 214.548 230.753 214.548C230.753 214.399 230.753 214.25 230.753 214.096Z" fill="#89744F"/>
<path d="M208.566 183.535C209.132 184.059 209.132 184.059 209.698 184.667C209.698 184.891 209.698 185.115 209.698 185.346C209.132 184.823 209.132 184.823 208.566 184.214C208.566 183.99 208.566 183.766 208.566 183.535Z" fill="#89744F"/>
<path d="M176.421 181.725C176.646 181.725 176.87 181.725 177.101 181.725C177.026 182.098 176.951 182.472 176.874 182.856C176.65 182.856 176.426 182.856 176.195 182.856C176.12 182.632 176.046 182.408 175.969 182.177C176.118 182.028 176.268 181.879 176.421 181.725Z" fill="#89744F"/>
<path d="M225.542 168.596C225.617 168.82 225.692 169.044 225.769 169.275C225.619 169.275 225.47 169.275 225.316 169.275C225.316 169.648 225.316 170.022 225.316 170.407C225.092 170.519 225.092 170.519 224.863 170.633C224.693 170.251 224.693 170.251 224.637 169.728C225.075 169.105 225.075 169.105 225.542 168.596Z" fill="#161616"/>
<path d="M119.378 150.938C119.528 151.088 119.677 151.237 119.831 151.391C119.549 152.237 119.235 152.339 118.473 152.749C118.727 152.077 118.976 151.542 119.378 150.938Z" fill="#D9D9D9"/>
<path d="M154.237 134.64C154.088 134.938 153.938 135.237 153.784 135.545C153.56 135.545 153.336 135.545 153.105 135.545C153.105 135.396 153.105 135.246 153.105 135.092C153.784 134.64 153.784 134.64 154.237 134.64ZM152.879 135.772C153.028 135.772 153.178 135.772 153.332 135.772C153.257 135.996 153.182 136.22 153.105 136.451C153.031 136.227 152.956 136.002 152.879 135.772Z" fill="#89744F"/>
<path d="M221.244 130.339C220.953 130.497 220.66 130.652 220.367 130.806C220.123 130.936 220.123 130.936 219.874 131.069C219.728 131.127 219.583 131.185 219.433 131.245C219.284 131.17 219.134 131.095 218.98 131.018C219.59 130.281 220.334 129.884 221.244 130.339Z" fill="#89744F"/>
<path d="M132.28 124.227C132.43 124.376 132.579 124.525 132.733 124.679C132.397 125.24 132.397 125.24 132.054 125.811C131.83 125.736 131.606 125.662 131.375 125.585C131.674 125.137 131.973 124.688 132.28 124.227Z" fill="#89744F"/>
<path d="M193.175 97.7412C193.324 97.8159 193.474 97.8906 193.628 97.9676C193.403 98.3037 193.403 98.3037 193.175 98.6467C193.025 98.6467 192.876 98.6467 192.722 98.6467C192.647 98.8708 192.573 99.0949 192.496 99.3258C192.346 99.1764 192.197 99.027 192.043 98.8731C192.416 98.4996 192.79 98.126 193.175 97.7412Z" fill="#89744F"/>
<path d="M238.448 286.082C238.598 286.231 238.747 286.381 238.901 286.535C238.279 287.412 238.279 287.412 237.769 287.667C237.695 287.816 237.62 287.965 237.543 288.119C237.543 287.214 237.934 286.806 238.448 286.082Z" fill="#DFDFDF"/>
<path d="M223.508 204.136C224.074 204.659 224.074 204.659 224.64 205.268C224.64 205.492 224.64 205.716 224.64 205.947C224.565 205.797 224.49 205.648 224.413 205.494C224.264 205.494 224.114 205.494 223.961 205.494C223.961 205.345 223.961 205.195 223.961 205.041C223.811 205.041 223.662 205.041 223.508 205.041C223.508 204.742 223.508 204.444 223.508 204.136Z" fill="#89744F"/>
<path d="M116.66 199.835C116.734 199.984 116.809 200.134 116.886 200.288C117.036 200.288 117.185 200.288 117.339 200.288C117.488 200.587 117.638 200.885 117.792 201.193C117.138 201.103 116.926 201.014 116.49 200.5C116.397 200.355 116.303 200.21 116.207 200.061C116.356 199.987 116.506 199.912 116.66 199.835Z" fill="#89744F"/>
<path d="M211.054 195.986C211.428 196.658 211.607 197.267 211.734 198.024C211.267 197.642 211.267 197.642 210.828 197.118C210.885 196.496 210.885 196.496 211.054 195.986Z" fill="#89744F"/>
<path d="M172.573 187.61C172.648 187.76 172.723 187.909 172.8 188.063C172.426 188.437 172.053 188.81 171.668 189.195C171.739 188.657 171.739 188.657 171.894 188.063C172.118 187.914 172.343 187.764 172.573 187.61Z" fill="#89744F"/>
<path d="M188.648 173.35C188.797 173.35 188.947 173.35 189.101 173.35C188.962 174.02 188.817 174.341 188.421 174.934C188.272 174.934 188.123 174.934 187.969 174.934C187.969 174.71 187.969 174.486 187.969 174.255C188.118 174.255 188.268 174.255 188.421 174.255C188.496 173.956 188.571 173.657 188.648 173.35Z" fill="#89744F"/>
<path d="M157.863 135.093C158.274 135.135 158.274 135.135 158.769 135.319C159.165 135.899 159.165 135.899 159.448 136.451C159.298 136.6 159.149 136.75 158.995 136.904C158.92 136.68 158.846 136.456 158.769 136.225C158.471 135.918 158.17 135.616 157.863 135.319C157.863 135.244 157.863 135.17 157.863 135.093Z" fill="#89744F"/>
<path d="M230.527 119.926C230.601 120.15 230.676 120.374 230.753 120.605C230.428 121.1 230.428 121.1 230.074 121.51C229.924 121.212 229.775 120.913 229.621 120.605C229.92 120.53 230.219 120.455 230.527 120.379C230.527 120.229 230.527 120.08 230.527 119.926Z" fill="#89744F"/>
<path d="M194.304 97.0615C194.454 97.0615 194.603 97.0615 194.757 97.0615C194.757 97.435 194.757 97.8085 194.757 98.1934C194.458 98.1934 194.159 98.1934 193.852 98.1934C194.05 97.3162 194.05 97.3162 194.304 97.0615Z" fill="#89744F"/>
</svg>
