<svg width="16" height="11" viewBox="0 0 16 11" fill="none" xmlns="http://www.w3.org/2000/svg">
<path d="M15.7213 0.846268L5.72127 10.8463C5.69225 10.8753 5.65778 10.8984 5.61984 10.9141C5.58191 10.9298 5.54124 10.9379 5.50017 10.9379C5.45911 10.9379 5.41844 10.9298 5.38051 10.9141C5.34257 10.8984 5.3081 10.8753 5.27908 10.8463L0.90408 6.47127C0.845442 6.41263 0.8125 6.3331 0.8125 6.25017C0.8125 6.16725 0.845442 6.08772 0.90408 6.02908C0.962718 5.97044 1.04225 5.9375 1.12517 5.9375C1.2081 5.9375 1.28763 5.97044 1.34627 6.02908L5.50017 10.183L15.2791 0.40408C15.3377 0.345442 15.4172 0.3125 15.5002 0.3125C15.5831 0.3125 15.6626 0.345442 15.7213 0.40408C15.7799 0.462718 15.8128 0.542248 15.8128 0.625174C15.8128 0.7081 15.7799 0.78763 15.7213 0.846268Z" fill="black"/>
</svg>
