<svg width="90" height="73" viewBox="0 0 90 73" fill="none" xmlns="http://www.w3.org/2000/svg">
<path fill-rule="evenodd" clip-rule="evenodd" d="M66.3746 35.8262H23.791V37.0511H66.3746V35.8262Z" fill="#2B2A29"/>
<path fill-rule="evenodd" clip-rule="evenodd" d="M60.9041 13.5813V33.0718H59.9317V33.7081H59.3711V34.4599H64.7894V33.7081H64.229V33.0718H63.0977V13.5813H64.229V12.9452H64.7894V12.1934H59.3711V12.9452H59.9317V13.5813H60.9041Z" fill="#2B2A29"/>
<path fill-rule="evenodd" clip-rule="evenodd" d="M36.0611 13.5813V33.0718H37.0337V33.7081H37.5943V34.4599H32.1758V33.7081H32.7362V33.0718H33.8677V13.5813H32.7362V12.9452H32.1758V12.1934H37.5943V12.9452H37.0337V13.5813H36.0611Z" fill="#2B2A29"/>
<path fill-rule="evenodd" clip-rule="evenodd" d="M54.1055 13.5813V33.0718H53.1328V33.7081H52.5723V34.4599H57.991V33.7081H57.4302V33.0718H56.2991V13.5813H57.4302V12.9452H57.991V12.1934H52.5723V12.9452H53.1328V13.5813H54.1055Z" fill="#2B2A29"/>
<path fill-rule="evenodd" clip-rule="evenodd" d="M47.3066 13.5813V33.0718H46.334V33.7081H45.7734V34.4599H51.1921V33.7081H50.6316V33.0718H49.5002V13.5813H50.6316V12.9452H51.1921V12.1934H45.7734V12.9452H46.334V13.5813H47.3066Z" fill="#2B2A29"/>
<path fill-rule="evenodd" clip-rule="evenodd" d="M40.5077 13.5813V33.0718H39.535V33.7081H38.9746V34.4599H44.393V33.7081H43.8324V33.0718H42.7012V13.5813H43.8324V12.9452H44.393V12.1934H38.9746V12.9452H39.535V13.5813H40.5077Z" fill="#2B2A29"/>
<path fill-rule="evenodd" clip-rule="evenodd" d="M26.9082 13.5813V33.0718H25.9357V33.7081H25.375V34.4599H30.7937V33.7081H30.2331V33.0718H29.102V13.5813H30.2331V12.9452H30.7937V12.1934H25.375V12.9452H25.9357V13.5813H26.9082Z" fill="#2B2A29"/>
<path fill-rule="evenodd" clip-rule="evenodd" d="M45.0827 0L22.1309 10.825H68.0348L45.0827 0ZM45.0827 1.95028L30.4298 8.87439H59.7359L45.0827 1.95028Z" fill="#2B2A29"/>
<path fill-rule="evenodd" clip-rule="evenodd" d="M69.0418 38.1172H21.125V39.3421H69.0418V38.1172Z" fill="#2B2A29"/>
<path d="M84.9529 56.3444H50.3594V55.8477H84.9529V56.3444Z" fill="#2B2A29"/>
<path d="M4.96289 55.8496H39.5564V56.3463H4.96289V55.8496Z" fill="#2B2A29"/>
<path fill-rule="evenodd" clip-rule="evenodd" d="M43.4883 56.5928L44.9594 54.8555L46.4305 56.5928H43.4883Z" fill="#2B2A29"/>
<path d="M4.31791 44.9425C4.7047 44.9793 5.05601 45.0667 5.37338 45.2046C5.68922 45.3422 5.9589 45.5261 6.18394 45.7559C6.40729 45.9857 6.58142 46.2571 6.70327 46.5694C6.82649 46.882 6.88826 47.2343 6.88826 47.6264C6.88826 48.4292 6.66475 49.065 6.21619 49.5337C5.76797 50.0026 5.13442 50.2798 4.31791 50.3657V50.8067H2.59818V50.3564C2.20987 50.3196 1.85534 50.2307 1.53491 50.0898C1.21449 49.9489 0.940057 49.762 0.711959 49.5293C0.48403 49.2963 0.308374 49.0206 0.18499 48.7019C0.0617766 48.3833 0 48.0217 0 47.6173C0 47.2314 0.0617766 46.882 0.18499 46.5695C0.308204 46.2571 0.48403 45.9844 0.711959 45.7516C0.940057 45.5187 1.21449 45.3335 1.53491 45.1954C1.85534 45.0576 2.20987 44.9702 2.59818 44.9336V44.5199H4.31791V44.9427V44.9425ZM2.59818 46.1376C2.47497 46.1437 2.36245 46.1835 2.26062 46.2571C2.15896 46.3306 2.07274 46.4317 2.00163 46.5604C1.93086 46.6892 1.87519 46.8392 1.83514 47.0107C1.79509 47.1823 1.77506 47.3722 1.77506 47.5805C1.77506 48.0707 1.84295 48.4324 1.97838 48.6651C2.11398 48.8981 2.32053 49.0388 2.59801 49.0879V46.1374L2.59818 46.1376ZM4.31791 49.0881C4.56129 49.039 4.75544 48.8951 4.89868 48.656C5.04192 48.4171 5.11303 48.0587 5.11303 47.5805C5.11303 47.1209 5.05126 46.7718 4.92974 46.5327C4.80788 46.2938 4.60457 46.1621 4.31791 46.1376V49.0881ZM12.1712 48.3162L11.94 47.1855L11.7274 46.0733H11.6627L11.4684 47.1947L11.2374 48.3162H12.1712ZM10.9691 49.603L10.7194 50.807H8.96287L10.6826 44.5199H12.7075L14.4457 50.807H12.689L12.4393 49.603H10.9693H10.9691ZM19.8902 47.3052L20.4557 46.0367L21.1583 44.5293H22.9829V50.8072H21.3187V47.9485H21.254L20.7732 49.0241L20.4128 49.8328H19.3588L18.952 48.9597L18.4804 47.921H18.4157V50.8072H16.733V44.5293H18.5943L19.2877 46.0276L19.8532 47.3053H19.8902V47.3052ZM32.5873 45.8621V46.9652C32.5873 47.5964 32.5488 48.1417 32.4718 48.6013C32.3947 49.0609 32.2761 49.4576 32.1159 49.7917C31.9557 50.1256 31.7461 50.4075 31.4872 50.6373C31.2283 50.8669 30.9202 51.0647 30.5626 51.23L29.823 50.1087C29.9708 49.98 30.102 49.862 30.2159 49.7549C30.3299 49.6476 30.4301 49.5387 30.5163 49.4286C30.6027 49.3184 30.6736 49.1972 30.729 49.0655C30.7844 48.9337 30.8291 48.7729 30.8632 48.5829C30.8971 48.3931 30.9216 48.1679 30.9372 47.9073C30.9525 47.6468 30.9603 47.3328 30.9603 46.9652V44.5111H35.204V50.8072H33.4475V45.8621H32.5875H32.5873ZM39.405 44.5111V46.8825H39.9859C40.2125 46.8825 40.4589 46.9055 40.7223 46.9515C40.9874 46.9974 41.2325 47.0892 41.4604 47.2272C41.687 47.3651 41.8764 47.5611 42.0259 47.8156C42.177 48.0698 42.2527 48.4053 42.2527 48.8222C42.2527 49.2204 42.1771 49.5482 42.0259 49.8057C41.875 50.0631 41.6901 50.2653 41.4682 50.4122C41.2463 50.5594 41.0059 50.6619 40.7439 50.7203C40.4819 50.7784 40.2415 50.8075 40.0195 50.8075H37.6851V44.5114H39.4048L39.405 44.5111ZM39.9228 49.5112C39.9844 49.5112 40.0523 49.4989 40.1261 49.4745C40.2001 49.4498 40.2663 49.4117 40.3249 49.3596C40.3832 49.3074 40.4326 49.2371 40.4727 49.1481C40.5127 49.0592 40.5328 48.9506 40.5328 48.822C40.5328 48.6872 40.5112 48.5767 40.4681 48.491C40.425 48.4051 40.3695 48.3378 40.3016 48.2888C40.2339 48.2397 40.1584 48.2062 40.075 48.1878C39.9919 48.1694 39.907 48.1601 39.8206 48.1601H39.4047V49.5112H39.9225H39.9228ZM47.7761 48.1878H46.343V50.8074H44.6233V44.5113H46.343V46.8827H47.7761V44.5113H49.4958V50.8074H47.7761V48.1878ZM62.2344 43.2978C62.3328 43.2978 62.4222 43.2749 62.5023 43.2288C62.5826 43.1829 62.6503 43.1215 62.7058 43.0449C62.7612 42.9683 62.8075 42.8826 62.8443 42.7874C62.8813 42.6926 62.9061 42.5961 62.9185 42.498H63.7968C63.7968 42.7002 63.7613 42.904 63.6903 43.1093C63.6194 43.3147 63.5177 43.5014 63.3852 43.6698C63.2526 43.8384 63.0894 43.9762 62.8952 44.0834C62.7009 44.1907 62.4806 44.2443 62.2342 44.2443C61.9876 44.2443 61.7671 44.1907 61.5731 44.0834C61.379 43.9762 61.2157 43.8382 61.0832 43.6698C60.9506 43.5013 60.8488 43.3145 60.778 43.1093C60.7072 42.904 60.6716 42.7002 60.6716 42.498H61.5499C61.5623 42.5961 61.5869 42.6926 61.6239 42.7874C61.6609 42.8824 61.707 42.9683 61.7625 43.0449C61.818 43.1215 61.8844 43.1827 61.9613 43.2288C62.0383 43.2747 62.1291 43.2978 62.234 43.2978H62.2344ZM61.3744 48.114L61.9199 47.0295L63.2605 44.5293H64.9062V50.8072H63.2605V47.4523H63.1958L62.5855 48.592L61.3191 50.8072H59.6548V44.5293H61.3191V48.114H61.3744ZM75.7643 44.5111V49.4745L76.3746 49.502L76.3376 52.3974H74.9045L74.8675 50.8072H71.4465L71.4095 52.3974H69.9765L69.9488 49.5298L70.5589 49.4839C70.6821 49.3859 70.787 49.2755 70.8734 49.153C70.9598 49.0305 71.0319 48.8726 71.0906 48.6796C71.1492 48.4866 71.1971 48.2429 71.2339 47.9489C71.2709 47.6548 71.3016 47.2841 71.3264 46.8368L71.4559 44.5114H75.7643V44.5111ZM74.0445 45.8621H72.9443L72.8981 46.8365C72.8798 47.247 72.8611 47.5871 72.8428 47.8567C72.8243 48.1262 72.7966 48.3562 72.7596 48.546C72.7226 48.736 72.6732 48.9015 72.6116 49.0424C72.55 49.1834 72.4669 49.3273 72.362 49.4745H74.0447V45.8621H74.0445ZM86.8248 47.3052L87.3903 46.0367L88.093 44.5293H89.9176V50.8072H88.2533V47.9485H88.1887L87.7079 49.0241L87.3474 49.8328H86.2935L85.8867 48.9597L85.415 47.921H85.3503V50.8072H83.6676V44.5293H85.5289L86.2223 46.0276L86.7878 47.3053H86.8248V47.3052ZM25.8065 44.52H27.5262V50.8072H25.8065V44.52ZM53.6691 48.1139L54.2146 47.0293L55.5552 44.5291H57.2009V50.807H55.5552V47.4521H55.4905L54.8802 48.5919L53.6138 50.807H51.9496V44.5291H53.6138V48.1139H53.6691ZM79.0965 44.52H80.8162V50.8072H79.0965V44.52Z" fill="#2B2A29"/>
<path d="M26.5453 62.5021V63.3177H25.2279V63.9337H25.5786C25.7155 63.9337 25.8642 63.9477 26.0234 63.9754C26.1834 64.0031 26.3313 64.0586 26.4689 64.1418C26.6057 64.225 26.7201 64.3434 26.8102 64.4969C26.9013 64.6507 26.947 64.8531 26.947 65.1045C26.947 65.3451 26.9015 65.5429 26.8102 65.6983C26.7192 65.8538 26.6074 65.9758 26.4735 66.0646C26.3394 66.1533 26.1943 66.2154 26.0361 66.2505C25.8781 66.2856 25.733 66.3031 25.5989 66.3031H24.1895V62.5021H26.5449H26.5453ZM25.5406 65.5208C25.5777 65.5208 25.6186 65.5133 25.6633 65.4985C25.7081 65.4836 25.748 65.4605 25.7834 65.4292C25.8187 65.3976 25.8484 65.3551 25.8727 65.3016C25.897 65.2478 25.9088 65.1821 25.9088 65.1045C25.9088 65.0232 25.8959 64.9567 25.8698 64.9049C25.8438 64.8531 25.8102 64.8125 25.7693 64.7828C25.7284 64.7532 25.6828 64.7328 25.6325 64.7217C25.5823 64.7107 25.5311 64.705 25.4791 64.705H25.2279V65.5208H25.5406ZM29.9077 64.3054L30.1366 63.6172L30.5163 62.5075H31.5152L30.5163 65.1767C30.4158 65.4394 30.3191 65.6512 30.2261 65.8122C30.1331 65.9731 30.028 66.098 29.9107 66.1867C29.7935 66.2756 29.6558 66.3357 29.4977 66.3673C29.3397 66.3986 29.147 66.418 28.9199 66.4253L28.8419 65.632C29.0204 65.6134 29.1647 65.5839 29.2745 65.543C29.3843 65.5024 29.4559 65.4339 29.4893 65.3377L29.5173 65.2545L29.2718 65.077L28.2949 62.5079H29.322L29.6569 63.6176L29.8746 64.3058H29.9079L29.9077 64.3054ZM36.3347 62.5021V65.4985L36.703 65.5152L36.6806 67.263H35.8155L35.7931 66.3031H33.7278L33.7056 67.263H32.8404L32.8236 65.5319L33.1919 65.5042C33.2664 65.445 33.3297 65.3784 33.3818 65.3045C33.4339 65.2304 33.4775 65.1352 33.5128 65.0186C33.5481 64.9021 33.5771 64.7551 33.5994 64.5776C33.6218 64.4001 33.6403 64.1764 33.6552 63.9062L33.7333 62.5023H36.3343L36.3347 62.5021ZM35.2965 63.3177H34.6322L34.6042 63.9061C34.5932 64.1539 34.582 64.3591 34.5708 64.5219C34.5598 64.6849 34.543 64.8234 34.5207 64.9382C34.4983 65.0527 34.4685 65.1526 34.4313 65.2376C34.3941 65.3227 34.3439 65.4096 34.2806 65.4985H35.2965V63.3177ZM38.4191 62.5075H39.4573V66.3031H38.4191V62.5075ZM43.3389 64.2832C43.5585 64.3572 43.711 64.4747 43.7966 64.6356C43.8821 64.7966 43.9249 64.9733 43.9249 65.1656C43.9249 65.332 43.896 65.4845 43.8383 65.6234C43.7806 65.762 43.7007 65.8813 43.5983 65.9812C43.496 66.0811 43.3752 66.1597 43.2355 66.2171C43.096 66.2745 42.9426 66.3031 42.7751 66.3031H41.1733V62.5021H42.6299C42.79 62.5021 42.9417 62.5224 43.085 62.5632C43.228 62.6039 43.3536 62.6668 43.4617 62.7518C43.5697 62.8369 43.6552 62.9433 43.7185 63.0709C43.7816 63.1984 43.8134 63.3493 43.8134 63.5231C43.8134 63.6673 43.7789 63.808 43.7102 63.9449C43.6413 64.0817 43.5176 64.1872 43.339 64.2612V64.2833L43.3389 64.2832ZM42.9035 65.1101C42.9035 64.9549 42.857 64.8465 42.764 64.7855C42.671 64.7242 42.5575 64.6938 42.4236 64.6938H42.2114V65.5317H42.4236C42.5612 65.5317 42.6758 65.5029 42.7667 65.4457C42.8579 65.3883 42.9035 65.2765 42.9035 65.1099V65.1101ZM42.7976 63.573C42.7976 63.5177 42.7866 63.4704 42.7642 63.4316C42.7418 63.3926 42.714 63.3621 42.6805 63.34C42.6471 63.3177 42.6089 63.302 42.5661 63.2928C42.5234 63.2835 42.4833 63.2788 42.446 63.2788H42.2116V63.9393H42.4181C42.5261 63.9393 42.6164 63.9115 42.6888 63.8561C42.7615 63.8006 42.7978 63.7063 42.7978 63.573H42.7976ZM45.3843 62.5021H47.7786V63.3177H46.4224V63.928H47.6169V64.7271H46.4224V65.4874H47.7786V66.303H45.3843V62.502V62.5021ZM50.6837 63.3177V63.9837C50.6837 64.3647 50.6604 64.694 50.6139 64.9714C50.5672 65.2488 50.4958 65.4884 50.3989 65.69C50.3021 65.8915 50.1757 66.0615 50.0194 66.2004C49.8629 66.3391 49.6771 66.4584 49.4612 66.5583L49.0147 65.8813C49.1039 65.8037 49.183 65.7325 49.2519 65.6677C49.3208 65.6029 49.3812 65.5373 49.4334 65.4708C49.4855 65.4042 49.5282 65.3311 49.5617 65.2517C49.5951 65.172 49.6221 65.075 49.6426 64.9603C49.663 64.8457 49.6779 64.7097 49.6872 64.5525C49.6966 64.3952 49.7012 64.2057 49.7012 63.9837V62.5021H52.2632V66.3031H51.2026V63.3177H50.6835H50.6837ZM54.8722 62.5021V63.9337H55.2229C55.3598 63.9337 55.5085 63.9477 55.6677 63.9754C55.8277 64.0031 55.9756 64.0586 56.1132 64.1418C56.25 64.225 56.3644 64.3434 56.4545 64.4969C56.5456 64.6507 56.5913 64.8531 56.5913 65.1045C56.5913 65.3451 56.5458 65.5429 56.4545 65.6983C56.3635 65.8538 56.2517 65.9758 56.1178 66.0646C55.9837 66.1533 55.8386 66.2154 55.6804 66.2505C55.5224 66.2856 55.3773 66.3031 55.2432 66.3031H53.8337V62.5021H54.8719H54.8722ZM55.1849 65.5208C55.222 65.5208 55.2629 65.5133 55.3076 65.4985C55.3524 65.4836 55.3922 65.4605 55.4277 65.4292C55.463 65.3976 55.4927 65.3551 55.517 65.3016C55.5413 65.2478 55.5531 65.1821 55.5531 65.1045C55.5531 65.0232 55.5402 64.9567 55.5141 64.9049C55.4881 64.8531 55.4545 64.8125 55.4136 64.7828C55.3727 64.7532 55.3271 64.7328 55.2768 64.7217C55.2266 64.7107 55.1754 64.705 55.1234 64.705H54.8722V65.5208H55.1849ZM59.9987 64.7217H59.1335V66.3031H58.0953V62.5021H59.1335V63.9337H59.9987V62.5021H61.0368V66.3031H59.9987V64.7217ZM64.3548 64.7993L64.2151 64.117L64.0868 63.4455H64.0476L63.9305 64.1224L63.7908 64.7993H64.3546H64.3548ZM63.6291 65.5761L63.4785 66.303H62.418L63.4561 62.5073H64.6786L65.728 66.303H64.6674L64.5169 65.5761H63.6292H63.6291ZM29.0544 71.264V72.923H28.0162V69.1274H29.0544V70.6756H29.0768L30.0479 69.1274H31.2479L30.0032 70.9253L31.2758 72.9229H30.0087L29.0766 71.2638H29.0542L29.0544 71.264ZM34.1638 73.0008C33.8662 73.0008 33.6179 72.95 33.4188 72.8483C33.2195 72.7465 33.0597 72.606 32.9387 72.4265C32.8178 72.2471 32.7313 72.0362 32.6792 71.7941C32.6271 71.5518 32.6011 71.29 32.6011 71.0089C32.6011 70.7239 32.6289 70.4622 32.6848 70.2236C32.7404 69.985 32.8299 69.7787 32.9526 69.6049C33.0753 69.4309 33.2362 69.295 33.4354 69.1969C33.6345 69.0991 33.8774 69.05 34.1637 69.05C34.4466 69.05 34.6866 69.0981 34.8838 69.1942C35.081 69.2906 35.241 69.4245 35.3637 69.5966C35.4866 69.7686 35.5749 69.9748 35.629 70.2154C35.683 70.4558 35.7098 70.7203 35.7098 71.0089C35.7098 71.2862 35.6847 71.5461 35.6344 71.7885C35.5842 72.0307 35.4986 72.2416 35.3776 72.4211C35.2568 72.6004 35.0976 72.742 34.9004 72.8456C34.7032 72.9492 34.4576 73.0008 34.1635 73.0008H34.1638ZM34.1638 69.8934C34.0635 69.8934 33.9824 69.9211 33.9211 69.9766C33.8597 70.0319 33.8132 70.1087 33.7815 70.2069C33.7499 70.3048 33.7294 70.4224 33.72 70.5594C33.7107 70.6962 33.7061 70.8459 33.7061 71.0089C33.7061 71.1826 33.7107 71.3409 33.72 71.4833C33.7294 71.6257 33.7499 71.7469 33.7815 71.8467C33.8132 71.9466 33.8597 72.0234 33.9211 72.0771C33.9826 72.1307 34.0635 72.1574 34.1638 72.1574C34.2607 72.1574 34.338 72.1287 34.3957 72.0713C34.4532 72.0141 34.498 71.9336 34.5296 71.83C34.5613 71.7264 34.5817 71.6053 34.5912 71.4666C34.6005 71.3278 34.6051 71.1752 34.6051 71.0089C34.6051 70.8498 34.6005 70.7016 34.5912 70.5648C34.5817 70.4279 34.5613 70.3095 34.5296 70.2096C34.498 70.1097 34.4532 70.0321 34.3957 69.9766C34.338 69.9211 34.2607 69.8934 34.1638 69.8934ZM39.1813 70.8089L39.5226 70.0432L39.9469 69.1332H41.0484V72.923H40.0435V71.1973H40.0044L39.7142 71.8466L39.4965 72.3347H38.8602L38.6148 71.8076L38.33 71.1806H38.291V72.923H37.2751V69.1332H38.3988L38.8173 70.0377L39.1589 70.8089H39.1811H39.1813ZM44.5615 69.9378H43.6963V72.9232H42.6581V69.1222H45.5996V72.9232H44.5615V69.9378ZM48.9176 71.4194L48.7779 70.737L48.6496 70.0655H48.6104L48.4933 70.7424L48.3536 71.4194H48.9174H48.9176ZM48.1919 72.1962L48.0413 72.923H46.9808L48.0189 69.1274H49.2414L50.2908 72.923H49.2302L49.0797 72.1962H48.192H48.1919ZM53.5805 71.3416H52.7153V72.923H51.6772V69.122H52.7153V70.5536H53.5805V69.122H54.6187V72.923H53.5805V71.3416ZM60.433 71.4359L59.9001 72.923H58.8898L59.4256 71.6411L59.7938 71.3416C59.6934 71.3083 59.6014 71.2667 59.5157 71.2167C59.4312 71.1668 59.3558 71.1013 59.2915 71.0198C59.2263 70.9383 59.1751 70.8395 59.1389 70.723C59.1017 70.6065 59.0832 70.4649 59.0832 70.2985C59.0832 70.0321 59.1306 69.8204 59.2255 69.6631C59.3203 69.5059 59.4376 69.3874 59.5773 69.308C59.7168 69.2283 59.8646 69.1775 60.0209 69.1554C60.1771 69.1332 60.3147 69.1222 60.4338 69.1222H61.6729V72.9232H60.6348V71.4361H60.4328L60.433 71.4359ZM60.4934 69.9044C60.3919 69.9044 60.3047 69.9294 60.2312 69.9793C60.1577 70.0293 60.1214 70.1318 60.1214 70.2872C60.1214 70.3687 60.1307 70.4335 60.1492 70.4814C60.1687 70.5295 60.1966 70.5676 60.2339 70.5953C60.2719 70.623 60.3176 70.6415 60.3724 70.6507C60.4274 70.6599 60.4878 70.6647 60.5557 70.6647H60.6348V69.9044H60.4932H60.4934ZM56.3401 69.1276H57.3783V72.9232H56.3401V69.1276Z" fill="#2B2A29"/>
<path fill-rule="evenodd" clip-rule="evenodd" d="M44.9585 57.5941V54.5547H4.96289V57.5941H44.9585Z" fill="#2D5DA6"/>
<path fill-rule="evenodd" clip-rule="evenodd" d="M84.9548 57.5941V54.5547H44.959V57.5941H84.9548Z" fill="#FECC00"/>
</svg>
