<svg width="141" height="114" viewBox="0 0 141 114" fill="none" xmlns="http://www.w3.org/2000/svg">
<path fill-rule="evenodd" clip-rule="evenodd" d="M103.573 55.9492H37.125V57.8621H103.573V55.9492Z" fill="white"/>
<path fill-rule="evenodd" clip-rule="evenodd" d="M95.0386 21.2085V51.6458H93.5212V52.6395H92.6465V53.8136H101.101V52.6395H100.227V51.6458H98.4615V21.2085H100.227V20.2151H101.101V19.041H92.6465V20.2151H93.5212V21.2085H95.0386Z" fill="white"/>
<path fill-rule="evenodd" clip-rule="evenodd" d="M56.2697 21.2085V51.6458H57.7874V52.6395H58.6621V53.8136H50.207V52.6395H51.0815V51.6458H52.8471V21.2085H51.0815V20.2151H50.207V19.041H58.6621V20.2151H57.7874V21.2085H56.2697Z" fill="white"/>
<path fill-rule="evenodd" clip-rule="evenodd" d="M84.4295 21.2085V51.6458H82.9118V52.6395H82.0371V53.8136H90.4925V52.6395H89.6175V51.6458H87.8524V21.2085H89.6175V20.2151H90.4925V19.041H82.0371V20.2151H82.9118V21.2085H84.4295Z" fill="white"/>
<path fill-rule="evenodd" clip-rule="evenodd" d="M73.8202 21.2085V51.6458H72.3025V52.6395H71.4277V53.8136H79.8831V52.6395H79.0084V51.6458H77.243V21.2085H79.0084V20.2151H79.8831V19.041H71.4277V20.2151H72.3025V21.2085H73.8202Z" fill="white"/>
<path fill-rule="evenodd" clip-rule="evenodd" d="M63.2105 21.2085V51.6458H61.6928V52.6395H60.8184V53.8136H69.2732V52.6395H68.3985V51.6458H66.6334V21.2085H68.3985V20.2151H69.2732V19.041H60.8184V20.2151H61.6928V21.2085H63.2105Z" fill="white"/>
<path fill-rule="evenodd" clip-rule="evenodd" d="M41.9901 21.2085V51.6458H40.4726V52.6395H39.5977V53.8136H48.053V52.6395H47.1783V51.6458H45.4132V21.2085H47.1783V20.2151H48.053V19.041H39.5977V20.2151H40.4726V21.2085H41.9901Z" fill="white"/>
<path fill-rule="evenodd" clip-rule="evenodd" d="M70.3494 0L34.5352 16.9049H106.164L70.3494 0ZM70.3494 3.04566L47.4849 13.8587H93.2141L70.3494 3.04566Z" fill="white"/>
<path fill-rule="evenodd" clip-rule="evenodd" d="M107.734 59.5234H32.9648V61.4364H107.734V59.5234Z" fill="white"/>
<path d="M132.564 87.9925H78.584V87.2168H132.564V87.9925Z" fill="white"/>
<path d="M7.74609 87.2168H61.726V87.9925H7.74609V87.2168Z" fill="white"/>
<path fill-rule="evenodd" clip-rule="evenodd" d="M67.8594 88.3772L70.1549 85.6641L72.4504 88.3772H67.8594Z" fill="white"/>
<path d="M6.73769 70.1826C7.34123 70.2401 7.88942 70.3766 8.38464 70.5918C8.87748 70.8069 9.29829 71.0941 9.64945 71.4529C9.99796 71.8118 10.2697 72.2355 10.4598 72.7232C10.6521 73.2114 10.7485 73.7616 10.7485 74.374C10.7485 75.6276 10.3997 76.6205 9.69977 77.3524C9.00036 78.0847 8.01177 78.5176 6.73769 78.6517V79.3404H4.05421V78.6372C3.44829 78.5798 2.89507 78.4409 2.39508 78.2209C1.89509 78.0009 1.46687 77.7089 1.11094 77.3456C0.755282 76.9817 0.481188 76.5512 0.28866 76.0534C0.0963965 75.556 0 74.9913 0 74.3597C0 73.7571 0.0963965 73.2114 0.28866 72.7235C0.480923 72.2355 0.755282 71.8097 1.11094 71.4461C1.46687 71.0825 1.89509 70.7932 2.39508 70.5776C2.89507 70.3624 3.44829 70.2259 4.05421 70.1687V69.5226H6.73769V70.1829V70.1826ZM4.05421 72.0489C3.86195 72.0584 3.68637 72.1206 3.52748 72.2355C3.36885 72.3504 3.23431 72.5082 3.12335 72.7092C3.01292 72.9103 2.92606 73.1445 2.86356 73.4125C2.80106 73.6805 2.76981 73.9769 2.76981 74.3023C2.76981 75.0677 2.87574 75.6326 3.08707 75.996C3.29867 76.3599 3.62096 76.5796 4.05395 76.6563V72.0487L4.05421 72.0489ZM6.73769 76.6566C7.11745 76.5799 7.42041 76.3551 7.64392 75.9818C7.86744 75.6087 7.9784 75.049 7.9784 74.3023C7.9784 73.5845 7.882 73.0394 7.69239 72.666C7.50224 72.2929 7.18498 72.0871 6.73769 72.0489V76.6566ZM18.992 75.4511L18.6313 73.6855L18.2994 71.9485H18.1985L17.8953 73.6997L17.5349 75.4511H18.992ZM17.1162 77.4607L16.7266 79.341H13.9857L16.6692 69.5226H19.8288L22.5412 79.341H19.7999L19.4104 77.4607H17.1165H17.1162ZM31.0368 73.8723L31.9192 71.8914L33.0155 69.5374H35.8627V79.3412H33.2658V74.877H33.1649L32.4146 76.5567L31.8522 77.8196H30.2076L29.5728 76.456L28.8369 74.834H28.736V79.3412H26.1102V69.5374H29.0146L30.0966 71.8771L30.979 73.8725H31.0368V73.8723ZM50.8494 71.6187V73.3413C50.8494 74.3271 50.7893 75.1787 50.6691 75.8964C50.5488 76.6141 50.3637 77.2336 50.1137 77.7553C49.8637 78.2767 49.5367 78.717 49.1328 79.0759C48.7287 79.4345 48.248 79.7433 47.69 80.0015L46.5359 78.2504C46.7666 78.0494 46.9713 77.8652 47.149 77.6979C47.327 77.5303 47.4832 77.3603 47.6177 77.1883C47.7525 77.0162 47.8632 76.827 47.9496 76.6212C48.0362 76.4155 48.1058 76.1644 48.1591 75.8677C48.212 75.5712 48.2502 75.2195 48.2745 74.8127C48.2984 74.4058 48.3105 73.9155 48.3105 73.3413V69.5089H54.9325V79.3412H52.1916V71.6187H50.8497H50.8494ZM61.4877 69.5089V73.2122H62.3942C62.7478 73.2122 63.1323 73.2481 63.5433 73.32C63.957 73.3917 64.3394 73.535 64.695 73.7505C65.0486 73.9658 65.3441 74.272 65.5774 74.6693C65.8131 75.0664 65.9312 75.5902 65.9312 76.2413C65.9312 76.8631 65.8134 77.3751 65.5774 77.7772C65.342 78.1793 65.0533 78.4949 64.7072 78.7244C64.3608 78.9542 63.9858 79.1144 63.5769 79.2055C63.168 79.2962 62.793 79.3418 62.4467 79.3418H58.804V69.5094H61.4875L61.4877 69.5089ZM62.2957 77.3174C62.3918 77.3174 62.4978 77.2982 62.613 77.2599C62.7284 77.2215 62.8317 77.1619 62.9231 77.0805C63.0142 76.9991 63.0912 76.8892 63.1537 76.7504C63.2162 76.6115 63.2475 76.4418 63.2475 76.241C63.2475 76.0305 63.2139 75.8579 63.1466 75.7241C63.0793 75.59 62.9927 75.4848 62.8868 75.4084C62.7811 75.3317 62.6633 75.2793 62.5333 75.2506C62.4035 75.2219 62.2711 75.2074 62.1363 75.2074H61.4872V77.3174H62.2952H62.2957ZM74.55 75.2506H72.3138V79.3415H69.6303V69.5092H72.3138V73.2125H74.55V69.5092H77.2335V79.3415H74.55V75.2506ZM97.1107 67.6142C97.2643 67.6142 97.4039 67.5783 97.5289 67.5064C97.6542 67.4347 97.7598 67.3388 97.8464 67.2192C97.9327 67.0996 98.005 66.9657 98.0625 66.8171C98.1202 66.669 98.1589 66.5183 98.1782 66.3652H99.5487C99.5487 66.6809 99.4934 66.9992 99.3827 67.3199C99.272 67.6405 99.1133 67.9322 98.9065 68.1952C98.6997 68.4584 98.4449 68.6737 98.142 68.841C97.8387 69.0085 97.495 69.0923 97.1105 69.0923C96.7257 69.0923 96.3817 69.0085 96.079 68.841C95.776 68.6737 95.5212 68.4581 95.3144 68.1952C95.1076 67.9319 94.9487 67.6403 94.8383 67.3199C94.7278 66.9992 94.6722 66.6809 94.6722 66.3652H96.0427C96.062 66.5183 96.1004 66.669 96.1582 66.8171C96.2159 66.9655 96.2879 67.0996 96.3745 67.2192C96.4611 67.3388 96.5647 67.4345 96.6846 67.5064C96.8049 67.5781 96.9465 67.6142 97.1102 67.6142H97.1107ZM95.7689 75.1354L96.62 73.4417L98.7119 69.5374H101.28V79.3412H98.7119V74.102H98.611L97.6587 75.8819L95.6825 79.3412H93.0856V69.5374H95.6825V75.1354H95.7689ZM118.223 69.5089V77.2599L119.175 77.3029L119.117 81.8246H116.881L116.824 79.3412H111.485L111.428 81.8246H109.192L109.148 77.3464L110.1 77.2747C110.293 77.1216 110.456 76.9493 110.591 76.758C110.726 76.5667 110.838 76.3201 110.93 76.0187C111.021 75.7172 111.096 75.3367 111.154 74.8775C111.211 74.4182 111.259 73.8393 111.298 73.1408L111.5 69.5094H118.223V69.5089ZM115.539 71.6187H113.823L113.751 73.1403C113.722 73.7814 113.693 74.3126 113.664 74.7336C113.635 75.1544 113.592 75.5135 113.534 75.81C113.477 76.1067 113.4 76.3651 113.303 76.5852C113.207 76.8054 113.078 77.0302 112.914 77.2599H115.54V71.6187H115.539ZM135.482 73.8723L136.364 71.8914L137.461 69.5374H140.308V79.3412H137.711V74.877H137.61L136.86 76.5567L136.297 77.8196H134.653L134.018 76.456L133.282 74.834H133.181V79.3412H130.555V69.5374H133.46L134.542 71.8771L135.424 73.8725H135.482V73.8723ZM40.2686 69.5229H42.9521V79.3412H40.2686V69.5229ZM83.7455 75.1352L84.5967 73.4415L86.6885 69.5371H89.2565V79.341H86.6885V74.1018H86.5876L85.6353 75.8816L83.6592 79.341H81.0623V69.5371H83.6592V75.1352H83.7455ZM123.422 69.5229H126.106V79.3412H123.422V69.5229Z" fill="white"/>
<path d="M41.4221 97.6038V98.8775H39.3666V99.8395H39.9137C40.1274 99.8395 40.3594 99.8613 40.6078 99.9046C40.8575 99.9478 41.0882 100.034 41.303 100.164C41.5164 100.294 41.6949 100.479 41.8355 100.719C41.9777 100.959 42.049 101.275 42.049 101.668C42.049 102.044 41.978 102.352 41.8355 102.595C41.6936 102.838 41.5191 103.028 41.3101 103.167C41.1009 103.306 40.8745 103.403 40.6277 103.457C40.3811 103.512 40.1547 103.54 39.9455 103.54H37.7461V97.6038H41.4216H41.4221ZM39.8544 102.318C39.9124 102.318 39.9762 102.306 40.0458 102.283C40.1158 102.26 40.178 102.224 40.2333 102.175C40.2884 102.126 40.3348 102.059 40.3726 101.976C40.4105 101.892 40.429 101.789 40.429 101.668C40.429 101.541 40.4089 101.437 40.3681 101.356C40.3276 101.275 40.2752 101.212 40.2114 101.165C40.1475 101.119 40.0763 101.087 39.9979 101.07C39.9195 101.053 39.8395 101.044 39.7585 101.044H39.3666V102.318H39.8544ZM46.6689 100.42L47.0261 99.3452L47.6185 97.6122H49.1773L47.6185 101.781C47.4617 102.191 47.3108 102.522 47.1657 102.773C47.0205 103.024 46.8566 103.219 46.6736 103.358C46.4906 103.497 46.2759 103.59 46.029 103.64C45.7825 103.689 45.4819 103.719 45.1276 103.73L45.0058 102.491C45.2844 102.463 45.5095 102.416 45.6808 102.353C45.8521 102.289 45.9639 102.182 46.0161 102.032L46.0598 101.902L45.6766 101.625L44.1522 97.6127H45.7549L46.2774 99.3457L46.6172 100.42H46.6691L46.6689 100.42ZM56.6975 97.6038V102.283L57.2722 102.309L57.2373 105.039H55.8874L55.8525 103.54H52.6298L52.5951 105.039H51.245L51.2188 102.335L51.7935 102.292C51.9098 102.2 52.0085 102.095 52.0898 101.98C52.1711 101.864 52.2392 101.716 52.2943 101.534C52.3494 101.352 52.3947 101.122 52.4293 100.845C52.4643 100.568 52.4932 100.218 52.5165 99.7965L52.6383 97.604H56.697L56.6975 97.6038ZM55.0776 98.8775H54.0411L53.9974 99.7963C53.9802 100.183 53.9627 100.504 53.9452 100.758C53.928 101.013 53.9018 101.229 53.8671 101.408C53.8321 101.587 53.7855 101.743 53.7275 101.876C53.6695 102.009 53.5911 102.144 53.4924 102.283H55.0776V98.8775ZM59.9501 97.6122H61.5701V103.54H59.9501V97.6122ZM67.6269 100.385C67.9696 100.501 68.2077 100.684 68.3411 100.936C68.4746 101.187 68.5413 101.463 68.5413 101.763C68.5413 102.023 68.4963 102.261 68.4063 102.478C68.3162 102.695 68.1915 102.881 68.0318 103.037C67.8721 103.193 67.6836 103.316 67.4656 103.405C67.2479 103.495 67.0085 103.54 66.7471 103.54H64.2477V97.6038H66.5207C66.7704 97.6038 67.0072 97.6354 67.2307 97.6992C67.454 97.7627 67.6499 97.8609 67.8186 97.9937C67.9871 98.1265 68.1205 98.2928 68.2193 98.492C68.3178 98.6912 68.3673 98.9268 68.3673 99.1981C68.3673 99.4234 68.3136 99.6432 68.2063 99.8569C68.0988 100.071 67.9058 100.235 67.6272 100.351V100.385L67.6269 100.385ZM66.9476 101.677C66.9476 101.434 66.875 101.265 66.7299 101.17C66.5848 101.074 66.4076 101.026 66.1987 101.026H65.8677V102.335H66.1987C66.4135 102.335 66.5922 102.29 66.7342 102.201C66.8764 102.111 66.9476 101.936 66.9476 101.676V101.677ZM66.7824 99.2761C66.7824 99.1897 66.7651 99.1159 66.7302 99.0553C66.6952 98.9945 66.6518 98.9468 66.5996 98.9123C66.5475 98.8775 66.4879 98.853 66.4211 98.8385C66.3544 98.824 66.2919 98.8166 66.2336 98.8166H65.8679V99.8482H66.1902C66.3586 99.8482 66.4995 99.8047 66.6126 99.7183C66.726 99.6316 66.7826 99.4843 66.7826 99.2761H66.7824ZM70.8186 97.6038H74.5547V98.8775H72.4385V99.8305H74.3023V101.078H72.4385V102.266H74.5547V103.539H70.8186V97.6035V97.6038ZM79.0877 98.8775V99.9175C79.0877 100.512 79.0515 101.027 78.9789 101.46C78.9061 101.893 78.7946 102.267 78.6434 102.582C78.4924 102.897 78.2951 103.162 78.0512 103.379C77.807 103.596 77.5171 103.782 77.1802 103.938L76.4834 102.881C76.6227 102.76 76.7462 102.649 76.8537 102.547C76.9612 102.446 77.0555 102.344 77.1368 102.24C77.2181 102.136 77.2848 102.022 77.337 101.898C77.3892 101.773 77.4313 101.622 77.4633 101.443C77.4951 101.264 77.5184 101.051 77.533 100.806C77.5475 100.56 77.5547 100.264 77.5547 99.9175V97.6038H81.5525V103.54H79.8976V98.8775H79.0875H79.0877ZM85.6236 97.6038V99.8395H86.1708C86.3845 99.8395 86.6165 99.8613 86.8649 99.9046C87.1146 99.9478 87.3453 100.034 87.56 100.164C87.7735 100.294 87.952 100.479 88.0926 100.719C88.2348 100.959 88.3061 101.275 88.3061 101.668C88.3061 102.044 88.2351 102.352 88.0926 102.595C87.9507 102.838 87.7761 103.028 87.5672 103.167C87.358 103.306 87.1316 103.403 86.8847 103.457C86.6382 103.512 86.4118 103.54 86.2025 103.54H84.0032V97.6038H85.6231H85.6236ZM86.1115 102.318C86.1694 102.318 86.2333 102.306 86.3029 102.283C86.3728 102.26 86.4351 102.224 86.4904 102.175C86.5455 102.126 86.5918 102.059 86.6297 101.976C86.6676 101.892 86.6861 101.789 86.6861 101.668C86.6861 101.541 86.666 101.437 86.6252 101.356C86.5847 101.275 86.5323 101.212 86.4684 101.165C86.4046 101.119 86.3334 101.087 86.255 101.07C86.1766 101.053 86.0966 101.044 86.0156 101.044H85.6236V102.318H86.1115ZM93.623 101.07H92.2729V103.54H90.6529V97.6038H92.2729V99.8395H93.623V97.6038H95.2429V103.54H93.623V101.07ZM100.42 101.191L100.202 100.126L100.002 99.0769H99.9409L99.7582 100.134L99.5402 101.191H100.42H100.42ZM99.2878 102.404L99.0529 103.539H97.398L99.018 97.6119H100.926L102.563 103.539H100.908L100.673 102.404H99.2881H99.2878ZM45.3373 111.287V113.878H43.7174V107.95H45.3373V110.368H45.3723L46.8876 107.95H48.7602L46.818 110.758L48.8036 113.877H46.8264L45.372 111.286H45.3371L45.3373 111.287ZM53.3102 113.999C52.8457 113.999 52.4582 113.92 52.1476 113.761C51.8367 113.602 51.5872 113.382 51.3984 113.102C51.2098 112.822 51.0748 112.493 50.9935 112.115C50.9122 111.736 50.8716 111.327 50.8716 110.888C50.8716 110.443 50.9151 110.035 51.0022 109.662C51.0891 109.289 51.2286 108.967 51.4201 108.696C51.6116 108.424 51.8626 108.212 52.1735 108.059C52.4842 107.906 52.8631 107.829 53.3099 107.829C53.7514 107.829 54.1258 107.904 54.4335 108.055C54.7413 108.205 54.991 108.414 55.1825 108.683C55.3742 108.951 55.5119 109.273 55.5964 109.649C55.6806 110.025 55.7225 110.438 55.7225 110.888C55.7225 111.321 55.6833 111.727 55.6049 112.106C55.5265 112.484 55.393 112.813 55.2042 113.094C55.0156 113.374 54.7672 113.595 54.4595 113.757C54.1518 113.918 53.7686 113.999 53.3096 113.999H53.3102ZM53.3102 109.146C53.1536 109.146 53.0271 109.19 52.9315 109.276C52.8356 109.363 52.763 109.483 52.7135 109.636C52.6642 109.789 52.6322 109.972 52.6176 110.186C52.6031 110.4 52.5959 110.634 52.5959 110.888C52.5959 111.16 52.6031 111.407 52.6176 111.629C52.6322 111.852 52.6642 112.041 52.7135 112.197C52.763 112.353 52.8356 112.473 52.9315 112.556C53.0273 112.64 53.1536 112.682 53.3102 112.682C53.4614 112.682 53.5819 112.637 53.6719 112.548C53.7617 112.458 53.8316 112.333 53.8809 112.171C53.9304 112.009 53.9622 111.82 53.977 111.603C53.9916 111.386 53.9987 111.148 53.9987 110.888C53.9987 110.64 53.9916 110.409 53.977 110.195C53.9622 109.981 53.9304 109.796 53.8809 109.64C53.8316 109.484 53.7617 109.363 53.6719 109.276C53.5819 109.19 53.4614 109.146 53.3102 109.146ZM61.1395 110.576L61.672 109.38L62.3341 107.959H64.0528V113.878H62.4848V111.183H62.4239L61.971 112.197L61.6312 112.959H60.6384L60.2555 112.136L59.8111 111.157H59.7502V113.878H58.1649V107.959H59.9183L60.5714 109.372L61.1045 110.576H61.1392H61.1395ZM69.5347 109.216H68.1846V113.878H66.5647V107.942H71.1546V113.878H69.5347V109.216ZM76.332 111.529L76.114 110.464L75.9138 109.415H75.8526L75.6699 110.472L75.452 111.529H76.3317H76.332ZM75.1996 112.742L74.9647 113.878H73.3098L74.9297 107.95H76.8373L78.4747 113.878H76.8198L76.5849 112.742H75.1998H75.1996ZM83.6081 111.408H82.258V113.878H80.638V107.942H82.258V110.177H83.6081V107.942H85.228V113.878H83.6081V111.408ZM94.3006 111.555L93.4691 113.878H91.8926L92.7286 111.876L93.3033 111.408C93.1465 111.356 93.003 111.291 92.8693 111.213C92.7374 111.135 92.6198 111.033 92.5194 110.905C92.4177 110.778 92.3378 110.624 92.2814 110.442C92.2234 110.26 92.1945 110.039 92.1945 109.779C92.1945 109.363 92.2684 109.032 92.4164 108.787C92.5644 108.541 92.7474 108.356 92.9654 108.232C93.1831 108.108 93.4137 108.028 93.6576 107.994C93.9013 107.959 94.1161 107.942 94.302 107.942H96.2355V113.878H94.6155V111.555H94.3004L94.3006 111.555ZM94.3949 109.164C94.2366 109.164 94.1004 109.203 93.9858 109.281C93.8711 109.359 93.8144 109.519 93.8144 109.761C93.8144 109.889 93.829 109.99 93.8579 110.065C93.8883 110.14 93.9317 110.199 93.99 110.243C94.0493 110.286 94.1206 110.315 94.2061 110.329C94.2919 110.343 94.3862 110.351 94.4921 110.351H94.6155V109.164H94.3947H94.3949ZM87.9141 107.95H89.5341V113.878H87.9141V107.95Z" fill="white"/>
<path fill-rule="evenodd" clip-rule="evenodd" d="M70.1554 89.9437V85.1973H7.74609V89.9437H70.1554Z" fill="#2D5DA6"/>
<path fill-rule="evenodd" clip-rule="evenodd" d="M132.562 89.9437V85.1973H70.1523V89.9437H132.562Z" fill="#FECC00"/>
</svg>
