<svg width="65" height="65" viewBox="0 0 65 65" fill="none" xmlns="http://www.w3.org/2000/svg">
<path d="M32.5 0L60.6458 16.25V48.75L32.5 65L4.35417 48.75V16.25L32.5 0Z" fill="#FF0016"/>
<path d="M22.244 49V16.8H34.296C37.0253 16.8 39.3713 17.2447 41.334 18.134C43.2967 18.9927 44.7993 20.25 45.842 21.906C46.9153 23.5313 47.452 25.5093 47.452 27.84C47.452 30.1093 46.9153 32.072 45.842 33.728C44.7993 35.3533 43.2967 36.6107 41.334 37.5C39.3713 38.3893 37.0253 38.834 34.296 38.834H24.13L25.648 37.224V49H22.244ZM25.648 37.5L24.13 35.844H34.204C37.424 35.844 39.862 35.154 41.518 33.774C43.2047 32.3633 44.048 30.3853 44.048 27.84C44.048 25.264 43.2047 23.2707 41.518 21.86C39.862 20.4493 37.424 19.744 34.204 19.744H24.13L25.648 18.134V37.5Z" fill="white"/>
</svg>
