<svg width="33" height="33" viewBox="0 0 33 33" fill="none" xmlns="http://www.w3.org/2000/svg">
<path d="M31.4113 22.1858L23.6381 18.7026L23.6166 18.6927C23.2131 18.5201 22.7729 18.4508 22.3358 18.4912C21.8988 18.5315 21.4787 18.6802 21.1136 18.9237C21.0705 18.9521 21.0292 18.9829 20.9898 19.0161L16.9737 22.4399C14.4294 21.204 11.8025 18.597 10.5667 16.0857L13.9954 12.0085C14.0284 11.9672 14.0598 11.926 14.0895 11.8814C14.3278 11.5173 14.4724 11.0999 14.5104 10.6663C14.5484 10.2328 14.4786 9.79657 14.3073 9.39651V9.37671L10.8142 1.59028C10.5877 1.06766 10.1983 0.632307 9.70404 0.349203C9.2098 0.0660989 8.63725 -0.0495688 8.07187 0.0194663C5.83606 0.313675 3.78379 1.4117 2.29837 3.10845C0.812954 4.80521 -0.00402757 6.98466 1.49304e-05 9.23976C1.49304e-05 22.3409 10.6591 33 23.7602 33C26.0153 33.004 28.1947 32.187 29.8915 30.7016C31.5882 29.2162 32.6862 27.1639 32.9804 24.9281C33.0496 24.3629 32.9342 23.7905 32.6514 23.2963C32.3686 22.8021 31.9336 22.4125 31.4113 22.1858ZM23.7602 30.36C18.1606 30.3538 12.7922 28.1267 8.83274 24.1672C4.87326 20.2078 2.64615 14.8393 2.64003 9.23976C2.63383 7.6285 3.21432 6.07007 4.27311 4.85551C5.3319 3.64095 6.79658 2.85331 8.39363 2.63969C8.39296 2.64628 8.39296 2.65291 8.39363 2.65949L11.8586 10.4146L8.44807 14.4967C8.41339 14.5365 8.38194 14.579 8.35402 14.6238C8.10572 15.0048 7.96006 15.4435 7.93115 15.8973C7.90224 16.3512 7.99107 16.8048 8.18902 17.2143C9.68393 20.2718 12.7645 23.3292 15.855 24.8225C16.2674 25.0186 16.7237 25.1044 17.1792 25.0714C17.6347 25.0384 18.0738 24.8879 18.4537 24.6344C18.4962 24.606 18.537 24.5751 18.5758 24.542L22.587 21.1199L30.3421 24.5932H30.3602C30.1492 26.1925 29.3628 27.6601 28.148 28.7215C26.9332 29.7829 25.3733 30.3654 23.7602 30.36Z" fill="white"/>
</svg>
