<svg width="26" height="25" viewBox="0 0 26 25" fill="none" xmlns="http://www.w3.org/2000/svg">
<path d="M24.6656 16.8074L18.7768 14.1686L18.7605 14.1611C18.4548 14.0304 18.1213 13.9779 17.7902 14.0085C17.4591 14.039 17.1409 14.1516 16.8643 14.3361C16.8317 14.3576 16.8004 14.381 16.7705 14.4061L13.728 16.9999C11.8005 16.0637 9.81047 14.0886 8.87421 12.1861L11.4717 9.09733C11.4967 9.06608 11.5205 9.03483 11.543 9.00108C11.7235 8.72521 11.8331 8.40898 11.8618 8.08054C11.8906 7.7521 11.8378 7.42164 11.708 7.11857V7.10357L9.06171 1.20476C8.89013 0.808836 8.59511 0.47902 8.22069 0.264548C7.84626 0.0500749 7.41251 -0.0375522 6.9842 0.0147472C5.2904 0.237633 3.73565 1.06947 2.61033 2.35489C1.48502 3.64031 0.866089 5.29141 0.869152 6.99981C0.869152 16.9249 8.94421 25 18.8693 25C20.5777 25.003 22.2288 24.3841 23.5142 23.2588C24.7996 22.1335 25.6314 20.5787 25.8543 18.8849C25.9067 18.4568 25.8193 18.0231 25.605 17.6487C25.3908 17.2743 25.0613 16.9792 24.6656 16.8074ZM18.8693 23C14.6272 22.9953 10.5602 21.3081 7.56061 18.3085C4.56101 15.3089 2.8738 11.2419 2.86917 6.99981C2.86446 5.77916 3.30423 4.59854 4.10635 3.67842C4.90846 2.7583 6.01807 2.1616 7.22795 1.99977C7.22745 2.00475 7.22745 2.00978 7.22795 2.01477L9.85297 7.88982L7.2692 10.9824C7.24292 11.0125 7.21909 11.0447 7.19795 11.0786C7.00984 11.3673 6.89949 11.6996 6.87759 12.0434C6.85569 12.3873 6.92298 12.7309 7.07295 13.0411C8.20545 15.3574 10.5392 17.6737 12.8805 18.8049C13.1929 18.9535 13.5386 19.0185 13.8837 18.9935C14.2287 18.9685 14.5614 18.8544 14.8493 18.6624C14.8814 18.6409 14.9123 18.6175 14.9418 18.5924L17.9805 15.9999L23.8556 18.6312H23.8693C23.7095 19.8428 23.1137 20.9546 22.1934 21.7587C21.2731 22.5628 20.0914 23.0041 18.8693 23Z" fill="black"/>
</svg>
