<svg width="65" height="65" viewBox="0 0 65 65" fill="none" xmlns="http://www.w3.org/2000/svg">
<path d="M32.5 0L60.6458 16.25V48.75L32.5 65L4.35417 48.75V16.25L32.5 0Z" fill="#FF0016"/>
<path d="M32.006 49.276C29.6753 49.276 27.4673 48.908 25.382 48.172C23.3273 47.4053 21.6713 46.3933 20.414 45.136L22.024 42.514C23.0667 43.5873 24.462 44.4767 26.21 45.182C27.9887 45.8873 29.9207 46.24 32.006 46.24C34.674 46.24 36.7133 45.6573 38.124 44.492C39.5653 43.3267 40.286 41.7627 40.286 39.8C40.286 37.8373 39.5807 36.2733 38.17 35.108C36.79 33.9427 34.5973 33.36 31.592 33.36H29.292V30.922L39.228 18.456L39.688 19.744H21.748V16.8H42.448V19.146L32.512 31.612L30.902 30.554H32.144C36.008 30.554 38.8907 31.4127 40.792 33.13C42.724 34.8473 43.69 37.0553 43.69 39.754C43.69 41.5633 43.2607 43.1887 42.402 44.63C41.5433 46.0713 40.24 47.206 38.492 48.034C36.7747 48.862 34.6127 49.276 32.006 49.276Z" fill="white"/>
</svg>
