<svg width="42" height="45" viewBox="0 0 42 45" fill="none" xmlns="http://www.w3.org/2000/svg">
<g filter="url(#filter0_d_2665_27)">
<path d="M14.069 7.66648C13.7416 7.61854 13.4076 7.68446 13.123 7.85323H13.0983C12.4376 8.24082 11.8422 8.72883 11.3348 9.30317C10.9119 9.79119 10.6829 10.2845 10.623 10.7602C10.5878 11.042 10.6124 11.3275 10.6952 11.597L10.727 11.6146C11.2026 13.0117 11.8228 14.3559 12.5803 15.6209C13.5576 17.3974 14.7596 19.0405 16.1568 20.5098L16.199 20.5697L16.266 20.6191L16.3065 20.6666L16.3558 20.7089C17.8304 22.1101 19.4774 23.3178 21.2571 24.3029C23.2919 25.4111 24.527 25.9343 25.2687 26.1528V26.1634C25.4854 26.2303 25.6827 26.2603 25.8818 26.2603C26.5138 26.2149 27.1121 25.958 27.5801 25.5309C28.1527 25.0235 28.6372 24.4263 29.0142 23.7621V23.7497C29.3683 23.0803 29.2485 22.4496 28.7376 22.0214C27.7122 21.1237 26.6024 20.3272 25.4237 19.643C24.6344 19.2149 23.8328 19.4739 23.5086 19.9073L22.8163 20.7811C22.4604 21.2145 21.8156 21.1546 21.8156 21.1546L21.798 21.1652C16.9866 19.9373 15.7022 15.0659 15.7022 15.0659C15.7022 15.0659 15.6423 14.4035 16.088 14.0653L16.9548 13.3676C17.3706 13.0293 17.6595 12.2295 17.2138 11.4402C16.5313 10.2623 15.7365 9.15314 14.8407 8.12807C14.6448 7.88737 14.3703 7.72333 14.0655 7.66472M22.1996 5.54883C21.966 5.54883 21.742 5.64164 21.5768 5.80683C21.4116 5.97203 21.3188 6.19609 21.3188 6.42972C21.3188 6.66334 21.4116 6.8874 21.5768 7.0526C21.742 7.2178 21.966 7.3106 22.1996 7.3106C24.4265 7.3106 26.2764 8.03822 27.7404 9.43355C28.4927 10.1964 29.0794 11.1002 29.4635 12.0903C29.8493 13.0822 30.0255 14.141 29.9797 15.2016C29.9698 15.4352 30.0532 15.6632 30.2115 15.8353C30.3698 16.0075 30.5899 16.1097 30.8235 16.1195C31.0572 16.1293 31.2851 16.0459 31.4573 15.8876C31.6294 15.7294 31.7316 15.5092 31.7414 15.2756C31.794 13.9711 31.5775 12.6698 31.1054 11.4525C30.6312 10.2291 29.909 9.11706 28.9842 8.18621L28.9666 8.16859C27.1502 6.43324 24.8529 5.54883 22.1996 5.54883Z" fill="white"/>
<path d="M22.1387 8.44512C21.9051 8.44512 21.681 8.53793 21.5158 8.70313C21.3506 8.86833 21.2578 9.09238 21.2578 9.32601C21.2578 9.55964 21.3506 9.78369 21.5158 9.94889C21.681 10.1141 21.9051 10.2069 22.1387 10.2069H22.1687C23.7754 10.3214 24.9452 10.857 25.7644 11.7361C26.6048 12.6417 27.04 13.7674 27.0065 15.1593C27.0011 15.3929 27.0888 15.6191 27.2502 15.7881C27.4116 15.9571 27.6335 16.055 27.8671 16.0604C28.1007 16.0658 28.3269 15.9781 28.4959 15.8167C28.6649 15.6553 28.7629 15.4334 28.7683 15.1998C28.8106 13.3728 28.2221 11.796 27.0558 10.5381V10.5346C25.8631 9.25554 24.2264 8.57902 22.2567 8.44688L22.2268 8.44336L22.1387 8.44512Z" fill="white"/>
<path d="M22.1048 11.396C21.9869 11.3856 21.8681 11.399 21.7556 11.4356C21.643 11.4721 21.5389 11.5309 21.4496 11.6085C21.3603 11.6861 21.2875 11.781 21.2356 11.8873C21.1837 11.9937 21.1538 12.1094 21.1477 12.2276C21.1415 12.3458 21.1592 12.464 21.1998 12.5752C21.2403 12.6864 21.3028 12.7883 21.3836 12.8748C21.4644 12.9612 21.5618 13.0306 21.67 13.0786C21.7781 13.1266 21.8949 13.1523 22.0132 13.1542C22.7496 13.193 23.22 13.415 23.516 13.7127C23.8137 14.0122 24.0357 14.4932 24.0762 15.2455C24.0784 15.3637 24.1044 15.4802 24.1526 15.5882C24.2008 15.6962 24.2702 15.7933 24.3568 15.8739C24.4433 15.9544 24.5452 16.0167 24.6563 16.0571C24.7675 16.0974 24.8856 16.115 25.0037 16.1087C25.1217 16.1025 25.2373 16.0725 25.3436 16.0206C25.4498 15.9687 25.5445 15.896 25.6221 15.8067C25.6996 15.7174 25.7583 15.6135 25.7948 15.501C25.8313 15.3885 25.8448 15.2699 25.8345 15.1521C25.7781 14.095 25.4469 13.1613 24.7686 12.4742C24.0868 11.7871 23.1583 11.4524 22.1048 11.396Z" fill="white"/>
<path fill-rule="evenodd" clip-rule="evenodd" d="M12.4871 0.939859C18.0932 -0.313286 23.9068 -0.313286 29.5129 0.939859L30.1101 1.07199C31.7485 1.43928 33.2532 2.25315 34.4573 3.42334C35.6614 4.59353 36.5178 6.07433 36.9317 7.70156C38.3561 13.3089 38.3561 19.1834 36.9317 24.7908C36.5178 26.418 35.6614 27.8988 34.4573 29.069C33.2532 30.2392 31.7485 31.0531 30.1101 31.4204L29.5111 31.5525C25.9998 32.3366 22.397 32.6324 18.8048 32.4316L14.1308 36.6141C13.9546 36.7718 13.7393 36.8794 13.5073 36.9256C13.2753 36.9717 13.0352 36.9548 12.812 36.8765C12.5889 36.7982 12.3908 36.6614 12.2385 36.4805C12.0862 36.2995 11.9853 36.081 11.9462 35.8477L11.1728 31.2283C9.69012 30.7661 8.35057 29.9317 7.28192 28.8048C6.21327 27.6778 5.45115 26.2959 5.06825 24.7908C3.64392 19.1834 3.64392 13.3089 5.06825 7.70156C5.48216 6.07433 6.33865 4.59353 7.54274 3.42334C8.74683 2.25315 10.2515 1.43928 11.8899 1.07199L12.4871 0.939859ZM28.9368 3.51734C23.7101 2.34894 18.2899 2.34894 13.0632 3.51734L12.4642 3.65123C11.3031 3.9123 10.2369 4.48959 9.38369 5.3192C8.53045 6.14881 7.92344 7.19836 7.62988 8.35165C6.31382 13.5324 6.31382 18.96 7.62988 24.1407C7.92358 25.2942 8.53085 26.3439 9.38442 27.1735C10.238 28.0032 11.3045 28.5803 12.466 28.8411L12.6245 28.8763C12.881 28.9337 13.1146 29.0663 13.2953 29.2571C13.4761 29.4479 13.5959 29.6883 13.6393 29.9475L14.1573 33.0447L17.4553 30.0937C17.587 29.9755 17.7411 29.885 17.9085 29.8275C18.0758 29.77 18.253 29.7467 18.4296 29.759C21.9515 30.0077 25.4908 29.7436 28.9368 28.975L29.534 28.8411C30.6954 28.5803 31.762 28.0032 32.6156 27.1735C33.4691 26.3439 34.0764 25.2942 34.3701 24.1407C35.6844 18.9611 35.6844 13.533 34.3701 8.35165C34.0764 7.19814 33.4691 6.14843 32.6156 5.3188C31.762 4.48918 30.6954 3.91201 29.534 3.65123L28.9368 3.51734Z" fill="white"/>
</g>
<defs>
<filter id="filter0_d_2665_27" x="0" y="0" width="42" height="44.9512" filterUnits="userSpaceOnUse" color-interpolation-filters="sRGB">
<feFlood flood-opacity="0" result="BackgroundImageFix"/>
<feColorMatrix in="SourceAlpha" type="matrix" values="0 0 0 0 0 0 0 0 0 0 0 0 0 0 0 0 0 0 127 0" result="hardAlpha"/>
<feOffset dy="4"/>
<feGaussianBlur stdDeviation="2"/>
<feComposite in2="hardAlpha" operator="out"/>
<feColorMatrix type="matrix" values="0 0 0 0 0 0 0 0 0 0 0 0 0 0 0 0 0 0 0.25 0"/>
<feBlend mode="normal" in2="BackgroundImageFix" result="effect1_dropShadow_2665_27"/>
<feBlend mode="normal" in="SourceGraphic" in2="effect1_dropShadow_2665_27" result="shape"/>
</filter>
</defs>
</svg>
