<svg width="492" height="101" viewBox="0 0 492 101" fill="none" xmlns="http://www.w3.org/2000/svg">
<rect width="492" height="101" fill="white"/>
<path d="M57.832 45V28.2H64.816C66.592 28.2 67.984 28.568 68.992 29.304C70.016 30.024 70.528 31.088 70.528 32.496C70.528 33.888 70.04 34.944 69.064 35.664C68.088 36.368 66.808 36.72 65.224 36.72L65.632 36.12C67.504 36.12 68.928 36.488 69.904 37.224C70.88 37.96 71.368 39.04 71.368 40.464C71.368 41.904 70.856 43.024 69.832 43.824C68.824 44.608 67.304 45 65.272 45H57.832ZM59.584 43.584H65.272C66.696 43.584 67.776 43.32 68.512 42.792C69.248 42.264 69.616 41.448 69.616 40.344C69.616 39.256 69.248 38.456 68.512 37.944C67.776 37.432 66.696 37.176 65.272 37.176H59.584V43.584ZM59.584 35.808H64.72C66.016 35.808 67.008 35.552 67.696 35.04C68.4 34.512 68.752 33.736 68.752 32.712C68.752 31.688 68.4 30.92 67.696 30.408C67.008 29.88 66.016 29.616 64.72 29.616H59.584V35.808ZM75.6166 49.776C75.0246 49.776 74.4566 49.68 73.9126 49.488C73.3846 49.296 72.9286 49.008 72.5446 48.624L73.3366 47.352C73.6566 47.656 74.0006 47.888 74.3686 48.048C74.7526 48.224 75.1766 48.312 75.6406 48.312C76.2006 48.312 76.6806 48.152 77.0806 47.832C77.4966 47.528 77.8886 46.984 78.2566 46.2L79.0726 44.352L79.2646 44.088L84.4486 32.4H86.1286L79.8166 46.512C79.4646 47.328 79.0726 47.976 78.6406 48.456C78.2246 48.936 77.7686 49.272 77.2726 49.464C76.7766 49.672 76.2246 49.776 75.6166 49.776ZM78.9766 45.36L73.1686 32.4H74.9446L80.0806 43.968L78.9766 45.36ZM85.9403 44.976L86.0603 43.512C86.1723 43.528 86.2763 43.552 86.3723 43.584C86.4843 43.6 86.5803 43.608 86.6603 43.608C87.1723 43.608 87.5803 43.416 87.8843 43.032C88.2043 42.648 88.4443 42.136 88.6043 41.496C88.7643 40.856 88.8763 40.136 88.9403 39.336C89.0043 38.52 89.0603 37.704 89.1083 36.888L89.3243 32.4H98.5643V45H96.8603V33.384L97.2923 33.888H90.4283L90.8363 33.36L90.6443 37.008C90.5963 38.096 90.5083 39.136 90.3803 40.128C90.2683 41.12 90.0843 41.992 89.8283 42.744C89.5883 43.496 89.2523 44.088 88.8203 44.52C88.3883 44.936 87.8363 45.144 87.1643 45.144C86.9723 45.144 86.7723 45.128 86.5643 45.096C86.3723 45.064 86.1643 45.024 85.9403 44.976ZM103.528 45.12C103.176 45.12 102.872 44.992 102.616 44.736C102.376 44.48 102.256 44.168 102.256 43.8C102.256 43.416 102.376 43.104 102.616 42.864C102.872 42.624 103.176 42.504 103.528 42.504C103.88 42.504 104.176 42.624 104.416 42.864C104.672 43.104 104.8 43.416 104.8 43.8C104.8 44.168 104.672 44.48 104.416 44.736C104.176 44.992 103.88 45.12 103.528 45.12ZM113.96 45.144C113.736 45.144 113.52 45.128 113.312 45.096C113.104 45.08 112.872 45.04 112.616 44.976L112.76 43.392C113.032 43.456 113.296 43.488 113.552 43.488C114.272 43.488 114.848 43.208 115.28 42.648C115.728 42.072 116.064 41.192 116.288 40.008C116.512 38.808 116.656 37.272 116.72 35.4L116.96 28.2H128.36V45H126.608V29.256L127.064 29.736H118.088L118.52 29.232L118.304 35.352C118.24 37.032 118.12 38.488 117.944 39.72C117.768 40.936 117.512 41.952 117.176 42.768C116.84 43.568 116.408 44.168 115.88 44.568C115.352 44.952 114.712 45.144 113.96 45.144ZM139.043 36.84C140.627 36.856 141.827 37.208 142.643 37.896C143.475 38.584 143.891 39.576 143.891 40.872C143.891 42.216 143.443 43.248 142.547 43.968C141.667 44.688 140.387 45.04 138.707 45.024L133.619 45V32.4H135.323V36.792L139.043 36.84ZM138.611 43.728C139.779 43.744 140.659 43.512 141.251 43.032C141.859 42.536 142.163 41.816 142.163 40.872C142.163 39.928 141.867 39.24 141.275 38.808C140.683 38.36 139.795 38.128 138.611 38.112L135.323 38.064V43.68L138.611 43.728ZM147.143 45V32.4H152.711C154.135 32.4 155.255 32.672 156.071 33.216C156.903 33.76 157.319 34.56 157.319 35.616C157.319 36.64 156.927 37.432 156.143 37.992C155.359 38.536 154.327 38.808 153.047 38.808L153.383 38.304C154.887 38.304 155.991 38.584 156.695 39.144C157.399 39.704 157.751 40.512 157.751 41.568C157.751 42.656 157.351 43.504 156.551 44.112C155.767 44.704 154.543 45 152.879 45H147.143ZM148.799 43.656H152.807C153.879 43.656 154.687 43.488 155.231 43.152C155.791 42.8 156.071 42.24 156.071 41.472C156.071 40.704 155.823 40.144 155.327 39.792C154.831 39.44 154.047 39.264 152.975 39.264H148.799V43.656ZM148.799 37.992H152.591C153.567 37.992 154.311 37.808 154.823 37.44C155.351 37.072 155.615 36.536 155.615 35.832C155.615 35.128 155.351 34.6 154.823 34.248C154.311 33.896 153.567 33.72 152.591 33.72H148.799V37.992ZM161.744 45V32.4H163.448V45H161.744ZM162.608 29.616C162.256 29.616 161.96 29.496 161.72 29.256C161.48 29.016 161.36 28.728 161.36 28.392C161.36 28.056 161.48 27.776 161.72 27.552C161.96 27.312 162.256 27.192 162.608 27.192C162.96 27.192 163.256 27.304 163.496 27.528C163.736 27.752 163.856 28.032 163.856 28.368C163.856 28.72 163.736 29.016 163.496 29.256C163.272 29.496 162.976 29.616 162.608 29.616ZM168.307 45V32.4H173.875C175.299 32.4 176.419 32.672 177.235 33.216C178.067 33.76 178.483 34.56 178.483 35.616C178.483 36.64 178.091 37.432 177.307 37.992C176.523 38.536 175.491 38.808 174.211 38.808L174.547 38.304C176.051 38.304 177.155 38.584 177.859 39.144C178.563 39.704 178.915 40.512 178.915 41.568C178.915 42.656 178.515 43.504 177.715 44.112C176.931 44.704 175.707 45 174.043 45H168.307ZM169.963 43.656H173.971C175.043 43.656 175.851 43.488 176.395 43.152C176.955 42.8 177.235 42.24 177.235 41.472C177.235 40.704 176.987 40.144 176.491 39.792C175.995 39.44 175.211 39.264 174.139 39.264H169.963V43.656ZM169.963 37.992H173.755C174.731 37.992 175.475 37.808 175.987 37.44C176.515 37.072 176.779 36.536 176.779 35.832C176.779 35.128 176.515 34.6 175.987 34.248C175.475 33.896 174.731 33.72 173.755 33.72H169.963V37.992ZM188.188 45.12C186.94 45.12 185.82 44.848 184.828 44.304C183.852 43.744 183.084 42.984 182.524 42.024C181.964 41.048 181.684 39.936 181.684 38.688C181.684 37.424 181.964 36.312 182.524 35.352C183.084 34.392 183.852 33.64 184.828 33.096C185.82 32.552 186.94 32.28 188.188 32.28C189.26 32.28 190.228 32.488 191.092 32.904C191.956 33.32 192.636 33.944 193.132 34.776L191.86 35.64C191.428 35 190.892 34.528 190.252 34.224C189.612 33.92 188.916 33.768 188.164 33.768C187.268 33.768 186.46 33.976 185.74 34.392C185.02 34.792 184.452 35.36 184.036 36.096C183.62 36.832 183.412 37.696 183.412 38.688C183.412 39.68 183.62 40.544 184.036 41.28C184.452 42.016 185.02 42.592 185.74 43.008C186.46 43.408 187.268 43.608 188.164 43.608C188.916 43.608 189.612 43.456 190.252 43.152C190.892 42.848 191.428 42.384 191.86 41.76L193.132 42.624C192.636 43.44 191.956 44.064 191.092 44.496C190.228 44.912 189.26 45.12 188.188 45.12ZM201.856 36.84C203.44 36.856 204.64 37.208 205.456 37.896C206.288 38.584 206.704 39.576 206.704 40.872C206.704 42.216 206.256 43.248 205.36 43.968C204.48 44.688 203.2 45.04 201.52 45.024L196.432 45V32.4H198.136V36.792L201.856 36.84ZM201.424 43.728C202.592 43.744 203.472 43.512 204.064 43.032C204.672 42.536 204.976 41.816 204.976 40.872C204.976 39.928 204.68 39.24 204.088 38.808C203.496 38.36 202.608 38.128 201.424 38.112L198.136 38.064V43.68L201.424 43.728ZM219.195 45L214.011 38.76L215.427 37.92L221.211 45H219.195ZM209.955 45V32.4H211.659V45H209.955ZM211.131 39.384V37.92H215.187V39.384H211.131ZM215.571 38.88L213.987 38.64L219.003 32.4H220.851L215.571 38.88ZM231.49 45V42.216L231.418 41.76V37.104C231.418 36.032 231.114 35.208 230.506 34.632C229.914 34.056 229.026 33.768 227.842 33.768C227.026 33.768 226.25 33.904 225.514 34.176C224.778 34.448 224.154 34.808 223.642 35.256L222.874 33.984C223.514 33.44 224.282 33.024 225.178 32.736C226.074 32.432 227.018 32.28 228.01 32.28C229.642 32.28 230.898 32.688 231.778 33.504C232.674 34.304 233.122 35.528 233.122 37.176V45H231.49ZM227.146 45.12C226.202 45.12 225.378 44.968 224.674 44.664C223.986 44.344 223.458 43.912 223.09 43.368C222.722 42.808 222.538 42.168 222.538 41.448C222.538 40.792 222.69 40.2 222.994 39.672C223.314 39.128 223.826 38.696 224.53 38.376C225.25 38.04 226.21 37.872 227.41 37.872H231.754V39.144H227.458C226.242 39.144 225.394 39.36 224.914 39.792C224.45 40.224 224.218 40.76 224.218 41.4C224.218 42.12 224.498 42.696 225.058 43.128C225.618 43.56 226.402 43.776 227.41 43.776C228.37 43.776 229.194 43.56 229.882 43.128C230.586 42.68 231.098 42.04 231.418 41.208L231.802 42.384C231.482 43.216 230.922 43.88 230.122 44.376C229.338 44.872 228.346 45.12 227.146 45.12ZM236.578 48.504L237.634 44.064L237.826 45.096C237.458 45.096 237.146 44.976 236.89 44.736C236.65 44.496 236.53 44.184 236.53 43.8C236.53 43.416 236.65 43.104 236.89 42.864C237.146 42.624 237.45 42.504 237.802 42.504C238.17 42.504 238.466 42.632 238.69 42.888C238.93 43.144 239.05 43.448 239.05 43.8C239.05 43.928 239.042 44.056 239.026 44.184C239.01 44.312 238.978 44.456 238.93 44.616C238.882 44.776 238.818 44.968 238.738 45.192L237.73 48.504H236.578ZM250.778 45V28.92L251.546 29.736H246.818V28.2H252.506V45H250.778ZM261.825 45.144C260.625 45.144 259.481 44.952 258.393 44.568C257.305 44.168 256.441 43.64 255.801 42.984L256.641 41.616C257.169 42.176 257.889 42.64 258.801 43.008C259.729 43.376 260.729 43.56 261.801 43.56C263.225 43.56 264.305 43.248 265.041 42.624C265.793 41.984 266.169 41.152 266.169 40.128C266.169 39.408 265.993 38.792 265.641 38.28C265.305 37.752 264.729 37.344 263.913 37.056C263.097 36.768 261.977 36.624 260.553 36.624H256.977L257.841 28.2H267.033V29.736H258.537L259.425 28.896L258.681 35.952L257.793 35.088H260.937C262.633 35.088 263.993 35.296 265.017 35.712C266.041 36.128 266.777 36.712 267.225 37.464C267.689 38.2 267.921 39.064 267.921 40.056C267.921 41 267.697 41.864 267.249 42.648C266.801 43.416 266.129 44.024 265.233 44.472C264.337 44.92 263.201 45.144 261.825 45.144ZM276.955 45.144C275.931 45.144 275.019 44.976 274.219 44.64C273.435 44.304 272.763 43.792 272.203 43.104C271.643 42.416 271.219 41.568 270.931 40.56C270.643 39.536 270.499 38.352 270.499 37.008C270.499 35.808 270.611 34.76 270.835 33.864C271.059 32.952 271.371 32.168 271.771 31.512C272.171 30.856 272.635 30.304 273.163 29.856C273.707 29.392 274.291 29.024 274.915 28.752C275.555 28.464 276.211 28.248 276.883 28.104L282.547 26.784L282.835 28.368L277.507 29.568C277.171 29.648 276.763 29.76 276.283 29.904C275.819 30.048 275.339 30.264 274.843 30.552C274.363 30.84 273.915 31.24 273.499 31.752C273.083 32.264 272.747 32.928 272.491 33.744C272.251 34.544 272.131 35.544 272.131 36.744C272.131 37 272.139 37.208 272.155 37.368C272.171 37.512 272.187 37.672 272.203 37.848C272.235 38.008 272.259 38.248 272.275 38.568L271.531 37.944C271.707 36.968 272.067 36.12 272.611 35.4C273.155 34.664 273.835 34.096 274.651 33.696C275.483 33.28 276.403 33.072 277.411 33.072C278.579 33.072 279.619 33.328 280.531 33.84C281.443 34.336 282.155 35.032 282.667 35.928C283.195 36.824 283.459 37.864 283.459 39.048C283.459 40.216 283.187 41.264 282.643 42.192C282.115 43.12 281.363 43.848 280.387 44.376C279.411 44.888 278.267 45.144 276.955 45.144ZM277.147 43.728C278.043 43.728 278.835 43.528 279.523 43.128C280.211 42.712 280.747 42.152 281.131 41.448C281.531 40.744 281.731 39.952 281.731 39.072C281.731 38.208 281.531 37.44 281.131 36.768C280.747 36.096 280.211 35.568 279.523 35.184C278.835 34.784 278.035 34.584 277.123 34.584C276.227 34.584 275.435 34.776 274.747 35.16C274.059 35.528 273.515 36.048 273.115 36.72C272.731 37.392 272.539 38.168 272.539 39.048C272.539 39.928 272.731 40.72 273.115 41.424C273.515 42.128 274.059 42.688 274.747 43.104C275.451 43.52 276.251 43.728 277.147 43.728Z" fill="black"/>
<path d="M57.016 72V60.8H66.232V72H65.416V61.28L65.656 61.536H57.592L57.832 61.28V72H57.016ZM74.186 72.064C73.45 72.064 72.7833 71.8933 72.186 71.552C71.5993 71.2107 71.13 70.7253 70.778 70.096C70.4367 69.456 70.266 68.6987 70.266 67.824C70.266 66.9493 70.4367 66.1973 70.778 65.568C71.13 64.928 71.5993 64.4373 72.186 64.096C72.7833 63.7547 73.45 63.584 74.186 63.584C74.9753 63.584 75.6793 63.7653 76.298 64.128C76.9273 64.48 77.418 64.976 77.77 65.616C78.1327 66.256 78.314 66.992 78.314 67.824C78.314 68.656 78.1327 69.392 77.77 70.032C77.418 70.672 76.9273 71.1733 76.298 71.536C75.6793 71.888 74.9753 72.064 74.186 72.064ZM69.994 75.104V63.648H70.762V66.384L70.634 67.84L70.794 69.296V75.104H69.994ZM74.138 71.344C74.778 71.344 75.354 71.2 75.866 70.912C76.378 70.6133 76.778 70.1973 77.066 69.664C77.3647 69.1307 77.514 68.5173 77.514 67.824C77.514 67.12 77.3647 66.5067 77.066 65.984C76.778 65.4507 76.378 65.04 75.866 64.752C75.354 64.4533 74.778 64.304 74.138 64.304C73.498 64.304 72.922 64.4533 72.41 64.752C71.9087 65.04 71.5087 65.4507 71.21 65.984C70.922 66.5067 70.778 67.12 70.778 67.824C70.778 68.5173 70.922 69.1307 71.21 69.664C71.5087 70.1973 71.9087 70.6133 72.41 70.912C72.922 71.2 73.498 71.344 74.138 71.344ZM80.9155 72V63.648H81.7155V70.768L87.6675 63.648H88.3715V72H87.5715V64.88L81.6195 72H80.9155ZM91.7898 72V63.648H92.5898V72H91.7898ZM93.1818 61.84C93.0324 61.84 92.8991 61.7867 92.7818 61.68C92.6751 61.5627 92.6218 61.4293 92.6218 61.28C92.6218 61.12 92.6751 60.9867 92.7818 60.88C92.8991 60.7627 93.0324 60.704 93.1818 60.704C93.3418 60.704 93.4751 60.7573 93.5818 60.864C93.6884 60.9707 93.7418 61.1093 93.7418 61.28C93.7418 61.4293 93.6884 61.5627 93.5818 61.68C93.4751 61.7867 93.3418 61.84 93.1818 61.84ZM91.1978 61.84C91.0484 61.84 90.9151 61.7867 90.7978 61.68C90.6911 61.5627 90.6378 61.4293 90.6378 61.28C90.6378 61.12 90.6911 60.9867 90.7978 60.88C90.9151 60.7627 91.0484 60.704 91.1978 60.704C91.3578 60.704 91.4911 60.7573 91.5978 60.864C91.7044 60.9707 91.7578 61.1093 91.7578 61.28C91.7578 61.4293 91.7044 61.5627 91.5978 61.68C91.4911 61.7867 91.3578 61.84 91.1978 61.84ZM105.866 72L102.858 67.824L103.53 67.44L106.826 72H105.866ZM100.842 68.128V67.44H103.434V68.128H100.842ZM103.594 67.904L102.842 67.776L105.706 63.648H106.586L103.594 67.904ZM95.5776 72H94.6016L97.9136 67.44L98.5856 67.824L95.5776 72ZM101.114 72H100.314V63.648H101.114V72ZM100.57 68.128H97.9936V67.44H100.57V68.128ZM97.8496 67.904L94.8576 63.648H95.7376L98.6016 67.776L97.8496 67.904ZM114.612 71.616V64.368H110.26L110.164 66.448C110.143 67.0347 110.105 67.6213 110.052 68.208C109.999 68.784 109.913 69.3173 109.796 69.808C109.679 70.288 109.513 70.6773 109.3 70.976C109.097 71.2747 108.831 71.44 108.5 71.472L107.7 71.296C108.041 71.3173 108.319 71.1947 108.532 70.928C108.745 70.6507 108.911 70.2773 109.028 69.808C109.145 69.3387 109.231 68.8107 109.284 68.224C109.348 67.6267 109.396 67.0187 109.428 66.4L109.54 63.648H115.412V71.616H114.612ZM107.332 74.08V71.296H116.756V74.08H116.004V72H108.1V74.08H107.332ZM128.991 72L125.983 67.824L126.655 67.44L129.951 72H128.991ZM123.967 68.128V67.44H126.559V68.128H123.967ZM126.719 67.904L125.967 67.776L128.831 63.648H129.711L126.719 67.904ZM118.703 72H117.727L121.039 67.44L121.711 67.824L118.703 72ZM124.239 72H123.439V63.648H124.239V72ZM123.695 68.128H121.119V67.44H123.695V68.128ZM120.975 67.904L117.983 63.648H118.863L121.727 67.776L120.975 67.904ZM137.085 72V70.096L137.053 69.808V66.672C137.053 65.8933 136.839 65.3013 136.413 64.896C135.997 64.4907 135.383 64.288 134.573 64.288C133.997 64.288 133.458 64.3893 132.957 64.592C132.466 64.784 132.045 65.0347 131.693 65.344L131.293 64.768C131.709 64.3947 132.21 64.1067 132.797 63.904C133.383 63.6907 133.997 63.584 134.637 63.584C135.671 63.584 136.466 63.8453 137.021 64.368C137.575 64.8907 137.853 65.6693 137.853 66.704V72H137.085ZM134.077 72.064C133.458 72.064 132.919 71.968 132.461 71.776C132.013 71.5733 131.666 71.2907 131.421 70.928C131.186 70.5653 131.069 70.1493 131.069 69.68C131.069 69.2533 131.165 68.8693 131.357 68.528C131.559 68.176 131.89 67.8933 132.349 67.68C132.807 67.456 133.421 67.344 134.189 67.344H137.261V67.968H134.205C133.341 67.968 132.733 68.128 132.381 68.448C132.039 68.768 131.869 69.168 131.869 69.648C131.869 70.1813 132.071 70.608 132.477 70.928C132.882 71.248 133.453 71.408 134.189 71.408C134.893 71.408 135.485 71.248 135.965 70.928C136.455 70.608 136.818 70.144 137.053 69.536L137.277 70.08C137.053 70.688 136.669 71.1733 136.125 71.536C135.591 71.888 134.909 72.064 134.077 72.064ZM141.103 72V63.648H141.903V70.768L147.855 63.648H148.559V72H147.759V64.88L141.807 72H141.103ZM144.799 62.368C144.148 62.368 143.61 62.1973 143.183 61.856C142.767 61.504 142.548 61.0187 142.527 60.4H143.119C143.14 60.8373 143.306 61.184 143.615 61.44C143.935 61.696 144.33 61.824 144.799 61.824C145.268 61.824 145.658 61.696 145.967 61.44C146.287 61.184 146.452 60.8373 146.463 60.4H147.071C147.06 61.0187 146.842 61.504 146.415 61.856C145.999 62.1973 145.46 62.368 144.799 62.368ZM153.529 72V64.128L153.753 64.368H150.265V63.648H157.593V64.368H154.105L154.329 64.128V72H153.529ZM162.372 72.064C161.529 72.064 160.782 71.8827 160.132 71.52C159.492 71.1573 158.985 70.656 158.612 70.016C158.249 69.376 158.068 68.6453 158.068 67.824C158.068 66.992 158.238 66.2613 158.58 65.632C158.932 64.992 159.412 64.4907 160.02 64.128C160.628 63.7653 161.31 63.584 162.068 63.584C162.825 63.584 163.502 63.76 164.1 64.112C164.708 64.464 165.182 64.96 165.524 65.6C165.876 66.2293 166.052 66.96 166.052 67.792C166.052 67.824 166.046 67.8613 166.036 67.904C166.036 67.936 166.036 67.9733 166.036 68.016H158.66V67.392H165.604L165.284 67.696C165.294 67.0453 165.156 66.464 164.868 65.952C164.59 65.4293 164.212 65.024 163.732 64.736C163.252 64.4373 162.697 64.288 162.068 64.288C161.449 64.288 160.894 64.4373 160.404 64.736C159.924 65.024 159.545 65.4293 159.268 65.952C158.99 66.464 158.852 67.0507 158.852 67.712V67.856C158.852 68.5387 159.001 69.1467 159.299 69.68C159.609 70.2027 160.03 70.6133 160.564 70.912C161.097 71.2 161.705 71.344 162.388 71.344C162.921 71.344 163.417 71.248 163.876 71.056C164.345 70.864 164.74 70.5707 165.06 70.176L165.524 70.704C165.161 71.152 164.702 71.4933 164.148 71.728C163.604 71.952 163.012 72.064 162.372 72.064ZM178.487 71.616V64.368H174.135L174.039 66.448C174.018 67.0347 173.98 67.6213 173.927 68.208C173.874 68.784 173.788 69.3173 173.671 69.808C173.554 70.288 173.388 70.6773 173.175 70.976C172.972 71.2747 172.706 71.44 172.375 71.472L171.575 71.296C171.916 71.3173 172.194 71.1947 172.407 70.928C172.62 70.6507 172.786 70.2773 172.903 69.808C173.02 69.3387 173.106 68.8107 173.159 68.224C173.223 67.6267 173.271 67.0187 173.303 66.4L173.415 63.648H179.287V71.616H178.487ZM171.207 74.08V71.296H180.631V74.08H179.879V72H171.975V74.08H171.207ZM186.322 72.064C185.522 72.064 184.807 71.8827 184.178 71.52C183.559 71.1573 183.063 70.656 182.69 70.016C182.327 69.376 182.146 68.6453 182.146 67.824C182.146 66.992 182.327 66.2613 182.69 65.632C183.063 64.992 183.559 64.4907 184.178 64.128C184.807 63.7653 185.522 63.584 186.322 63.584C187.122 63.584 187.836 63.7653 188.466 64.128C189.095 64.4907 189.591 64.992 189.954 65.632C190.316 66.2613 190.498 66.992 190.498 67.824C190.498 68.6453 190.316 69.376 189.954 70.016C189.591 70.656 189.095 71.1573 188.466 71.52C187.836 71.8827 187.122 72.064 186.322 72.064ZM186.322 71.344C186.962 71.344 187.538 71.2 188.05 70.912C188.562 70.6133 188.962 70.1973 189.25 69.664C189.538 69.1307 189.682 68.5173 189.682 67.824C189.682 67.12 189.538 66.5067 189.25 65.984C188.962 65.4507 188.562 65.04 188.05 64.752C187.538 64.4533 186.962 64.304 186.322 64.304C185.682 64.304 185.106 64.4533 184.594 64.752C184.092 65.04 183.692 65.4507 183.394 65.984C183.106 66.5067 182.962 67.12 182.962 67.824C182.962 68.5173 183.106 69.1307 183.394 69.664C183.692 70.1973 184.092 70.6133 184.594 70.912C185.106 71.2 185.682 71.344 186.322 71.344ZM197.212 72V63.648H198.012V67.456H203.676V63.648H204.476V72H203.676V68.16H198.012V72H197.212ZM213.147 72V70.096L213.115 69.808V66.672C213.115 65.8933 212.902 65.3013 212.475 64.896C212.059 64.4907 211.446 64.288 210.635 64.288C210.059 64.288 209.52 64.3893 209.019 64.592C208.528 64.784 208.107 65.0347 207.755 65.344L207.355 64.768C207.771 64.3947 208.272 64.1067 208.859 63.904C209.446 63.6907 210.059 63.584 210.699 63.584C211.734 63.584 212.528 63.8453 213.083 64.368C213.638 64.8907 213.915 65.6693 213.915 66.704V72H213.147ZM210.139 72.064C209.52 72.064 208.982 71.968 208.523 71.776C208.075 71.5733 207.728 71.2907 207.483 70.928C207.248 70.5653 207.131 70.1493 207.131 69.68C207.131 69.2533 207.227 68.8693 207.419 68.528C207.622 68.176 207.952 67.8933 208.411 67.68C208.87 67.456 209.483 67.344 210.251 67.344H213.323V67.968H210.267C209.403 67.968 208.795 68.128 208.443 68.448C208.102 68.768 207.931 69.168 207.931 69.648C207.931 70.1813 208.134 70.608 208.539 70.928C208.944 71.248 209.515 71.408 210.251 71.408C210.955 71.408 211.547 71.248 212.027 70.928C212.518 70.608 212.88 70.144 213.115 69.536L213.339 70.08C213.115 70.688 212.731 71.1733 212.187 71.536C211.654 71.888 210.971 72.064 210.139 72.064ZM220.542 72.064C219.731 72.064 219.006 71.8827 218.366 71.52C217.736 71.1573 217.235 70.656 216.862 70.016C216.499 69.376 216.318 68.6453 216.318 67.824C216.318 66.992 216.499 66.256 216.862 65.616C217.235 64.976 217.736 64.48 218.366 64.128C219.006 63.7653 219.731 63.584 220.542 63.584C221.214 63.584 221.822 63.712 222.366 63.968C222.92 64.224 223.368 64.608 223.71 65.12L223.118 65.552C222.819 65.1253 222.446 64.8107 221.998 64.608C221.55 64.4053 221.064 64.304 220.542 64.304C219.891 64.304 219.304 64.4533 218.782 64.752C218.27 65.04 217.864 65.4507 217.566 65.984C217.278 66.5067 217.134 67.12 217.134 67.824C217.134 68.528 217.278 69.1467 217.566 69.68C217.864 70.2027 218.27 70.6133 218.782 70.912C219.304 71.2 219.891 71.344 220.542 71.344C221.064 71.344 221.55 71.2427 221.998 71.04C222.446 70.8373 222.819 70.5227 223.118 70.096L223.71 70.528C223.368 71.04 222.92 71.424 222.366 71.68C221.822 71.936 221.214 72.064 220.542 72.064Z" fill="#7B7B7B"/>
</svg>
