<svg width="386" height="386" viewBox="0 0 386 386" fill="none" xmlns="http://www.w3.org/2000/svg">
<path d="M190.938 61.3619C189.894 61.91 189.32 62.9279 183.656 75.0119C181.725 79.1095 179.35 84.1467 178.358 86.2085C177.392 88.2704 176.583 89.9929 176.583 90.019C176.583 90.0451 175.696 91.9504 174.6 94.221C173.504 96.5178 171.494 100.772 170.137 103.721C168.754 106.67 167.318 109.724 166.927 110.507C166.17 111.995 166.144 112.021 130.387 146.394C128.012 148.664 125.872 150.831 125.637 151.196C125.011 152.083 125.037 153.754 125.69 154.798C126.734 156.52 125.924 156.442 145.525 156.442H163.273V157.538C163.273 159.078 162.229 177.713 162.072 179.07C161.942 180.166 161.759 180.349 149.623 190.945C142.837 196.87 132.214 206.161 125.977 211.59C113.11 222.865 113.24 222.708 114.467 225.24C115.459 227.276 114.101 227.171 138.061 227.171H159.358V227.876C159.358 228.294 159.071 233.722 158.705 239.96C158.34 246.198 157.766 256.585 157.4 263.058C155.599 295.682 155.182 302.859 155.025 304.347L154.869 305.991H149.466C144.351 305.991 143.985 306.018 143.333 306.54C141.949 307.636 141.871 308.053 141.871 314.917C141.871 322.043 142.002 322.591 143.724 323.53C144.533 323.974 145.525 324 158.262 324C173.321 324 173.243 324 174.234 322.382C174.73 321.573 174.756 321.181 174.704 314.656L174.626 307.766L173.66 306.879L172.668 305.991H169.015C167.005 305.991 165.361 305.913 165.361 305.783C165.361 305.678 168.049 302.024 171.311 297.64C174.574 293.255 178.75 287.617 180.629 285.112C182.482 282.606 185.901 277.987 188.25 274.855L192.478 269.165L196.314 274.333C198.429 277.178 201.169 280.858 202.396 282.502C203.596 284.146 205.919 287.252 207.511 289.418C217.794 303.251 219.647 305.757 219.647 305.861C219.647 305.939 218.003 305.991 215.993 305.991H212.339L211.348 306.879L210.382 307.766L210.304 314.656C210.252 321.181 210.278 321.573 210.774 322.382C211.765 324 211.687 324 226.746 324C239.483 324 240.475 323.974 241.284 323.53C243.006 322.591 243.137 322.043 243.137 314.917C243.137 308.053 243.058 307.636 241.675 306.54C241.023 306.018 240.657 305.991 235.542 305.991H230.139L229.983 304.347C229.826 302.755 229.435 295.734 227.608 263.058C227.112 254.001 226.459 242.57 226.172 237.611C225.885 232.652 225.65 228.294 225.65 227.876V227.171H246.947C270.907 227.171 269.549 227.276 270.541 225.24C271.168 223.935 271.194 223.517 270.698 222.369C270.332 221.482 268.74 220.072 233.297 189.118C223.249 180.349 223.066 180.166 222.936 179.07C222.779 177.791 221.735 158.869 221.735 157.408V156.442H239.483C259.083 156.442 258.274 156.52 259.318 154.798C259.971 153.754 259.997 152.083 259.371 151.196C258.927 150.543 255.534 147.255 231.235 123.922L218.708 111.864L216.411 106.958C209.469 92.1592 199.681 71.4102 197.071 65.9815C195.792 63.3194 194.957 61.8839 194.514 61.5707C193.47 60.8921 192.008 60.8138 190.938 61.3619ZM193.731 75.1946C194.331 76.4734 197.698 83.6508 201.247 91.1935C204.797 98.7362 208.268 106.096 208.973 107.558C209.651 109.045 210.173 110.246 210.121 110.246C202.97 110.35 174.913 110.168 174.939 110.011C174.991 109.802 179.533 100.093 182.899 93.0205C183.63 91.5067 185.013 88.5836 185.979 86.4956C186.945 84.4077 188.302 81.5367 188.981 80.1013C189.633 78.6658 190.677 76.4734 191.251 75.1946C191.851 73.9418 192.4 72.9239 192.504 72.9239C192.608 72.9239 193.156 73.9418 193.731 75.1946ZM204.718 118.285C202.735 119.981 192.634 127.994 192.504 127.994C192.426 127.994 189.45 125.645 185.901 122.774L179.402 117.554L192.295 117.502C199.368 117.449 205.24 117.449 205.371 117.502C205.475 117.554 205.188 117.893 204.718 118.285ZM179.741 126.845C183.604 129.925 186.762 132.535 186.736 132.639C186.736 132.744 183.239 135.589 178.984 138.981C174.13 142.844 171.207 145.01 171.155 144.776C171.05 144.41 172.068 124.47 172.277 122.643C172.329 122.069 172.381 121.521 172.381 121.39C172.407 121.286 172.486 121.208 172.564 121.208C172.668 121.208 175.879 123.739 179.741 126.845ZM212.705 122.043C212.888 123.217 213.984 144.619 213.853 144.906C213.775 145.141 198.298 132.979 198.272 132.639C198.246 132.431 212.105 121.234 212.392 121.208C212.496 121.208 212.627 121.599 212.705 122.043ZM165.178 124C165.126 124.705 164.786 130.656 164.421 137.259C164.056 143.862 163.69 149.317 163.586 149.395C163.481 149.473 157.583 149.473 150.458 149.395L137.486 149.265L151.241 136.032C158.784 128.751 165.047 122.8 165.126 122.774C165.204 122.774 165.23 123.322 165.178 124ZM226.094 128.646C229.356 131.83 235.516 137.755 239.77 141.826C244.024 145.924 247.495 149.291 247.443 149.343C247.417 149.369 241.545 149.395 234.367 149.421L221.344 149.447L221.161 147.516C221.057 146.472 220.743 140.861 220.43 135.04C220.143 129.22 219.856 124.079 219.778 123.609C219.726 123.139 219.778 122.774 219.908 122.826C220.039 122.878 222.805 125.488 226.094 128.646ZM200.099 143.157C204.249 146.498 207.642 149.265 207.642 149.369C207.642 149.447 200.83 149.526 192.504 149.526C184.178 149.526 177.392 149.421 177.445 149.317C177.497 149.108 192.269 137.155 192.478 137.128C192.53 137.128 195.949 139.843 200.099 143.157ZM214.688 156.886C214.688 157.147 214.923 161.349 215.21 166.229C215.498 171.11 215.732 175.86 215.732 176.799V178.496L192.556 178.444L169.406 178.365L169.458 174.529C169.51 172.389 169.719 167.691 169.928 164.037C170.137 160.409 170.319 157.199 170.319 156.938C170.319 156.468 170.946 156.442 192.504 156.442C213.462 156.442 214.688 156.468 214.688 156.886ZM208.686 185.621C208.686 185.752 207.12 186.978 205.24 188.362C203.335 189.745 199.681 192.407 197.124 194.286L192.478 197.705L186.162 193.059C182.691 190.502 179.063 187.813 178.097 187.109C177.105 186.404 176.322 185.752 176.322 185.621C176.322 185.517 183.604 185.412 192.504 185.412C201.404 185.412 208.686 185.517 208.686 185.621ZM178.88 196.374C186.057 201.646 186.475 201.985 186.057 202.403C185.379 203.029 167.71 215.949 167.318 216.105C167.083 216.21 167.031 215.818 167.109 214.461C167.866 201.202 168.493 189.797 168.493 189.353C168.493 188.675 167.527 188.022 178.88 196.374ZM217.142 201.072C217.507 207.753 217.873 213.887 217.925 214.722C218.003 215.844 217.951 216.21 217.716 216.131C217.533 216.053 214.062 213.547 209.964 210.546C198.663 202.22 198.455 202.064 198.585 201.933C198.872 201.672 216.385 188.857 216.411 188.883C216.437 188.91 216.776 194.39 217.142 201.072ZM161.446 190.554C161.446 191.389 159.828 219.994 159.749 220.072C159.723 220.098 152.337 220.098 143.359 220.072L127.021 219.994L134.355 213.6C138.374 210.076 146.021 203.369 151.371 198.671C156.696 193.999 161.133 190.136 161.263 190.136C161.367 190.11 161.446 190.319 161.446 190.554ZM235.725 200.55C241.884 205.926 249.401 212.503 252.454 215.166L257.961 219.994L241.649 220.072C232.645 220.098 225.285 220.098 225.259 220.072C225.18 219.994 223.562 191.363 223.562 190.554C223.562 190.136 223.641 190.136 224.058 190.423C224.319 190.606 229.565 195.173 235.725 200.55ZM197.489 210.076C200.125 212.008 204.249 215.035 206.65 216.81L211.035 219.994L201.769 220.072C196.68 220.098 188.328 220.098 183.239 220.072L173.973 219.994L177.053 217.749C178.723 216.523 182.847 213.495 186.188 211.042C189.555 208.562 192.373 206.553 192.504 206.553C192.608 206.553 194.853 208.145 197.489 210.076ZM213.723 228.842C199.994 247.372 192.739 257.055 192.53 257.133C192.4 257.159 191.329 255.881 190.129 254.262C188.928 252.644 185.77 248.364 183.108 244.788C177.993 237.872 173.347 231.608 171.311 228.842L170.058 227.171H192.504H214.949L213.723 228.842ZM219.882 249.747C220.195 255.202 220.926 267.939 221.5 278.039C222.075 288.139 222.518 296.7 222.466 297.065C222.388 297.666 222.257 297.535 221.057 295.917C214.871 287.565 204.536 273.628 201.508 269.583C199.472 266.842 197.619 264.311 197.358 263.919L196.889 263.215L198.794 260.657C199.838 259.247 202.683 255.411 205.136 252.096C207.589 248.808 211.4 243.692 213.566 240.743C215.759 237.794 217.873 234.975 218.264 234.479L218.995 233.566L219.178 236.698C219.256 238.42 219.595 244.292 219.882 249.747ZM177.21 248.573C183.917 257.577 188.015 263.345 187.884 263.528C187.702 263.815 185.274 267.129 176.74 278.587C166.013 293.02 164.343 295.265 163.534 296.439C162.777 297.483 162.594 297.614 162.542 297.17C162.49 296.883 162.933 288.27 163.508 278.013C164.943 252.957 165.569 241.552 165.778 237.402C165.883 235.523 166.065 233.957 166.17 233.957C166.274 233.957 171.259 240.534 177.21 248.573ZM167.918 314.917L167.997 316.953H158.444H148.918V314.865V312.777L158.392 312.829L167.84 312.908L167.918 314.917ZM236.09 314.865V316.953H226.564H217.037V315.048C217.037 313.978 217.116 313.038 217.22 312.96C217.298 312.856 221.605 312.777 226.746 312.777H236.09V314.865Z" fill="black"/>
<path d="M125.56 168.109C111.257 177.713 92.5961 184.708 72.6823 187.866C63.2865 189.38 57.101 189.849 47.0005 189.849C39.9537 189.849 39.3795 189.875 38.5965 190.371C36.4302 191.676 36.4824 194.86 38.7009 196.296C39.3534 196.713 40.2408 196.766 48.5665 196.74C56.0309 196.74 58.6669 196.635 62.9472 196.165C88.5507 193.425 109.404 186.665 127.204 175.39C131.615 172.572 131.954 172.232 131.954 170.223C131.928 168.161 130.649 166.882 128.561 166.882C127.595 166.882 127.073 167.091 125.56 168.109Z" fill="black"/>
<path d="M254.598 167.326C253.633 167.926 253.059 168.996 253.059 170.275C253.059 172.284 253.398 172.624 258.618 175.886C263.368 178.861 273.155 183.82 278.427 185.882C292.312 191.337 305.91 194.495 323.135 196.27C326.398 196.609 329.947 196.74 336.577 196.74C344.85 196.766 345.659 196.713 346.312 196.296C348.556 194.834 348.608 191.702 346.416 190.371C345.633 189.875 345.059 189.849 338.012 189.849C329.895 189.849 325.589 189.614 318.881 188.805C296.07 186.013 275.452 178.835 259.427 168.082C257.939 167.091 257.417 166.882 256.452 166.882C255.799 166.882 254.964 167.091 254.598 167.326Z" fill="black"/>
<path d="M114.991 240.116C101.837 247.998 88.3172 253.244 72.5792 256.637C63.5489 258.569 51.3343 259.743 43.6089 259.43C40.1638 259.273 39.5896 259.326 38.7805 259.717C36.7448 260.761 36.3794 263.632 38.0759 265.172C38.7805 265.824 39.3025 266.059 40.5031 266.216C42.7998 266.503 55.9278 266.138 60.0515 265.668C75.9722 263.893 91.4491 259.613 105.464 253.062C112.642 249.721 120.733 245.128 121.281 244.057C122.638 241.552 121.385 238.968 118.723 238.733C117.575 238.629 117.261 238.733 114.991 240.116Z" fill="black"/>
<path d="M265.166 238.916C264.096 239.334 263.234 240.691 263.234 241.943C263.234 243.692 263.782 244.449 265.897 245.754C277.198 252.67 289.882 258.073 303.036 261.596C314.05 264.546 324.411 266.007 335.947 266.242C344.586 266.425 345.708 266.32 346.935 265.172C348.736 263.528 348.266 260.552 346.074 259.639C345.317 259.326 344.456 259.273 341.715 259.43C339.81 259.508 335.921 259.456 333.05 259.3C310.239 257.969 289.621 251.705 270.046 240.117C267.541 238.629 266.497 238.368 265.166 238.916Z" fill="black"/>
</svg>
