<svg width="386" height="386" viewBox="0 0 386 386" fill="none" xmlns="http://www.w3.org/2000/svg">
<path d="M180.945 234.008C181.374 234.145 181.807 234.268 182.24 234.391C187.094 235.767 191.317 238.502 195.396 241.39C195.682 241.591 195.968 241.792 196.255 241.993C200.842 245.232 205.289 248.678 209.694 252.158C210.101 252.479 210.509 252.797 210.917 253.115C212.673 254.483 214.401 255.883 216.117 257.302C217.212 258.208 218.314 259.103 219.426 259.987C220.286 260.674 221.134 261.374 221.985 262.072C222.585 262.561 223.19 263.043 223.798 263.523C224.942 264.436 226.051 265.387 227.159 266.343C228.013 267.078 228.874 267.801 229.749 268.511C231.051 269.568 232.323 270.659 233.594 271.753C235.783 273.636 237.995 275.488 240.236 277.31C241.629 278.442 243.013 279.582 244.379 280.745C246.872 282.863 249.419 284.915 251.996 286.93C253.024 287.734 254.044 288.547 255.062 289.364C259.743 293.113 264.505 296.753 269.406 300.212C269.562 300.322 269.718 300.432 269.879 300.546C278.258 306.416 287.57 308.761 297.729 307.063C299.519 306.719 301.219 306.179 302.915 305.516C303.106 305.442 303.296 305.368 303.493 305.291C304.035 305.064 304.559 304.814 305.085 304.551C305.357 304.415 305.63 304.279 305.91 304.139C309.22 302.447 312.054 300.377 314.728 297.801C315.006 297.55 315.006 297.55 315.289 297.295C317.093 295.614 318.417 293.564 319.791 291.533C319.968 291.277 320.146 291.021 320.328 290.757C320.715 290.15 320.988 289.598 321.237 288.927C321.527 288.165 321.833 287.43 322.186 286.697C322.946 284.999 323.413 283.201 323.889 281.408C324.007 280.987 324.007 280.987 324.126 280.557C325.268 275.687 325.06 269.8 323.648 265.015C323.59 264.816 323.532 264.618 323.472 264.413C321.755 258.746 318.812 254.07 314.728 249.827C314.523 249.599 314.523 249.599 314.313 249.366C310.38 245.121 304.07 241.955 298.459 240.796C298.089 240.717 297.721 240.633 297.355 240.539C295.565 240.114 293.786 240.111 291.957 240.121C291.424 240.124 290.892 240.121 290.359 240.118C278.8 240.106 270.34 246.559 261.451 253.202C261.178 253.405 260.906 253.607 260.634 253.81C256.817 256.659 253.064 259.597 249.321 262.544C248.205 263.422 247.086 264.297 245.961 265.166C245.829 265.268 245.697 265.371 245.56 265.477C244.241 266.493 243.338 266.64 241.682 266.461C240.626 265.972 239.975 265.353 239.439 264.306C239.117 263.351 239.065 262.382 239.272 261.399C239.896 260.279 240.682 259.487 241.667 258.687C241.805 258.572 241.943 258.458 242.085 258.34C243.252 257.381 244.445 256.456 245.648 255.542C246.441 254.94 247.227 254.328 248.012 253.715C254.454 248.686 260.962 243.721 267.802 239.241C268.166 239.002 268.527 238.758 268.888 238.514C270.662 237.336 272.53 236.469 274.469 235.604C274.668 235.509 274.866 235.415 275.071 235.317C276.587 234.604 278.166 234.143 279.772 233.675C279.98 233.608 280.187 233.54 280.401 233.471C283.893 232.392 287.71 232.38 291.335 232.38C291.962 232.379 292.59 232.371 293.217 232.361C297.062 232.335 300.537 233.108 304.166 234.353C304.409 234.435 304.652 234.517 304.903 234.602C306.883 235.285 308.765 236.096 310.63 237.05C310.789 237.13 310.948 237.209 311.112 237.291C311.112 237.45 311.112 237.609 311.112 237.773C311.31 237.826 311.509 237.878 311.713 237.933C312.771 238.337 313.602 238.908 314.517 239.566C314.698 239.696 314.879 239.825 315.066 239.958C316.537 241.028 317.886 242.17 319.186 243.446C319.574 243.824 319.97 244.194 320.367 244.564C323.79 247.807 326.376 251.642 328.469 255.854C328.556 256.028 328.643 256.202 328.732 256.381C330.836 260.718 332.36 265.881 332.367 270.719C332.368 270.918 332.369 271.117 332.37 271.322C332.371 271.743 332.371 272.164 332.371 272.585C332.372 273.219 332.376 273.852 332.381 274.486C332.392 277.605 332.089 280.505 331.242 283.517C331.138 283.893 331.035 284.268 330.933 284.644C330.883 284.826 330.833 285.009 330.781 285.197C330.639 285.747 330.524 286.299 330.412 286.857C330.186 287.901 329.804 288.802 329.328 289.755C329.183 290.055 329.037 290.354 328.892 290.654C328.821 290.8 328.749 290.946 328.676 291.097C328.476 291.519 328.296 291.949 328.116 292.38C327.719 293.283 327.262 294.111 326.752 294.953C326.657 295.111 326.562 295.268 326.463 295.43C322.343 302.132 316.769 307.073 309.907 310.819C309.702 310.941 309.702 310.941 309.492 311.065C308.561 311.617 307.652 312.022 306.622 312.371C305.781 312.658 304.954 312.94 304.141 313.3C298.234 315.898 290.649 315.866 284.353 314.917C284.163 314.889 283.974 314.86 283.779 314.831C279.072 314.086 274.731 312.472 270.611 310.096C270.255 309.91 269.898 309.724 269.542 309.538C267.811 308.569 266.205 307.379 264.585 306.239C264.439 306.136 264.293 306.034 264.142 305.928C260.953 303.686 257.844 301.338 254.786 298.92C254.011 298.307 253.226 297.707 252.44 297.108C251.084 296.071 249.759 294.998 248.437 293.918C247.386 293.059 246.324 292.216 245.253 291.383C243.88 290.311 242.547 289.198 241.222 288.068C240.105 287.115 238.964 286.191 237.825 285.265C236.272 284.003 234.732 282.727 233.207 281.43C232.369 280.719 231.522 280.02 230.668 279.329C229.812 278.633 228.983 277.917 228.167 277.174C227.219 276.311 226.24 275.507 225.233 274.713C224.433 274.069 223.656 273.401 222.879 272.729C221.725 271.734 220.559 270.763 219.364 269.818C218.275 268.953 217.203 268.067 216.128 267.185C215.245 266.461 214.361 265.737 213.477 265.015C213.332 264.897 213.187 264.779 213.038 264.657C210.927 262.932 208.803 261.227 206.654 259.55C206.111 259.125 205.57 258.699 205.029 258.273C204.464 257.828 203.898 257.384 203.332 256.94C203.012 256.689 202.692 256.438 202.372 256.186C199.604 254.012 196.8 251.893 193.949 249.827C193.776 249.701 193.602 249.575 193.423 249.445C188.692 246.019 183.918 242.839 178.28 241.148C178.107 241.097 177.935 241.045 177.757 240.992C169.652 238.696 160.523 240.091 153.208 244.041C152.978 244.158 152.748 244.274 152.512 244.394C145.309 248.113 139.451 255.317 136.978 263.019C135.248 268.852 134.499 275.213 136.091 281.167C136.181 281.554 136.271 281.94 136.36 282.327C137.841 288.386 141.362 294.739 146.296 298.697C146.615 298.969 146.615 298.969 146.94 299.248C146.94 299.407 146.94 299.566 146.94 299.73C147.133 299.816 147.133 299.816 147.331 299.903C147.915 300.218 148.427 300.589 148.956 300.989C152.555 303.692 157.027 306.161 161.528 306.864C161.914 306.927 162.299 306.999 162.682 307.081C164.664 307.499 166.634 307.55 168.652 307.55C168.919 307.55 168.919 307.55 169.192 307.55C173.869 307.541 178.408 306.92 182.619 304.792C182.818 304.713 183.018 304.633 183.224 304.551C186.293 303.32 189.04 301.308 191.78 299.489C191.416 298.524 191.005 297.865 190.333 297.078C184.34 289.921 184.34 289.921 184.548 287.435C185.007 286.239 185.674 285.527 186.717 284.783C187.381 284.578 187.381 284.578 188.11 284.459C188.384 284.413 188.659 284.366 188.941 284.319C189.237 284.273 189.532 284.227 189.836 284.18C190.145 284.13 190.453 284.08 190.771 284.028C194.637 283.404 198.523 282.904 202.411 282.435C202.875 282.379 203.339 282.323 203.803 282.267C204.031 282.24 204.259 282.212 204.494 282.184C206.039 281.993 207.574 281.758 209.109 281.504C214.682 280.585 214.682 280.585 217.454 280.383C217.661 280.362 217.868 280.341 218.082 280.32C219.29 280.257 219.912 280.465 220.852 281.246C221.332 281.694 221.332 281.694 221.673 282.131C221.673 282.37 221.673 282.609 221.673 282.854C221.832 282.854 221.991 282.854 222.155 282.854C222.238 284.482 222.045 285.585 221.372 287.058C221.215 287.42 221.058 287.781 220.901 288.142C220.825 288.313 220.75 288.483 220.672 288.659C220.429 289.21 220.205 289.767 219.986 290.328C219.631 291.222 219.265 292.111 218.897 293C218.32 294.394 217.749 295.788 217.213 297.198C216.376 299.399 215.478 301.577 214.545 303.739C214.225 304.491 213.93 305.247 213.642 306.013C213.101 307.432 212.511 308.825 211.901 310.217C211.552 311.051 211.256 311.893 210.96 312.748C210.387 314.273 209.625 315.156 208.173 315.882C207.072 316.026 205.981 316.139 204.988 315.584C204.203 314.915 203.425 314.216 203.27 313.155C203.267 312.941 203.264 312.727 203.261 312.507C203.254 312.298 203.247 312.089 203.24 311.874C203.408 310.648 203.864 309.556 204.316 308.408C204.41 308.168 204.504 307.928 204.602 307.681C204.9 306.928 205.203 306.176 205.506 305.425C206.147 303.833 206.786 302.241 207.389 300.634C207.874 299.357 208.444 298.129 209.025 296.893C209.479 295.891 209.867 294.869 210.254 293.839C210.893 292.173 211.586 290.529 212.271 288.881C212.098 288.908 211.925 288.935 211.746 288.962C208.779 289.417 205.817 289.867 202.827 290.153C201.184 290.315 199.556 290.558 197.926 290.819C197.735 290.849 197.545 290.879 197.348 290.91C197.18 290.937 197.012 290.964 196.84 290.992C196.36 291.051 196.36 291.051 195.396 291.051C195.554 291.25 195.712 291.449 195.874 291.654C197.15 293.267 198.409 294.891 199.645 296.536C199.77 296.702 199.896 296.869 200.025 297.04C201.222 298.64 201.222 298.64 201.272 299.88C201.284 300.077 201.296 300.274 201.308 300.477C201.033 301.997 200.174 303.029 198.941 303.919C198.551 304.179 198.157 304.435 197.761 304.687C197.346 304.96 196.931 305.234 196.517 305.507C196.32 305.635 196.124 305.762 195.921 305.894C195.327 306.284 194.75 306.694 194.175 307.113C193.089 307.877 191.962 308.573 190.831 309.267C190.655 309.375 190.48 309.483 190.299 309.594C189.751 309.927 189.199 310.254 188.646 310.578C188.336 310.76 188.336 310.76 188.02 310.947C186.432 311.851 184.841 312.483 183.101 313.034C182.859 313.113 182.618 313.193 182.368 313.275C181.65 313.508 180.93 313.732 180.208 313.953C179.898 314.053 179.898 314.053 179.581 314.154C176.15 315.188 172.54 315.258 168.983 315.249C168.784 315.249 168.586 315.249 168.381 315.249C162.28 315.23 156.8 314.106 151.312 311.426C150.666 311.113 150.021 310.835 149.351 310.578C149.351 310.419 149.351 310.26 149.351 310.096C149.148 310.039 148.945 309.982 148.736 309.924C147.776 309.566 147.013 309.089 146.171 308.514C146.013 308.407 145.855 308.3 145.692 308.19C144.272 307.216 142.937 306.161 141.636 305.033C141.32 304.761 141.32 304.761 140.997 304.483C139.737 303.377 138.592 302.238 137.538 300.935C137.355 300.71 137.172 300.485 136.983 300.253C135.498 298.393 134.202 296.44 132.986 294.395C132.747 293.996 132.503 293.6 132.258 293.206C130.086 289.503 128.992 285.103 128.136 280.926C128.094 280.763 128.051 280.601 128.007 280.433C127.545 278.52 127.573 276.601 127.578 274.644C127.578 274.047 127.573 273.45 127.567 272.853C127.551 269.139 128.174 265.706 129.191 262.137C129.258 261.888 129.325 261.64 129.394 261.383C129.792 259.968 130.285 258.703 130.973 257.404C131.272 256.814 131.51 256.221 131.744 255.602C132.224 254.369 132.858 253.287 133.575 252.178C133.703 251.979 133.831 251.78 133.963 251.576C140.167 242.059 149.586 235.457 160.681 232.952C167.257 231.85 174.597 231.95 180.945 234.008Z" fill="#1B1B1B"/>
<path d="M204.827 69.3069C205.667 69.8367 206.522 70.3997 206.879 71.3657C206.998 72.1125 206.979 72.8261 206.962 73.5822C206.959 73.7468 206.955 73.9113 206.951 74.0808C206.938 74.6241 206.922 75.1673 206.906 75.7105C206.9 75.9004 206.895 76.0903 206.889 76.2859C206.803 79.106 206.617 81.9007 206.332 84.7083C205.975 88.2292 205.685 91.7554 205.399 95.2828C205.386 95.4451 205.373 95.6074 205.359 95.7746C204.981 100.427 204.658 105.081 204.395 109.742C204.051 115.789 203.462 121.816 202.868 127.843C203.058 127.841 203.248 127.839 203.444 127.837C205.239 127.817 207.033 127.802 208.828 127.793C209.751 127.788 210.673 127.781 211.596 127.77C212.487 127.76 213.378 127.754 214.269 127.752C214.608 127.75 214.947 127.746 215.286 127.741C215.763 127.734 216.24 127.734 216.716 127.734C217.122 127.73 217.122 127.73 217.537 127.727C218.756 127.913 219.5 128.532 220.301 129.44C221.001 130.425 221.099 131.234 220.949 132.423C220.679 133.252 220.348 134.043 219.984 134.834C219.825 134.834 219.666 134.834 219.502 134.834C219.478 135.002 219.453 135.169 219.428 135.342C219.233 136.158 218.907 136.817 218.523 137.561C218.391 137.819 218.259 138.077 218.122 138.342C218.021 138.537 217.919 138.732 217.815 138.932C217.655 138.932 217.496 138.932 217.332 138.932C217.28 139.119 217.227 139.305 217.172 139.497C216.736 140.693 216.149 141.787 215.554 142.91C215.426 143.155 215.297 143.4 215.164 143.653C214.19 145.501 213.19 147.334 212.184 149.165C211.07 151.199 210.007 153.258 208.945 155.32C208.071 157.012 207.177 158.69 206.258 160.358C205.133 162.4 204.054 164.463 202.988 166.536C201.801 168.846 200.589 171.139 199.336 173.415C198.357 175.195 197.418 176.993 196.484 178.797C195.5 180.691 194.483 182.565 193.447 184.431C192.825 185.558 192.26 186.677 191.778 187.871C191.619 187.871 191.46 187.871 191.296 187.871C191.272 188.038 191.247 188.206 191.222 188.378C191.027 189.194 190.702 189.853 190.317 190.598C190.185 190.856 190.053 191.113 189.917 191.379C189.815 191.573 189.713 191.768 189.609 191.969C189.45 191.969 189.291 191.969 189.127 191.969C189.027 192.287 189.027 192.287 188.925 192.612C188.666 193.352 188.368 194.011 188.005 194.706C187.879 194.948 187.752 195.191 187.622 195.441C187.487 195.698 187.352 195.954 187.213 196.218C187.074 196.483 186.935 196.748 186.791 197.021C186.505 197.565 186.217 198.108 185.93 198.651C185.661 199.158 185.393 199.666 185.127 200.175C184.781 200.837 184.431 201.496 184.079 202.154C183.977 202.351 183.875 202.547 183.77 202.749C183.018 204.138 182.247 205.191 180.689 205.71C179.572 205.84 178.741 205.819 177.721 205.319C176.909 204.602 176.214 203.914 176.024 202.806C175.996 202.221 176.001 201.645 176.019 201.059C176.024 200.73 176.024 200.73 176.03 200.394C176.092 197.633 176.335 194.884 176.576 192.135C176.62 191.605 176.665 191.075 176.709 190.546C177.032 186.718 177.032 186.718 177.195 185.537C177.381 184.107 177.419 182.663 177.489 181.224C177.662 177.744 177.904 174.275 178.204 170.804C178.222 170.593 178.24 170.383 178.259 170.165C178.408 168.441 178.56 166.716 178.713 164.991C178.846 163.484 178.978 161.976 179.108 160.468C179.135 160.159 179.135 160.159 179.162 159.844C179.396 157.122 179.587 154.409 179.639 151.677C179.677 150.048 179.906 148.488 180.207 146.888C180.014 146.89 179.821 146.892 179.622 146.894C177.799 146.914 175.976 146.928 174.152 146.938C173.215 146.943 172.278 146.95 171.341 146.961C170.436 146.971 169.531 146.977 168.626 146.979C168.281 146.981 167.936 146.985 167.592 146.99C167.108 146.997 166.624 146.997 166.14 146.997C165.864 147 165.589 147.002 165.306 147.004C164.094 146.821 163.352 146.186 162.503 145.336C161.896 143.953 162.001 142.794 162.367 141.343C162.874 140.157 163.567 139.069 164.243 137.974C164.709 137.2 165.127 136.403 165.546 135.603C166.091 134.573 166.641 133.548 167.204 132.529C167.715 131.596 168.196 130.651 168.665 129.696C169.384 128.238 170.156 126.812 170.94 125.387C172.228 123.047 173.466 120.684 174.687 118.309C175.415 116.894 176.158 115.489 176.924 114.094C177.378 113.261 177.823 112.423 178.267 111.585C178.35 111.427 178.434 111.27 178.519 111.107C178.692 110.781 178.865 110.455 179.037 110.129C180.266 107.806 181.496 105.485 182.783 103.193C183.52 101.881 184.219 100.56 184.882 99.2087C186.312 96.3398 187.845 93.5228 189.406 90.7235C190.05 89.5617 190.66 88.3875 191.249 87.1966C191.672 86.3484 192.116 85.5118 192.562 84.6755C192.699 84.4168 192.699 84.4168 192.839 84.1529C193.128 83.6087 193.418 83.0648 193.707 82.5209C194.094 81.7928 194.481 81.0645 194.867 80.3361C194.954 80.1728 195.041 80.0095 195.131 79.8412C195.718 78.7338 196.284 77.617 196.841 76.494C197 76.494 197.159 76.494 197.323 76.494C197.367 76.229 197.367 76.229 197.412 75.9586C197.656 74.8826 198.184 73.9704 198.694 72.9984C198.796 72.7955 198.898 72.5925 199.003 72.3835C200.212 70.0675 202.054 68.2534 204.827 69.3069Z" fill="#1B1B1B"/>
<path d="M94.8572 169.001C95.2832 168.999 95.2832 168.999 95.7178 168.997C96.5008 168.994 97.2838 168.993 98.0668 168.993C98.9132 168.993 99.7597 168.99 100.606 168.987C102.454 168.982 104.302 168.98 106.15 168.978C107.304 168.978 108.459 168.976 109.613 168.974C112.812 168.97 116.01 168.966 119.209 168.965C119.516 168.965 119.516 168.965 119.829 168.965C120.243 168.965 120.657 168.965 121.072 168.965C121.38 168.965 121.38 168.965 121.695 168.964C121.901 168.964 122.107 168.964 122.319 168.964C125.658 168.963 128.997 168.957 132.337 168.948C135.768 168.939 139.2 168.934 142.631 168.934C144.556 168.934 146.482 168.932 148.407 168.925C150.046 168.919 151.685 168.917 153.323 168.921C154.159 168.923 154.995 168.922 155.83 168.917C156.737 168.912 157.643 168.914 158.55 168.919C158.945 168.914 158.945 168.914 159.347 168.909C160.947 168.927 162.125 169.166 163.332 170.272C164.002 171.403 164.238 172.343 164.055 173.647C163.505 175.001 162.84 175.688 161.507 176.334C160.399 176.725 159.278 176.671 158.115 176.661C157.697 176.663 157.697 176.663 157.271 176.665C156.502 176.667 155.733 176.666 154.965 176.662C154.134 176.659 153.303 176.662 152.472 176.665C151.033 176.668 149.595 176.667 148.156 176.665C146.073 176.661 143.99 176.664 141.908 176.668C138.525 176.674 135.142 176.677 131.759 176.676C131.557 176.676 131.355 176.676 131.146 176.676C130.327 176.676 129.507 176.676 128.687 176.676C126.432 176.676 124.176 176.676 121.921 176.677C121.719 176.677 121.517 176.677 121.309 176.677C117.939 176.678 114.569 176.682 111.2 176.688C109.123 176.691 107.046 176.692 104.969 176.689C103.546 176.687 102.122 176.688 100.699 176.691C99.878 176.692 99.0575 176.692 98.2369 176.69C97.3458 176.687 96.4548 176.689 95.5636 176.692C95.3065 176.69 95.0494 176.688 94.7845 176.686C92.2867 176.704 90.3396 177.224 88.4213 178.859C86.7465 180.62 85.8874 182.882 85.8843 185.288C85.8834 185.46 85.8825 185.631 85.8816 185.808C85.8792 186.38 85.8802 186.952 85.8811 187.523C85.8801 187.935 85.8788 188.346 85.8773 188.757C85.8746 189.641 85.8732 190.525 85.873 191.409C85.8725 192.807 85.8682 194.205 85.8632 195.603C85.8513 199.075 85.8439 202.547 85.8388 206.019C85.8348 208.718 85.8293 211.417 85.8188 214.116C85.8135 215.506 85.8116 216.895 85.8121 218.285C85.8117 219.149 85.8083 220.014 85.8041 220.878C85.8027 221.279 85.8026 221.679 85.8038 222.08C85.8053 222.627 85.8024 223.175 85.7983 223.722C85.7976 224.181 85.7976 224.181 85.7969 224.65C85.6606 225.885 85.28 226.663 84.3494 227.483C83.0866 228.114 81.9696 228.235 80.5826 227.995C79.3421 227.346 78.644 226.309 78.2321 224.996C78.1828 224.345 78.1572 223.718 78.1553 223.067C78.1528 222.876 78.1504 222.686 78.1479 222.489C78.1405 221.862 78.1364 221.235 78.1323 220.607C78.1278 220.171 78.1231 219.735 78.1182 219.299C78.1058 218.153 78.0962 217.007 78.0873 215.862C78.0776 214.692 78.0653 213.522 78.0532 212.352C78.0299 210.058 78.0095 207.764 77.9911 205.469C77.6928 205.545 77.6928 205.545 77.3885 205.622C77.1278 205.688 76.8671 205.753 76.5985 205.821C76.34 205.886 76.0815 205.951 75.8151 206.019C73.9288 206.476 72.0528 206.496 70.1217 206.516C67.5344 206.593 65.6896 207.424 63.8166 209.202C62.2843 210.952 61.8045 212.801 61.7849 215.074C61.7821 215.292 61.7794 215.51 61.7765 215.734C61.7498 218.022 61.7384 220.309 61.7281 222.597C61.7228 223.68 61.7127 224.762 61.6985 225.845C61.6812 227.156 61.6725 228.466 61.6695 229.777C61.667 230.274 61.6617 230.772 61.6532 231.269C61.6003 234.563 61.7853 237.158 63.9952 239.775C64.4508 240.235 64.9062 240.565 65.4551 240.907C65.6379 241.026 65.8206 241.144 66.0089 241.266C67.9574 242.29 69.963 242.259 72.1242 242.266C73.9364 242.282 75.5288 242.577 77.2678 243.077C77.5889 243.159 77.9102 243.24 78.2321 243.318C78.285 243.19 78.3378 243.062 78.3922 242.93C78.9341 241.723 79.3821 240.975 80.6429 240.425C81.948 240.239 82.9574 240.251 84.1385 240.862C84.4368 241.123 84.4368 241.123 84.7412 241.39C84.9574 241.569 84.9574 241.569 85.1781 241.751C85.9011 242.664 85.7419 243.876 85.7435 244.985C85.7447 245.177 85.7459 245.368 85.7472 245.565C85.7498 245.98 85.7518 246.396 85.7535 246.811C85.7563 247.47 85.761 248.129 85.7663 248.788C85.7811 250.661 85.7941 252.535 85.8022 254.409C85.8073 255.556 85.8158 256.702 85.8265 257.849C85.8299 258.285 85.832 258.72 85.8328 259.155C85.8393 262.495 86.0111 265.336 88.3337 267.94C90.7878 270.345 93.6583 270.457 96.905 270.436C97.5599 270.432 98.2145 270.433 98.8694 270.437C100.257 270.443 101.645 270.442 103.033 270.439C104.647 270.436 106.262 270.437 107.876 270.445C108.52 270.447 109.163 270.443 109.807 270.438C110.202 270.44 110.597 270.441 110.992 270.443C111.169 270.441 111.347 270.438 111.529 270.435C113.047 270.453 113.844 271.061 114.966 272.006C115.596 273.17 115.531 274.33 115.358 275.622C114.839 276.716 114.278 277.274 113.188 277.792C112.266 278.102 111.33 278.072 110.368 278.076C110.182 278.077 109.997 278.079 109.805 278.08C109.189 278.085 108.574 278.088 107.958 278.09C107.746 278.091 107.534 278.092 107.316 278.093C106.192 278.098 105.068 278.102 103.943 278.104C102.794 278.107 101.644 278.115 100.494 278.125C99.6012 278.131 98.7081 278.133 97.8149 278.134C97.3919 278.135 96.9689 278.138 96.5459 278.142C91.3154 278.195 86.8191 277.317 82.8898 273.589C81.8435 272.432 80.9948 271.153 80.1607 269.836C80.0318 269.638 79.9028 269.44 79.7699 269.236C79.3861 268.538 79.1552 267.857 78.9252 267.094C78.845 266.834 78.7649 266.573 78.6823 266.305C78.2814 264.756 78.1981 263.254 78.1897 261.664C78.1842 261.251 78.1783 260.838 78.1723 260.425C78.1639 259.782 78.1568 259.139 78.1536 258.496C78.2477 254.883 78.2477 254.883 76.6121 251.799C76.2032 251.415 75.8093 251.098 75.3392 250.792C75.141 250.661 74.9427 250.53 74.7384 250.396C73.5155 249.922 72.3601 249.982 71.0601 249.978C66.0583 249.866 62.0684 248.592 58.464 245.006C58.2374 244.792 58.2374 244.792 58.0063 244.573C55.5064 242.011 54.0099 238.085 54.0272 234.556C54.0247 234.197 54.0247 234.197 54.0222 233.83C54.0178 233.044 54.0187 232.259 54.0201 231.473C54.019 230.922 54.0177 230.371 54.0162 229.82C54.0141 228.667 54.0147 227.513 54.0171 226.36C54.0198 224.89 54.015 223.42 54.0079 221.95C54.0035 220.812 54.0036 219.675 54.0049 218.537C54.005 217.995 54.0035 217.454 54.0005 216.912C53.9751 211.569 54.8441 207.284 58.705 203.3C59.6307 202.514 60.5969 201.815 61.5979 201.13C61.8343 200.948 61.8343 200.948 62.0754 200.762C64.7349 198.83 68.2655 198.835 71.4066 198.862C73.5658 198.845 75.0601 198.282 76.7706 196.971C77.9952 195.339 78.0896 193.534 78.0636 191.557C78.0654 191.057 78.0675 190.558 78.0697 190.058C78.0692 189.285 78.0665 188.511 78.0597 187.738C78.0294 183.238 78.4824 178.984 81.3661 175.335C81.5392 175.113 81.7123 174.891 81.8906 174.663C83.9774 172.183 86.6592 170.398 89.8037 169.549C89.9486 169.509 90.0935 169.469 90.2427 169.428C91.7896 169.04 93.2678 168.997 94.8572 169.001Z" fill="#1B1B1B"/>
<path d="M197.804 91.2002C197.884 91.2002 197.963 91.2002 198.045 91.2002C198.06 92.6711 198.011 94.117 197.895 95.5829C197.872 95.891 197.872 95.891 197.848 96.2055C197.799 96.8574 197.749 97.5093 197.699 98.1612C197.633 99.0144 197.568 99.8675 197.504 100.721C197.488 100.932 197.472 101.144 197.455 101.361C197.351 102.781 197.268 104.2 197.198 105.621C197.106 107.481 196.971 109.332 196.808 111.187C196.728 112.105 196.651 113.023 196.574 113.941C196.557 114.141 196.54 114.34 196.523 114.545C196.31 117.074 196.1 119.603 195.896 122.133C195.853 122.669 195.809 123.204 195.764 123.74C195.559 126.2 195.356 128.663 195.306 131.133C195.298 131.444 195.291 131.754 195.284 132.075C195.417 133.09 195.69 133.579 196.358 134.353C197.68 135.337 199.213 135.19 200.793 135.199C201.08 135.204 201.367 135.208 201.662 135.212C202.576 135.225 203.49 135.234 204.403 135.242C205.024 135.25 205.645 135.258 206.265 135.267C207.784 135.287 209.303 135.304 210.822 135.317C210.44 136.288 210.009 137.216 209.541 138.15C209.403 138.427 209.265 138.704 209.122 138.99C208.788 139.645 208.437 140.289 208.078 140.93C207.393 142.154 206.75 143.398 206.106 144.644C205.138 146.509 204.151 148.362 203.138 150.203C201.879 152.49 200.674 154.801 199.487 157.126C198.696 158.668 197.865 160.175 196.976 161.664C196.601 162.313 196.264 162.97 195.936 163.643C195.275 164.994 194.555 166.307 193.826 167.621C193.119 168.896 192.417 170.168 191.777 171.478C191.142 172.778 190.445 174.04 189.743 175.305C188.818 176.973 187.934 178.651 187.093 180.363C186.517 181.517 185.896 182.646 185.268 183.773C185.189 183.773 185.109 183.773 185.027 183.773C184.969 181.269 185.127 178.819 185.343 176.327C185.879 170.116 186.328 163.898 186.779 157.68C186.856 156.615 186.934 155.551 187.012 154.486C187.106 153.21 187.199 151.934 187.291 150.657C187.326 150.181 187.36 149.705 187.396 149.229C187.975 145.077 187.975 145.077 187.332 141.088C186.392 140.01 185.282 139.735 183.876 139.585C183.131 139.55 182.389 139.537 181.643 139.533C181.374 139.529 181.104 139.524 180.826 139.52C179.971 139.507 179.117 139.499 178.262 139.491C177.679 139.483 177.097 139.474 176.514 139.466C175.093 139.445 173.672 139.429 172.25 139.415C172.53 138.523 172.836 137.712 173.293 136.896C173.405 136.695 173.517 136.494 173.631 136.287C173.752 136.071 173.873 135.856 173.998 135.633C175.137 133.576 176.237 131.502 177.313 129.411C178.444 127.213 179.603 125.035 180.796 122.87C181.925 120.814 183 118.731 184.067 116.642C184.859 115.099 185.696 113.595 186.578 112.102C187.05 111.287 187.466 110.46 187.875 109.612C188.591 108.128 188.591 108.128 189.125 107.593C189.291 107.209 189.456 106.823 189.616 106.436C190.107 105.317 190.696 104.244 191.265 103.164C191.389 102.925 191.514 102.686 191.642 102.44C192.632 100.55 193.647 98.6797 194.745 96.8504C195.543 95.4931 196.251 94.1008 196.942 92.6871C197.541 91.4633 197.541 91.4633 197.804 91.2002Z" fill="#FBFBFB"/>
<path d="M219.475 168.764C219.824 168.762 219.824 168.762 220.18 168.759C220.434 168.76 220.687 168.761 220.949 168.762C221.355 168.76 221.355 168.76 221.77 168.758C222.68 168.755 223.59 168.756 224.5 168.756C225.152 168.755 225.804 168.753 226.456 168.751C228.044 168.747 229.633 168.746 231.221 168.746C232.514 168.745 233.806 168.744 235.099 168.743C238.768 168.739 242.436 168.736 246.105 168.737C246.303 168.737 246.501 168.737 246.704 168.737C247.001 168.737 247.001 168.737 247.304 168.737C250.508 168.737 253.711 168.732 256.914 168.726C260.207 168.719 263.5 168.715 266.793 168.716C268.64 168.716 270.487 168.715 272.335 168.709C273.909 168.705 275.483 168.704 277.057 168.707C277.859 168.709 278.66 168.708 279.462 168.705C282.766 168.691 285.772 168.749 288.93 169.79C289.12 169.844 289.311 169.898 289.507 169.954C293.319 171.039 295.975 174.5 297.85 177.746C298.029 178.019 298.029 178.019 298.213 178.297C299.946 181.447 299.403 185.876 299.393 189.334C299.391 190.178 299.393 191.021 299.394 191.864C299.395 193.276 299.394 194.689 299.39 196.101C299.386 197.731 299.388 199.36 299.392 200.99C299.395 202.396 299.395 203.803 299.393 205.209C299.392 206.046 299.392 206.883 299.395 207.72C299.397 208.651 299.394 209.581 299.39 210.512C299.391 210.787 299.392 211.062 299.394 211.345C299.382 212.892 299.302 214.072 298.211 215.268C297.124 216.115 296.364 216.403 294.972 216.388C294.16 216.274 293.651 215.861 293.028 215.354C292.889 215.244 292.75 215.135 292.606 215.022C291.562 213.664 291.757 211.918 291.765 210.299C291.764 210.01 291.764 209.72 291.763 209.422C291.762 208.631 291.763 207.839 291.765 207.048C291.765 206.216 291.763 205.384 291.76 204.553C291.751 201.723 291.746 198.893 291.749 196.063C291.751 194.499 291.748 192.934 291.74 191.37C291.736 190.544 291.735 189.718 291.739 188.892C291.742 187.968 291.738 187.045 291.733 186.121C291.737 185.718 291.737 185.718 291.741 185.306C291.714 182.994 291.067 180.541 289.39 178.851C286.283 176.272 283.135 176.55 279.274 176.587C278.612 176.588 277.949 176.587 277.287 176.585C275.865 176.583 274.444 176.587 273.022 176.595C270.965 176.607 268.908 176.608 266.85 176.607C263.509 176.604 260.167 176.608 256.826 176.618C256.626 176.618 256.427 176.619 256.221 176.619C255.412 176.621 254.603 176.624 253.795 176.626C251.566 176.632 249.337 176.637 247.108 176.642C246.908 176.642 246.708 176.643 246.502 176.643C243.171 176.65 239.84 176.651 236.509 176.65C234.456 176.65 232.404 176.654 230.352 176.664C228.947 176.67 227.541 176.673 226.136 176.672C225.326 176.672 224.516 176.674 223.705 176.68C222.826 176.687 221.947 176.686 221.068 176.683C220.813 176.687 220.558 176.691 220.296 176.695C218.68 176.68 217.618 176.379 216.366 175.335C215.496 174.381 215.33 173.503 215.349 172.215C215.479 170.988 216.16 170.074 217.089 169.308C217.914 168.921 218.567 168.766 219.475 168.764Z" fill="#1C1C1C"/>
<path d="M218.3 168.826C225.065 168.818 231.83 168.813 238.595 168.811C238.844 168.811 239.092 168.811 239.348 168.81C263.931 168.8 263.931 168.8 275.615 168.946C275.846 168.949 276.077 168.952 276.315 168.955C278.915 168.988 281.514 169.024 284.113 169.067C284.113 169.146 284.113 169.226 284.113 169.308C282.93 169.615 281.761 169.586 280.548 169.587C280.189 169.589 280.189 169.589 279.823 169.591C279.021 169.594 278.218 169.596 277.416 169.599C276.841 169.601 276.266 169.603 275.691 169.606C274.291 169.612 272.891 169.616 271.492 169.621C269.863 169.626 268.234 169.632 266.605 169.639C263.701 169.65 260.796 169.66 257.891 169.67C255.07 169.68 252.248 169.69 249.427 169.7C249.253 169.701 249.079 169.702 248.9 169.702C248.027 169.706 247.155 169.709 246.282 169.712C239.044 169.74 231.806 169.765 224.568 169.79C224.727 169.949 224.886 170.108 225.05 170.272C224.99 170.769 224.99 170.769 224.809 171.237C224.57 171.356 224.57 171.356 224.327 171.478C224.051 171.246 224.051 171.246 223.769 171.011C223.15 170.479 223.15 170.479 222.398 170.272C222.398 170.034 222.398 169.795 222.398 169.549C220.966 169.549 219.534 169.549 218.059 169.549C218.138 169.31 218.218 169.072 218.3 168.826Z" fill="#222222"/>
<path d="M218.298 128.084C218.139 128.084 217.979 128.084 217.816 128.084C217.736 128.243 217.656 128.402 217.574 128.566C217.104 128.558 217.104 128.558 216.623 128.549C216.207 128.545 215.791 128.54 215.375 128.536C215.168 128.532 214.962 128.528 214.749 128.524C213.581 128.515 212.645 128.591 211.548 129.048C211.548 128.81 211.548 128.571 211.548 128.325C210.147 128.564 209.528 129.322 208.723 130.415C208.343 130.996 208.343 130.996 208.429 131.836C208.503 132.03 208.578 132.224 208.655 132.424C208.511 132.518 208.366 132.612 208.218 132.71C207.627 133.199 207.336 133.686 206.967 134.352C206.888 134.432 206.808 134.511 206.726 134.593C207.999 134.673 209.272 134.752 210.583 134.834C210.583 134.914 210.583 134.993 210.583 135.075C207.322 135.075 204.06 135.075 200.699 135.075C200.819 134.717 200.819 134.717 200.94 134.352C201.259 134.352 201.577 134.352 201.905 134.352C202.064 134.034 202.223 133.716 202.387 133.388C202.625 133.388 202.864 133.388 203.11 133.388C203.03 133.07 202.951 132.751 202.869 132.424C203.132 132.174 203.399 131.929 203.667 131.685C203.816 131.548 203.964 131.411 204.117 131.27C204.262 131.173 204.407 131.077 204.556 130.977C204.795 131.057 205.034 131.136 205.28 131.218C205.039 131.7 204.797 132.182 204.556 132.665C204.701 132.54 204.845 132.416 204.993 132.288C205.167 132.174 205.341 132.059 205.521 131.941C205.759 132.021 205.998 132.1 206.244 132.182C206.122 132.705 206.003 133.147 205.762 133.629C206.08 133.39 206.398 133.152 206.726 132.906C206.612 131.882 206.011 131.411 205.28 130.736C205.439 130.338 205.598 129.94 205.762 129.531C205.921 129.531 206.08 129.531 206.244 129.531C206.403 129.212 206.562 128.894 206.726 128.566C205.055 128.447 205.055 128.447 203.351 128.325C203.351 128.246 203.351 128.166 203.351 128.084C205.193 128.047 207.035 128.011 208.877 127.977C209.732 127.962 210.588 127.945 211.443 127.928C212.426 127.908 213.409 127.89 214.392 127.872C214.7 127.866 215.007 127.859 215.324 127.853C215.609 127.848 215.893 127.843 216.187 127.838C216.438 127.833 216.689 127.828 216.948 127.823C217.574 127.843 217.574 127.843 218.298 128.084Z" fill="#2E2E2E"/>
<path d="M218.3 168.826C232.62 168.826 246.939 168.826 261.693 168.826C261.693 168.906 261.693 168.985 261.693 169.067C249.641 169.187 249.641 169.187 237.345 169.308C237.345 169.388 237.345 169.467 237.345 169.549C233.128 169.629 228.912 169.709 224.568 169.79C224.727 169.95 224.886 170.109 225.05 170.273C224.99 170.77 224.99 170.77 224.809 171.237C224.57 171.356 224.57 171.356 224.327 171.478C224.051 171.247 224.051 171.247 223.769 171.011C223.15 170.479 223.15 170.479 222.398 170.273C222.398 170.034 222.398 169.795 222.398 169.549C220.966 169.549 219.534 169.549 218.059 169.549C218.138 169.311 218.218 169.072 218.3 168.826Z" fill="#313131"/>
<path d="M146.939 299.248C146.939 299.407 146.939 299.566 146.939 299.73C147.178 299.809 147.417 299.889 147.662 299.971C146.983 301.493 146.155 302.619 145.011 303.828C145.329 303.908 145.647 303.987 145.975 304.069C145.975 304.387 145.975 304.706 145.975 305.033C145.5 305.497 145.5 305.497 144.89 305.937C144.689 306.085 144.487 306.233 144.28 306.386C144.123 306.496 143.967 306.607 143.805 306.721C143.493 306.496 143.182 306.27 142.871 306.043C142.698 305.917 142.524 305.791 142.346 305.662C141.877 305.274 141.877 305.274 141.395 304.551C141.713 304.631 142.031 304.71 142.359 304.792C142.59 303.777 142.632 303.284 142.118 302.382C142.494 302.04 142.871 301.698 143.248 301.357C143.458 301.167 143.667 300.977 143.883 300.781C145.773 299.114 145.773 299.114 146.939 299.248Z" fill="#303030"/>
<path d="M149.83 241.631C149.99 241.79 150.149 241.949 150.313 242.113C150.222 242.987 150.222 242.987 150.072 243.801C150.628 243.801 151.185 243.801 151.759 243.801C151.716 244.349 151.716 244.349 151.518 245.006C150.974 245.467 150.974 245.467 150.282 245.88C150.044 246.023 149.806 246.165 149.56 246.312C148.779 246.742 148.012 247.102 147.179 247.417C146.455 246.272 146.455 246.272 146.455 245.729C146.301 245.665 146.147 245.6 145.988 245.533C145.491 245.247 145.491 245.247 145.25 244.524C146.015 243.737 146.8 243.034 147.661 242.354C147.775 242.215 147.889 242.076 148.007 241.932C148.598 241.459 149.102 241.554 149.83 241.631Z" fill="#2F2F2F"/>
<path d="M107.404 173.165C107.563 173.165 107.722 173.165 107.886 173.165C108.005 174.12 108.005 174.12 108.127 175.094C109.002 175.253 109.877 175.412 110.779 175.576C110.779 175.655 110.779 175.735 110.779 175.817C123.587 175.896 136.395 175.976 149.592 176.058C149.592 176.137 149.592 176.217 149.592 176.299C130.737 176.299 111.883 176.299 92.457 176.299C92.457 176.219 92.457 176.14 92.457 176.058C96.5939 176.058 100.731 176.058 104.993 176.058C105.152 175.74 105.311 175.422 105.475 175.094C105.952 175.173 106.43 175.253 106.922 175.335C106.922 174.778 106.922 174.221 106.922 173.647C107.081 173.647 107.24 173.647 107.404 173.647C107.404 173.488 107.404 173.329 107.404 173.165Z" fill="#2D2D2D"/>
<path d="M159.233 233.917C159.147 234.693 158.965 234.907 158.389 235.469C157.575 236.303 157.555 236.843 157.53 237.97C157.535 238.144 157.54 238.318 157.545 238.497C157.123 238.678 157.123 238.678 156.581 238.738C156.039 238.301 156.039 238.301 155.617 237.774C155.617 237.615 155.617 237.456 155.617 237.292C155.482 237.232 155.348 237.172 155.21 237.111C154.355 236.649 153.65 236.048 152.965 235.363C153.116 235.319 153.268 235.275 153.424 235.23C154.742 234.843 156.023 234.411 157.304 233.917C158.097 233.652 158.44 233.724 159.233 233.917Z" fill="#313131"/>
<path d="M297.55 311.693C298.333 311.784 298.333 311.784 298.574 312.025C298.532 312.674 298.425 313.309 298.333 313.953C298.652 314.033 298.97 314.113 299.298 314.195C298.582 314.195 297.866 314.195 297.128 314.195C297.208 313.876 297.287 313.558 297.369 313.23C297.225 313.305 297.081 313.379 296.932 313.456C296.405 313.712 296.405 313.712 295.682 313.953C295.682 314.113 295.682 314.272 295.682 314.436C295.92 314.515 296.159 314.595 296.405 314.677C294.021 316.266 289.118 315.457 286.348 315.282C285.797 315.159 285.797 315.159 285.074 314.436C289.728 314.555 289.728 314.555 294.476 314.677C294.476 314.438 294.476 314.199 294.476 313.953C294.635 313.953 294.794 313.953 294.958 313.953C295.013 313.819 295.068 313.685 295.124 313.547C295.75 312.443 296.253 311.823 297.55 311.693Z" fill="#2D2D2D"/>
<path d="M307.009 303.587C307.168 303.746 307.327 303.905 307.491 304.069C307.252 304.427 307.252 304.427 307.009 304.792C306.974 304.991 306.939 305.19 306.904 305.395C306.768 305.998 306.768 305.998 306.391 306.314C305.805 307.002 306.002 307.773 306.045 308.649C305.623 308.83 305.623 308.83 305.08 308.891C304.538 308.454 304.538 308.454 304.116 307.926C304.116 307.767 304.116 307.608 304.116 307.444C303.877 307.444 303.639 307.444 303.393 307.444C303.234 307.205 303.075 306.967 302.911 306.721C302.672 306.641 302.433 306.562 302.188 306.48C302.188 306.241 302.188 306.002 302.188 305.757C302.374 305.681 302.56 305.605 302.753 305.527C304.203 304.931 305.618 304.309 307.009 303.587Z" fill="#2E2E2E"/>
<path d="M217.333 282.613C217.333 283.329 217.333 284.045 217.333 284.783C218.208 284.783 219.083 284.783 219.985 284.783C219.905 285.101 219.826 285.419 219.744 285.747C218.948 285.747 218.153 285.747 217.333 285.747C217.333 286.065 217.333 286.384 217.333 286.712C217.492 286.712 217.651 286.712 217.815 286.712C217.736 287.03 217.656 287.348 217.574 287.676C217.171 287.871 217.171 287.871 216.61 287.917C215.988 287.413 215.988 287.413 215.344 286.727C215.129 286.501 214.914 286.275 214.693 286.042C214.53 285.865 214.367 285.688 214.199 285.506C214.44 284.783 214.44 284.783 214.938 284.497C215.092 284.432 215.246 284.367 215.405 284.301C215.405 284.46 215.405 284.619 215.405 284.783C215.643 284.783 215.882 284.783 216.128 284.783C216.128 284.147 216.128 283.51 216.128 282.854C216.851 282.613 216.851 282.613 217.333 282.613Z" fill="#2F2F2F"/>
<path d="M315.208 240.185C315.52 240.415 315.831 240.646 316.142 240.878C316.316 241.006 316.489 241.135 316.668 241.268C317.137 241.631 317.137 241.631 317.619 242.113C317.39 242.396 317.158 242.677 316.926 242.957C316.797 243.114 316.669 243.27 316.536 243.432C316.416 243.553 316.296 243.675 316.172 243.801C316.013 243.801 315.854 243.801 315.69 243.801C315.611 244.039 315.531 244.278 315.449 244.524C315.051 244.444 314.654 244.365 314.244 244.283C314.244 244.124 314.244 243.965 314.244 243.801C314.085 243.801 313.926 243.801 313.762 243.801C313.249 243.349 313.249 243.349 312.797 242.836C312.797 242.677 312.797 242.518 312.797 242.354C312.559 242.275 312.32 242.195 312.074 242.113C312.466 241.405 312.466 241.405 313.039 240.667C313.822 240.456 313.822 240.456 314.485 240.426C314.41 240.57 314.336 240.714 314.259 240.863C313.978 241.412 313.978 241.412 313.762 242.113C314.239 241.795 314.716 241.477 315.208 241.149C315.526 241.388 315.845 241.626 316.172 241.872C316.172 241.713 316.172 241.554 316.172 241.39C315.934 241.31 315.695 241.231 315.449 241.149C315.284 240.652 315.284 240.652 315.208 240.185Z" fill="#303030"/>
<path d="M295.2 204.022C295.359 204.022 295.518 204.022 295.682 204.022C295.762 204.659 295.841 205.295 295.923 205.951C296.719 206.11 297.514 206.269 298.334 206.433C298.334 206.672 298.334 206.911 298.334 207.156C297.621 207.513 296.949 207.412 296.164 207.398C296.164 207.954 296.164 208.511 296.164 209.085C295.687 209.324 295.687 209.324 295.2 209.567C294.868 209.256 294.547 208.934 294.236 208.603C294.236 208.444 294.236 208.285 294.236 208.121C293.917 207.962 293.599 207.803 293.271 207.639C293.271 207.479 293.271 207.32 293.271 207.156C293.112 207.156 292.953 207.156 292.789 207.156C292.869 206.838 292.948 206.52 293.03 206.192C293.348 206.192 293.667 206.192 293.994 206.192C293.994 206.351 293.994 206.51 293.994 206.674C294.154 206.595 294.313 206.515 294.477 206.433C294.589 205.976 294.589 205.976 294.627 205.454C294.657 205.141 294.687 204.827 294.718 204.505C294.877 204.505 295.036 204.505 295.2 204.505C295.2 204.346 295.2 204.186 295.2 204.022Z" fill="#2F2F2F"/>
<path d="M292.066 183.531C292.146 183.531 292.226 183.531 292.307 183.531C292.307 191.487 292.307 199.442 292.307 207.639C292.546 207.718 292.785 207.798 293.031 207.88C293.361 208.192 293.684 208.512 293.995 208.844C293.836 209.242 293.677 209.64 293.513 210.05C293.195 209.97 292.876 209.89 292.549 209.808C292.469 210.922 292.389 212.036 292.307 213.184C292.228 213.184 292.148 213.184 292.066 213.184C292.066 203.398 292.066 193.613 292.066 183.531Z" fill="#2F2F2F"/>
<path d="M299.778 309.132C300.017 309.211 300.256 309.291 300.502 309.373C300.382 309.482 300.263 309.592 300.14 309.704C299.724 310.066 299.724 310.066 299.778 310.578C299.938 310.658 300.097 310.737 300.261 310.819C300.261 310.66 300.261 310.501 300.261 310.337C300.579 310.258 300.897 310.178 301.225 310.096C301.304 310.335 301.384 310.573 301.466 310.819C301.307 310.819 301.148 310.819 300.984 310.819C300.904 311.138 300.825 311.456 300.743 311.784C300.981 311.784 301.22 311.784 301.466 311.784C301.546 311.545 301.625 311.306 301.707 311.06C301.946 311.06 302.184 311.06 302.43 311.06C302.519 312.091 302.288 312.625 301.707 313.471C301.866 313.63 302.025 313.789 302.189 313.953C300.351 314.435 300.351 314.435 299.537 314.435C299.537 314.276 299.537 314.117 299.537 313.953C300.373 313.834 300.373 313.834 301.225 313.712C301.225 313.553 301.225 313.394 301.225 313.23C300.907 313.23 300.588 313.23 300.261 313.23C300.261 313.071 300.261 312.912 300.261 312.748C300.102 312.748 299.942 312.748 299.778 312.748C299.764 312.599 299.749 312.45 299.733 312.296C299.579 311.717 299.579 311.717 298.92 311.482C298.726 311.423 298.532 311.363 298.332 311.302C298.446 310.277 299.047 309.807 299.778 309.132Z" fill="#333333"/>
<path d="M153.208 236.568C153.526 236.648 153.845 236.727 154.172 236.809C154.025 237.523 153.87 237.865 153.449 238.497C153.593 238.373 153.738 238.248 153.886 238.12C154.147 237.949 154.147 237.949 154.414 237.774C154.652 237.853 154.891 237.933 155.137 238.015C154.978 238.492 154.819 238.969 154.655 239.461C154.893 239.302 155.132 239.143 155.378 238.979C155.696 238.979 156.014 238.979 156.342 238.979C156.263 239.297 156.183 239.616 156.101 239.943C155.942 239.943 155.783 239.943 155.619 239.943C155.619 240.103 155.619 240.262 155.619 240.426C155.38 240.426 155.142 240.426 154.896 240.426C154.896 240.664 154.896 240.903 154.896 241.149C154.657 241.149 154.418 241.149 154.172 241.149C154.172 240.91 154.172 240.671 154.172 240.426C154.03 240.364 153.887 240.303 153.739 240.239C152.873 239.757 152.384 239.02 151.762 238.256C152.239 237.699 152.716 237.142 153.208 236.568Z" fill="#2E2E2E"/>
<path d="M151.759 238.979C151.548 240.125 151.548 240.125 151.277 240.667C151.421 240.543 151.566 240.418 151.714 240.29C151.975 240.119 151.975 240.119 152.241 239.944C152.48 240.023 152.719 240.103 152.965 240.185C152.724 240.667 152.483 241.149 152.241 241.631C152.719 241.393 153.196 241.154 153.688 240.908C153.767 241.306 153.847 241.704 153.929 242.113C153.69 242.193 153.452 242.273 153.206 242.355C152.914 242.837 152.914 242.837 152.724 243.319C151.695 243.205 151.235 242.606 150.554 241.872C150.405 241.758 150.256 241.644 150.102 241.526C149.831 241.149 149.831 241.149 149.861 240.426C150.216 239.208 150.475 238.979 151.759 238.979Z" fill="#2F2F2F"/>
<path d="M302.191 306.721C302.351 306.8 302.51 306.88 302.674 306.962C302.674 307.121 302.674 307.28 302.674 307.444C302.514 307.444 302.355 307.444 302.191 307.444C302.112 307.762 302.032 308.08 301.95 308.408C302.189 308.408 302.428 308.408 302.674 308.408C302.674 308.249 302.674 308.09 302.674 307.926C302.992 307.926 303.31 307.926 303.638 307.926C303.558 308.403 303.479 308.881 303.397 309.373C303.795 309.213 304.192 309.054 304.602 308.89C304.682 309.129 304.761 309.368 304.843 309.614C304.366 310.091 303.889 310.568 303.397 311.06C302.592 310.777 302.005 310.532 301.468 309.855C301.468 309.696 301.468 309.536 301.468 309.373C301.15 309.213 300.832 309.054 300.504 308.89C300.504 308.572 300.504 308.254 300.504 307.926C300.743 307.926 300.981 307.926 301.227 307.926C301.264 307.695 301.264 307.695 301.302 307.459C301.357 307.295 301.412 307.131 301.468 306.962C301.707 306.882 301.946 306.803 302.191 306.721Z" fill="#2F2F2F"/>
<path d="M311.353 242.354C311.591 242.433 311.83 242.513 312.076 242.595C311.928 243.309 311.774 243.651 311.353 244.282C311.537 244.158 311.721 244.034 311.91 243.905C312.124 243.791 312.338 243.677 312.558 243.559C312.797 243.638 313.035 243.718 313.281 243.8C313.281 243.959 313.281 244.118 313.281 244.282C313.043 244.401 313.043 244.401 312.799 244.523C312.72 244.762 312.64 245.001 312.558 245.246C313.035 245.008 313.513 244.769 314.005 244.523C314.243 244.881 314.243 244.881 314.487 245.246C314.407 245.406 314.328 245.565 314.246 245.729C314.086 245.729 313.927 245.729 313.763 245.729C313.604 246.047 313.445 246.365 313.281 246.693C312.092 246.588 311.486 246.047 310.629 245.246C310.177 244.689 310.177 244.689 309.906 244.282C310.254 243.471 310.71 242.954 311.353 242.354Z" fill="#303030"/>
<path d="M200.7 298.283C201.288 298.871 201.266 299.069 201.288 299.88C201.265 301.185 200.866 302.145 199.977 303.105C199.738 303.184 199.499 303.264 199.254 303.346C198.606 302.969 198.606 302.969 198.048 302.381C197.92 301.594 197.904 301.163 198.334 300.483C198.907 300.128 199.316 300.158 199.977 300.212C199.977 300.45 199.977 300.689 199.977 300.935C200.136 300.855 200.295 300.776 200.459 300.694C200.454 300.386 200.449 300.077 200.444 299.76C200.429 298.826 200.429 298.826 200.7 298.283Z" fill="#2E2E2E"/>
<path d="M246.747 254.648C246.985 254.728 247.224 254.808 247.47 254.89C247.41 255.342 247.41 255.342 247.229 255.854C246.732 256.155 246.732 256.155 246.265 256.336C246.265 256.654 246.265 256.972 246.265 257.3C246.424 257.3 246.583 257.3 246.747 257.3C246.826 257.062 246.906 256.823 246.988 256.577C247.226 256.577 247.465 256.577 247.711 256.577C247.786 257.119 247.786 257.119 247.711 257.782C247.169 258.355 247.169 258.355 246.506 258.747C245.948 258.686 245.948 258.686 245.541 258.506C245.541 258.347 245.541 258.187 245.541 258.023C245.387 257.964 245.233 257.904 245.074 257.843C244.577 257.541 244.577 257.541 244.425 257.04C244.396 256.887 244.366 256.735 244.336 256.577C244.72 256.248 245.107 255.922 245.496 255.598C245.711 255.416 245.927 255.234 246.149 255.047C246.445 254.85 246.445 254.85 246.747 254.648Z" fill="#303030"/>
<path d="M145.071 245.563C145.21 245.617 145.349 245.672 145.493 245.729C145.413 245.967 145.334 246.206 145.252 246.452C145.093 246.452 144.933 246.452 144.77 246.452C144.77 246.69 144.77 246.929 144.77 247.175C145.008 247.175 145.247 247.175 145.493 247.175C145.493 246.936 145.493 246.698 145.493 246.452C145.811 246.531 146.129 246.611 146.457 246.693C146.383 246.837 146.308 246.981 146.231 247.13C145.95 247.679 145.95 247.679 145.734 248.38C145.893 248.38 146.052 248.38 146.216 248.38C146.136 248.619 146.057 248.858 145.975 249.104C145.478 249.269 145.478 249.269 145.011 249.345C144.931 249.106 144.852 248.867 144.77 248.621C144.61 248.621 144.451 248.621 144.287 248.621C144.287 248.383 144.287 248.144 144.287 247.898C143.969 247.819 143.651 247.739 143.323 247.657C143.244 247.339 143.164 247.021 143.082 246.693C143.241 246.693 143.4 246.693 143.564 246.693C143.564 246.534 143.564 246.375 143.564 246.211C144.341 245.461 144.341 245.461 145.071 245.563Z" fill="#2F2F2F"/>
<path d="M310.867 301.177C311.185 301.495 311.503 301.813 311.831 302.141C311.382 303.242 310.617 304.042 309.586 304.627C309.452 304.682 309.317 304.737 309.179 304.793C309.301 304.27 309.42 303.829 309.661 303.346C309.264 303.426 308.866 303.506 308.456 303.588C308.376 303.349 308.297 303.11 308.215 302.864C309.09 302.307 309.965 301.751 310.867 301.177Z" fill="#2B2B2B"/>
<path d="M186.474 96.0205C186.553 96.3387 186.633 96.6569 186.715 96.9848C187.351 97.0644 187.988 97.1439 188.643 97.2259C188.564 97.5441 188.484 97.8623 188.402 98.1902C187.766 98.1902 187.13 98.1902 186.474 98.1902C186.553 98.7471 186.633 99.304 186.715 99.8777C186.317 99.9573 185.919 100.037 185.509 100.119C185.225 99.6112 185.225 99.6112 185.027 98.9134C185.297 98.1629 185.297 98.1629 185.72 97.3916C185.859 97.134 185.998 96.8764 186.14 96.611C186.25 96.4161 186.36 96.2213 186.474 96.0205Z" fill="#363636"/>
<path d="M213.232 287.677C213.714 288.159 213.714 288.159 213.835 288.837C213.714 289.605 213.714 289.605 213.021 290.268C212.773 290.447 212.524 290.626 212.268 290.811C212.109 290.97 211.95 291.129 211.786 291.293C211.45 290.286 211.828 289.814 212.268 288.882C211.87 288.802 211.472 288.723 211.062 288.641C211.598 287.454 211.973 287.33 213.232 287.677Z" fill="#2C2C2C"/>
<path d="M243.37 257.301C243.609 257.38 243.847 257.46 244.093 257.542C244.173 257.781 244.252 258.019 244.334 258.265C244.016 258.186 243.698 258.106 243.37 258.024C243.395 258.248 243.42 258.472 243.445 258.702C243.408 259.082 243.408 259.082 243.37 259.47C242.527 260.16 241.474 260.492 240.477 260.917C240.238 261.076 240 261.235 239.754 261.399C239.873 260.394 240.1 259.983 240.884 259.35C241.057 259.208 241.231 259.067 241.409 258.921C241.579 258.784 241.749 258.647 241.924 258.506C242.063 258.379 242.203 258.253 242.347 258.122C242.722 257.783 242.722 257.783 243.37 257.301Z" fill="#232323"/>
<path d="M161.645 175.093C161.804 175.411 161.963 175.729 162.127 176.057C160.923 176.703 159.706 176.6 158.378 176.586C158.134 176.586 157.889 176.585 157.637 176.584C156.859 176.581 156.08 176.575 155.301 176.569C154.773 176.567 154.244 176.565 153.715 176.563C152.421 176.557 151.126 176.549 149.832 176.539C149.832 176.46 149.832 176.38 149.832 176.298C153.014 176.298 156.196 176.298 159.475 176.298C159.475 176.139 159.475 175.98 159.475 175.816C160.188 175.13 160.668 175.011 161.645 175.093Z" fill="#2E2E2E"/>
<path d="M163.332 171.478C163.571 171.637 163.809 171.796 164.055 171.96C164.254 173.406 163.856 174.163 163.091 175.335C162.639 175.29 162.639 175.29 162.127 175.094C161.825 174.476 161.825 174.476 161.645 173.888C161.833 173.714 162.022 173.54 162.217 173.361C162.812 172.723 163.075 172.296 163.332 171.478Z" fill="#2E2E2E"/>
<path d="M218.059 169.309C219.088 169.281 220.118 169.264 221.147 169.248C221.44 169.24 221.733 169.232 222.035 169.224C222.456 169.219 222.456 169.219 222.885 169.215C223.273 169.207 223.273 169.207 223.669 169.199C224.327 169.309 224.327 169.309 224.781 169.764C225.05 170.273 225.05 170.273 225.005 170.8C224.809 171.237 224.809 171.237 224.327 171.478C224.051 171.247 224.051 171.247 223.769 171.011C223.15 170.48 223.15 170.48 222.398 170.273C222.398 170.034 222.398 169.796 222.398 169.55C220.966 169.55 219.534 169.55 218.059 169.55C218.059 169.47 218.059 169.391 218.059 169.309Z" fill="#2D2D2D"/>
<path d="M251.807 250.791C251.887 251.03 251.966 251.268 252.048 251.514C251.877 251.671 251.877 251.671 251.701 251.831C251.268 252.243 251.268 252.243 251.084 252.961C251.243 252.961 251.402 252.961 251.566 252.961C251.566 253.279 251.566 253.597 251.566 253.925C251.168 254.005 250.77 254.084 250.361 254.166C250.271 253.935 250.271 253.935 250.18 253.699C249.887 253.084 249.887 253.084 248.914 252.961C249.869 252.245 250.823 251.529 251.807 250.791Z" fill="#303030"/>
<path d="M298.574 312.747C298.654 313.065 298.733 313.384 298.815 313.711C299.293 313.711 299.77 313.711 300.262 313.711C300.023 313.791 299.784 313.87 299.539 313.952C299.539 314.112 299.539 314.271 299.539 314.435C298.063 314.773 296.714 314.973 295.199 314.917C295.558 314.004 296.072 313.525 296.887 312.988C297.125 313.068 297.364 313.147 297.61 313.229C297.53 313.468 297.451 313.707 297.369 313.952C297.687 313.952 298.005 313.952 298.333 313.952C298.413 313.555 298.492 313.157 298.574 312.747Z" fill="#272727"/>
<path d="M213.474 285.747C213.713 285.747 213.952 285.747 214.198 285.747C214.585 286.169 214.585 286.169 214.966 286.711C215.094 286.89 215.221 287.069 215.353 287.254C215.449 287.393 215.545 287.532 215.644 287.676C215.405 287.914 215.167 288.153 214.921 288.399C214.209 288.068 213.609 287.678 212.992 287.194C213.114 286.671 213.233 286.229 213.474 285.747Z" fill="#2F2F2F"/>
<path d="M142.841 303.587C143.998 304.18 143.998 304.18 144.242 304.837C144.257 304.982 144.272 305.126 144.287 305.274C143.81 305.513 143.333 305.752 142.841 305.998C142.364 305.6 141.886 305.202 141.395 304.792C141.554 304.713 141.713 304.633 141.877 304.551C142.036 304.631 142.195 304.71 142.359 304.792C142.518 304.395 142.677 303.997 142.841 303.587Z" fill="#1F1F1F"/>
<path d="M322.924 299.971C323.083 300.209 323.242 300.448 323.406 300.694C323.242 300.813 323.078 300.933 322.909 301.056C322.345 301.536 321.919 301.972 321.448 302.532C320.533 303.606 319.506 304.531 318.453 305.467C317.999 305.874 317.562 306.284 317.138 306.721C316.979 306.562 316.82 306.403 316.656 306.239C316.869 306.063 317.082 305.888 317.301 305.708C320.502 303.18 320.502 303.18 322.924 299.971Z" fill="#E6E6E6"/>
<path d="M205.277 88.0654C205.356 88.0654 205.436 88.0654 205.518 88.0654C205.702 90.0293 205.811 91.8952 205.518 93.8512C205.359 93.8512 205.2 93.8512 205.036 93.8512C205.036 94.8059 205.036 95.7606 205.036 96.7441C204.956 96.7441 204.876 96.7441 204.795 96.7441C204.705 93.827 204.981 90.9642 205.277 88.0654Z" fill="#222222"/>
<path d="M301.466 309.372C301.782 309.9 301.782 309.9 301.948 310.337C301.709 310.416 301.471 310.496 301.225 310.578C301.225 310.419 301.225 310.26 301.225 310.096C300.907 310.175 300.588 310.255 300.261 310.337C300.261 310.496 300.261 310.655 300.261 310.819C300.022 310.739 299.783 310.66 299.537 310.578C299.778 309.855 299.778 309.855 300.261 309.372C299.548 309.703 298.949 310.093 298.332 310.578C299.101 308.985 299.101 308.985 299.733 308.679C300.503 308.635 300.862 308.911 301.466 309.372Z" fill="#222222"/>
<path d="M211.062 291.774C211.514 291.85 211.514 291.85 212.027 292.015C212.186 292.254 212.345 292.493 212.509 292.739C211.786 293.462 211.062 294.185 210.339 294.908C210.115 294.293 210.077 294.007 210.286 293.375C210.378 293.185 210.47 292.995 210.565 292.799C210.657 292.606 210.749 292.414 210.843 292.215C210.915 292.07 210.988 291.924 211.062 291.774Z" fill="#323232"/>
<path d="M154.892 237.05C155.789 237.349 156.019 237.755 156.58 238.496C156.739 238.655 156.898 238.814 157.062 238.978C156.823 239.138 156.585 239.297 156.339 239.461C156.339 239.301 156.339 239.142 156.339 238.978C155.782 239.138 155.225 239.297 154.651 239.461C154.701 239.232 154.751 239.003 154.802 238.767C154.832 238.519 154.862 238.27 154.892 238.014C154.733 237.855 154.574 237.696 154.41 237.532C154.569 237.373 154.728 237.214 154.892 237.05Z" fill="#222222"/>
<path d="M241.68 287.917C241.839 287.917 241.998 287.917 242.162 287.917C242.241 288.076 242.321 288.235 242.403 288.399C242.671 288.436 242.671 288.436 242.945 288.474C243.833 288.696 244.213 289.177 244.814 289.846C244.575 290.084 244.336 290.323 244.09 290.569C243.732 290.264 243.376 289.957 243.021 289.65C242.822 289.479 242.624 289.309 242.419 289.133C241.921 288.64 241.921 288.64 241.68 287.917Z" fill="#242424"/>
<path d="M166.949 307.685C167.683 307.678 168.416 307.673 169.149 307.669C169.355 307.667 169.562 307.665 169.774 307.663C170.871 307.659 171.897 307.701 172.976 307.926C171.887 308.547 170.917 308.488 169.691 308.483C169.481 308.487 169.271 308.491 169.055 308.495C168.854 308.495 168.653 308.495 168.447 308.495C168.263 308.496 168.08 308.497 167.891 308.498C167.664 308.453 167.664 308.453 167.431 308.408C167.272 308.169 167.113 307.93 166.949 307.685Z" fill="#3F3F3F"/>
<path d="M178.762 164.486C179.244 164.968 179.244 164.968 179.3 165.73C179.296 166.041 179.293 166.351 179.289 166.671C179.288 166.833 179.286 166.995 179.285 167.162C179.266 168.375 179.171 169.555 179.003 170.754C178.924 170.754 178.844 170.754 178.762 170.754C178.575 168.623 178.474 166.616 178.762 164.486Z" fill="#242424"/>
<path d="M325.092 276.346C325.171 276.346 325.251 276.346 325.333 276.346C325.305 276.913 325.274 277.481 325.242 278.048C325.226 278.364 325.209 278.68 325.191 279.006C325.092 279.957 324.899 280.743 324.609 281.649C324.007 280.748 324.151 280.096 324.338 279.058C324.387 278.776 324.436 278.493 324.487 278.203C324.527 277.988 324.568 277.773 324.609 277.551C324.689 277.551 324.769 277.551 324.851 277.551C324.93 277.153 325.01 276.756 325.092 276.346Z" fill="#252525"/>
<path d="M185.03 286.471C185.189 286.471 185.348 286.471 185.512 286.471C185.353 287.505 185.194 288.539 185.03 289.605C185.189 289.605 185.348 289.605 185.512 289.605C185.751 290.082 185.99 290.559 186.236 291.051C186.077 291.131 185.917 291.21 185.753 291.292C184.815 289.929 184.46 289.104 184.548 287.435C184.789 286.847 184.789 286.847 185.03 286.471Z" fill="#262626"/>
<path d="M315.209 240.185C315.845 240.662 316.482 241.139 317.137 241.631C316.899 241.75 316.899 241.75 316.655 241.872C316.655 242.031 316.655 242.19 316.655 242.354C316.337 242.354 316.019 242.354 315.691 242.354C315.611 242.593 315.532 242.832 315.45 243.077C315.211 243.077 314.972 243.077 314.727 243.077C314.806 242.839 314.886 242.6 314.968 242.354C315.127 242.354 315.286 242.354 315.45 242.354C315.45 242.195 315.45 242.036 315.45 241.872C315.688 241.872 315.927 241.872 316.173 241.872C316.173 241.713 316.173 241.554 316.173 241.39C315.934 241.31 315.696 241.231 315.45 241.149C315.37 240.831 315.291 240.512 315.209 240.185Z" fill="#292929"/>
<path d="M158.27 234.158C157.939 234.64 157.939 234.64 157.547 235.122C157.388 235.122 157.229 235.122 157.065 235.122C156.906 235.441 156.747 235.759 156.583 236.087C156.344 236.087 156.105 236.087 155.859 236.087C155.95 235.62 155.95 235.62 156.1 235.122C156.26 235.043 156.419 234.963 156.583 234.881C156.423 234.722 156.264 234.563 156.1 234.399C156.926 234.009 157.398 233.835 158.27 234.158Z" fill="#202020"/>
<path d="M200.698 298.283C201.18 298.765 201.18 298.765 201.244 299.323C201.243 299.537 201.241 299.75 201.24 299.971C201.241 300.185 201.242 300.398 201.244 300.619C201.18 301.176 201.18 301.176 200.698 301.658C200.296 301.658 199.894 301.658 199.492 301.658C199.492 301.42 199.492 301.181 199.492 300.935C199.81 300.855 200.129 300.776 200.456 300.694C200.452 300.386 200.447 300.077 200.441 299.76C200.426 298.826 200.426 298.826 200.698 298.283Z" fill="#292929"/>
<path d="M249.153 253.443C249.153 253.602 249.153 253.762 249.153 253.926C249.472 254.085 249.79 254.244 250.118 254.408C249.079 255.149 249.079 255.149 248.234 255.056C248.06 255.001 247.886 254.946 247.707 254.89C247.707 254.572 247.707 254.253 247.707 253.926C248.43 253.443 248.43 253.443 249.153 253.443Z" fill="#2B2B2B"/>
<path d="M149.108 242.836C148.97 243.769 148.544 244.327 147.903 245.006C147.664 245.006 147.426 245.006 147.18 245.006C147.259 244.608 147.339 244.21 147.421 243.8C147.58 243.8 147.739 243.8 147.903 243.8C147.903 243.562 147.903 243.323 147.903 243.077C148.385 242.836 148.385 242.836 149.108 242.836Z" fill="#202020"/>
<path d="M297.371 240.185C299.086 240.278 300.591 240.52 302.193 241.149C301.954 241.308 301.715 241.467 301.469 241.631C300.837 241.45 300.837 241.45 300.023 241.149C299.458 241.023 298.892 240.911 298.324 240.802C297.853 240.667 297.853 240.667 297.371 240.185Z" fill="#2B2B2B"/>
<path d="M186.782 97.8564C187.329 97.859 187.86 97.887 188.404 97.9497C188.404 98.0292 188.404 98.1088 188.404 98.1907C187.767 98.1907 187.131 98.1907 186.475 98.1907C186.555 98.7476 186.634 99.3045 186.716 99.8783C186.318 99.9578 185.921 100.037 185.511 100.119C185.27 99.3961 185.27 99.3961 185.601 98.6277C186.234 97.9497 186.234 97.9497 186.782 97.8564Z" fill="#2E2E2E"/>
<path d="M194.915 283.578C194.915 283.737 194.915 283.896 194.915 284.06C194.383 284.183 193.851 284.303 193.318 284.422C192.873 284.522 192.873 284.522 192.42 284.625C191.619 284.769 190.904 284.813 190.094 284.783C190.834 284.148 191.41 283.929 192.369 283.774C192.592 283.736 192.816 283.697 193.046 283.658C193.677 283.582 194.28 283.563 194.915 283.578Z" fill="#2D2D2D"/>
<path d="M207.929 128.566C208.327 128.566 208.725 128.566 209.135 128.566C208.827 129.058 208.505 129.54 208.17 130.013C208.011 130.013 207.852 130.013 207.688 130.013C207.688 130.172 207.688 130.331 207.688 130.495C207.449 130.495 207.211 130.495 206.965 130.495C207.044 130.097 207.124 129.699 207.206 129.29C207.365 129.29 207.524 129.29 207.688 129.29C207.768 129.051 207.847 128.812 207.929 128.566Z" fill="#202020"/>
<path d="M239.51 261.881C239.669 261.881 239.828 261.881 239.992 261.881C239.992 262.597 239.992 263.313 239.992 264.051C240.151 264.051 240.31 264.051 240.474 264.051C240.474 264.369 240.474 264.687 240.474 265.015C240.713 265.094 240.951 265.174 241.197 265.256C240.958 265.415 240.72 265.574 240.474 265.738C239.287 264.193 239.287 264.193 239.242 263.252C239.314 262.725 239.314 262.725 239.51 261.881Z" fill="#2F2F2F"/>
<path d="M181.654 204.987C181.574 205.146 181.494 205.305 181.412 205.469C180.718 205.7 180.28 205.735 179.559 205.725C179.267 205.722 179.267 205.722 178.969 205.718C178.746 205.714 178.746 205.714 178.52 205.71C178.599 205.471 178.679 205.233 178.761 204.987C179.107 204.94 179.454 204.895 179.8 204.851C179.993 204.826 180.186 204.801 180.385 204.775C180.93 204.746 180.93 204.746 181.654 204.987Z" fill="#262626"/>
<path d="M202.387 133.388C202.546 133.388 202.705 133.388 202.869 133.388C202.71 133.785 202.551 134.183 202.387 134.593C203.103 134.712 203.103 134.712 203.833 134.834C203.833 134.914 203.833 134.993 203.833 135.075C202.799 135.075 201.765 135.075 200.699 135.075C200.779 134.837 200.858 134.598 200.94 134.352C201.259 134.352 201.577 134.352 201.905 134.352C202.064 134.034 202.223 133.716 202.387 133.388Z" fill="#353535"/>
<path d="M145.972 300.693C145.972 301.417 145.972 301.417 145.414 302.064C144.766 302.622 144.766 302.622 144.043 302.622C144.043 302.304 144.043 301.986 144.043 301.658C145.034 300.693 145.034 300.693 145.972 300.693Z" fill="#1F1F1F"/>
<path d="M313.113 300.016C313.434 300.113 313.434 300.113 313.761 300.212C313.602 300.53 313.443 300.849 313.279 301.176C312.563 301.176 311.847 301.176 311.109 301.176C312.118 299.96 312.118 299.96 313.113 300.016Z" fill="#343434"/>
<path d="M315.933 296.596C316.092 296.755 316.251 296.914 316.415 297.078C315.858 297.714 315.301 298.351 314.727 299.006C314.488 298.847 314.25 298.688 314.004 298.524C314.64 297.888 315.277 297.251 315.933 296.596Z" fill="#303030"/>
<path d="M202.866 119.164C202.945 119.164 203.025 119.164 203.107 119.164C203.186 120.437 203.266 121.71 203.348 123.021C203.268 123.021 203.189 123.021 203.107 123.021C203.027 123.737 202.948 124.453 202.866 125.191C202.786 125.191 202.707 125.191 202.625 125.191C202.598 123.165 202.636 121.178 202.866 119.164Z" fill="#2B2B2B"/>
<path d="M234.451 281.167C234.813 281.498 234.813 281.498 235.174 281.89C235.174 282.049 235.174 282.208 235.174 282.372C235.333 282.452 235.492 282.531 235.656 282.613C235.656 282.773 235.656 282.932 235.656 283.096C235.895 283.175 236.134 283.255 236.38 283.337C236.22 283.496 236.061 283.655 235.897 283.819C235.574 283.555 235.253 283.288 234.933 283.02C234.754 282.872 234.575 282.724 234.391 282.571C233.969 282.131 233.969 282.131 233.969 281.408C234.128 281.329 234.287 281.249 234.451 281.167Z" fill="#262626"/>
<path d="M161.886 232.952C161.886 233.7 161.756 234.001 161.403 234.639C161.085 234.639 160.767 234.639 160.439 234.639C160.519 234.241 160.598 233.844 160.68 233.434C160.442 233.354 160.203 233.275 159.957 233.193C160.663 232.957 161.152 232.932 161.886 232.952Z" fill="#404040"/>
<path d="M202.144 282.614C202.224 282.852 202.303 283.091 202.385 283.337C201.51 283.416 200.635 283.496 199.733 283.578C199.654 283.339 199.574 283.101 199.492 282.855C200.39 282.688 201.231 282.587 202.144 282.614Z" fill="#303030"/>
<path d="M243.369 257.301C243.608 257.38 243.847 257.46 244.093 257.542C244.172 257.781 244.252 258.019 244.334 258.265C244.016 258.186 243.697 258.106 243.369 258.024C243.369 258.501 243.369 258.979 243.369 259.47C243.051 259.55 242.733 259.63 242.405 259.712C242.326 259.552 242.246 259.393 242.164 259.229C242.403 259.07 242.641 258.911 242.887 258.747C242.887 258.429 242.887 258.111 242.887 257.783C243.046 257.624 243.206 257.465 243.369 257.301Z" fill="#343434"/>
<path d="M150.552 245.247C149.751 246.196 149.751 246.196 148.925 246.271C148.746 246.251 148.567 246.232 148.383 246.211C148.383 245.893 148.383 245.575 148.383 245.247C149.123 244.877 149.757 245.114 150.552 245.247Z" fill="#1E1E1E"/>
<path d="M310.868 301.177C311.027 301.256 311.187 301.336 311.35 301.418C311.35 301.816 311.35 302.213 311.35 302.623C310.6 302.623 310.119 302.581 309.422 302.382C309.616 302.228 309.81 302.074 310.009 301.915C310.452 301.561 310.452 301.561 310.868 301.177Z" fill="#343434"/>
<path d="M307.01 303.587C307.169 303.746 307.328 303.905 307.492 304.069C307.254 304.427 307.254 304.427 307.01 304.792C307.01 305.031 307.01 305.27 307.01 305.516C306.612 305.595 306.215 305.675 305.805 305.757C305.889 305.568 305.974 305.379 306.061 305.184C306.135 304.975 306.21 304.766 306.287 304.551C306.207 304.392 306.128 304.233 306.046 304.069C306.364 303.91 306.682 303.751 307.01 303.587Z" fill="#3A3A3A"/>
<path d="M253.975 249.827C253.669 250.771 253.37 251.223 252.529 251.756C252.529 251.517 252.529 251.278 252.529 251.033C252.37 250.873 252.211 250.714 252.047 250.55C252.785 249.918 252.947 249.827 253.975 249.827Z" fill="#242424"/>
<path d="M288.21 177.022C288.21 177.182 288.21 177.341 288.21 177.505C288.608 177.584 289.006 177.664 289.416 177.746C289.416 177.984 289.416 178.223 289.416 178.469C289.654 178.548 289.893 178.628 290.139 178.71C289.98 178.869 289.821 179.028 289.657 179.192C289.345 178.962 289.034 178.73 288.723 178.499C288.549 178.37 288.376 178.242 288.197 178.109C287.728 177.746 287.728 177.746 287.246 177.264C287.728 177.022 287.728 177.022 288.21 177.022Z" fill="#252525"/>
<path d="M129.339 262.845C129.419 262.845 129.498 262.845 129.58 262.845C129.546 263.191 129.511 263.538 129.475 263.884C129.455 264.077 129.436 264.27 129.416 264.469C129.339 265.014 129.339 265.014 129.098 265.738C128.86 265.738 128.621 265.738 128.375 265.738C128.534 265.022 128.693 264.306 128.857 263.568C129.016 263.568 129.175 263.568 129.339 263.568C129.339 263.329 129.339 263.091 129.339 262.845Z" fill="#212121"/>
<path d="M296.889 312.989C297.128 313.069 297.366 313.148 297.612 313.23C297.462 313.697 297.462 313.697 297.13 314.195C296.377 314.375 296.377 314.375 295.684 314.436C295.684 314.277 295.684 314.117 295.684 313.954C296.241 313.426 296.241 313.426 296.889 312.989Z" fill="#212121"/>
<path d="M185.511 100.36C185.45 100.812 185.45 100.812 185.27 101.325C184.802 101.596 184.802 101.596 184.305 101.807C184.146 101.966 183.987 102.125 183.823 102.289C183.744 102.05 183.664 101.812 183.582 101.566C184.077 100.725 184.495 100.36 185.511 100.36Z" fill="#313131"/>
<path d="M204.312 314.194C204.447 314.309 204.581 314.423 204.719 314.541C205.321 314.947 205.77 315.06 206.482 315.159C206.403 315.397 206.323 315.636 206.241 315.882C205.58 315.793 205.136 315.717 204.599 315.309C204.312 314.918 204.312 314.918 204.312 314.194Z" fill="#242424"/>
<path d="M295.684 313.953C295.684 314.112 295.684 314.271 295.684 314.435C295.922 314.515 296.161 314.594 296.407 314.676C295.479 315.295 295.06 315.118 293.996 314.917C294.155 314.838 294.314 314.758 294.478 314.676C294.478 314.517 294.478 314.358 294.478 314.194C294.96 313.953 294.96 313.953 295.684 313.953Z" fill="#393939"/>
<path d="M305.806 304.552C305.726 304.95 305.647 305.347 305.565 305.757C305.167 305.837 304.769 305.916 304.359 305.998C304.359 305.68 304.359 305.362 304.359 305.034C305.083 304.552 305.083 304.552 305.806 304.552Z" fill="#1F1F1F"/>
<path d="M185.027 180.397C185.107 180.397 185.186 180.397 185.268 180.397C185.343 180.666 185.418 180.934 185.494 181.211C185.708 182.035 185.708 182.035 185.992 182.567C185.673 182.965 185.355 183.363 185.027 183.773C185.027 182.659 185.027 181.545 185.027 180.397Z" fill="#C5C5C5"/>
<path d="M317.138 305.033C317.297 305.113 317.456 305.192 317.62 305.274C317.299 306.239 316.777 306.441 315.932 306.962C315.853 306.723 315.773 306.484 315.691 306.239C315.851 306.239 316.01 306.239 316.174 306.239C316.253 306 316.333 305.761 316.415 305.515C316.653 305.515 316.892 305.515 317.138 305.515C317.138 305.356 317.138 305.197 317.138 305.033Z" fill="#272727"/>
<path d="M142.359 304.31C142.677 304.469 142.995 304.628 143.323 304.792C143.244 305.03 143.164 305.269 143.082 305.515C142.843 305.595 142.605 305.674 142.359 305.756C142.041 305.358 141.722 304.96 141.395 304.551C141.713 304.63 142.031 304.71 142.359 304.792C142.359 304.633 142.359 304.474 142.359 304.31Z" fill="#343434"/>
<path d="M141.395 303.104C141.713 303.184 142.032 303.264 142.359 303.346C142.28 303.584 142.2 303.823 142.118 304.069C141.721 304.148 141.323 304.228 140.913 304.31C140.833 303.992 140.754 303.673 140.672 303.346C140.911 303.425 141.149 303.505 141.395 303.587C141.395 303.428 141.395 303.268 141.395 303.104Z" fill="#2D2D2D"/>
<path d="M310.871 246.211C311.945 246.45 311.945 246.45 313.041 246.693C312.961 247.091 312.882 247.489 312.8 247.898C312.478 247.663 312.156 247.427 311.835 247.19C311.656 247.059 311.477 246.927 311.293 246.792C311.154 246.68 311.015 246.568 310.871 246.452C310.871 246.372 310.871 246.293 310.871 246.211Z" fill="#262626"/>
<path d="M294.236 209.567C294.475 209.567 294.713 209.567 294.959 209.567C294.959 209.886 294.959 210.204 294.959 210.532C294.562 210.691 294.164 210.85 293.754 211.014C293.754 210.05 293.754 210.05 294.236 209.567Z" fill="#2B2B2B"/>
<path d="M255.901 249.345C255.585 249.706 255.585 249.706 255.178 250.068C254.939 250.068 254.701 250.068 254.455 250.068C254.296 249.75 254.137 249.432 253.973 249.104C254.793 248.811 255.162 248.896 255.901 249.345Z" fill="#2D2D2D"/>
<path d="M189.366 309.855C188.799 310.512 188.251 310.774 187.438 311.06C187.498 310.608 187.498 310.608 187.679 310.096C188.379 309.605 188.529 309.576 189.366 309.855Z" fill="#212121"/>
<path d="M318.826 304.31C318.985 304.389 319.144 304.469 319.308 304.551C318.672 305.267 318.035 305.983 317.379 306.72C317.141 306.561 316.902 306.402 316.656 306.238C317.372 305.602 318.088 304.965 318.826 304.31Z" fill="#DBDBDB"/>
<path d="M212.028 289.363C212.267 289.363 212.505 289.363 212.751 289.363C212.811 289.921 212.811 289.921 212.751 290.569C212.269 291.006 212.269 291.006 211.787 291.292C211.496 290.418 211.656 290.173 212.028 289.363Z" fill="#393939"/>
<path d="M251.086 286.712C252.001 286.843 252.405 287.243 253.015 287.917C252.291 288.158 252.291 288.158 251.643 287.857C251.459 287.718 251.275 287.579 251.086 287.435C251.086 287.196 251.086 286.958 251.086 286.712Z" fill="#242424"/>
<path d="M155.376 235.122C154.905 235.592 154.524 235.808 153.929 236.086C153.611 235.847 153.293 235.609 152.965 235.363C154.562 234.851 154.562 234.851 155.376 235.122Z" fill="#282828"/>
<path d="M162.126 142.79C162.205 142.949 162.285 143.108 162.367 143.272C162.526 143.272 162.685 143.272 162.849 143.272C162.928 143.75 163.008 144.227 163.09 144.719C162.851 144.798 162.613 144.878 162.367 144.96C162.01 144.247 162.111 143.575 162.126 142.79Z" fill="#323232"/>
<path d="M165.504 136.28C165.583 136.519 165.663 136.758 165.745 137.003C165.323 137.576 165.323 137.576 164.781 138.209C164.533 138.607 164.29 139.007 164.057 139.414C163.978 139.255 163.898 139.096 163.816 138.932C164.057 138.41 164.057 138.41 164.404 137.817C164.518 137.62 164.632 137.423 164.75 137.22C164.839 137.069 164.929 136.918 165.022 136.762C165.181 136.762 165.34 136.762 165.504 136.762C165.504 136.603 165.504 136.444 165.504 136.28Z" fill="#151515"/>
<path d="M190.571 89.2715C190.651 89.5101 190.731 89.7488 190.813 89.9947C190.572 90.4345 190.572 90.4345 190.225 90.8837C190.111 91.0338 189.997 91.1839 189.879 91.3385C189.789 91.4519 189.7 91.5654 189.607 91.6822C189.448 91.5231 189.289 91.364 189.125 91.2001C189.543 90.4629 189.941 89.8419 190.571 89.2715Z" fill="#272727"/>
<path d="M319.546 291.774C319.785 291.774 320.024 291.774 320.27 291.774C319.901 292.603 319.402 293.25 318.823 293.944C318.744 293.705 318.664 293.467 318.582 293.221C319.004 292.452 319.004 292.452 319.546 291.774Z" fill="#222222"/>
<path d="M194.43 249.586C195.31 249.887 195.582 249.989 196.117 250.791C196.356 250.95 196.595 251.11 196.84 251.273C196.602 251.353 196.363 251.433 196.117 251.515C194.743 250.525 194.743 250.525 194.43 249.586Z" fill="#242424"/>
<path d="M279.288 305.757C280.117 305.953 280.117 305.953 280.975 306.239C281.055 306.478 281.135 306.716 281.217 306.962C280.501 306.724 279.785 306.485 279.047 306.239C279.126 306.08 279.206 305.921 279.288 305.757Z" fill="#272727"/>
<path d="M240.718 259.47C240.798 259.788 240.877 260.106 240.959 260.434C240.562 260.752 240.164 261.07 239.754 261.398C239.874 260.509 240.019 260.047 240.718 259.47Z" fill="#333333"/>
<path d="M255.905 298.283C255.905 298.442 255.905 298.601 255.905 298.765C256.223 298.845 256.541 298.924 256.869 299.006C256.789 299.245 256.71 299.484 256.628 299.73C256.469 299.571 256.31 299.411 256.146 299.248C255.667 299.075 255.185 298.913 254.699 298.765C255.422 298.283 255.422 298.283 255.905 298.283Z" fill="#131313"/>
<path d="M199.73 253.925C200.288 253.865 200.288 253.865 200.936 253.925C201.373 254.407 201.373 254.407 201.659 254.889C201.5 255.048 201.341 255.208 201.177 255.372C200.69 254.976 200.208 254.574 199.73 254.166C199.73 254.087 199.73 254.007 199.73 253.925Z" fill="#252525"/>
<path d="M300.023 240.666C301.651 240.847 301.651 240.847 302.193 241.389C301.285 241.692 300.898 241.479 300.023 241.148C300.023 240.989 300.023 240.83 300.023 240.666Z" fill="#242424"/>
<path d="M183.583 201.612C183.748 202.004 183.748 202.004 183.824 202.577C183.477 203.36 183.477 203.36 183.1 204.023C183.021 204.023 182.941 204.023 182.859 204.023C183.04 202.426 183.04 202.426 183.583 201.612Z" fill="#252525"/>
<path d="M173.458 120.61C173.617 120.769 173.776 120.929 173.94 121.093C173.849 121.725 173.849 121.725 173.699 122.298C173.38 122.218 173.062 122.139 172.734 122.057C172.973 121.579 173.212 121.102 173.458 120.61Z" fill="#292929"/>
<path d="M193.227 98.4316C193.466 98.4316 193.704 98.4316 193.95 98.4316C193.691 99.1344 193.522 99.5835 192.986 100.119C192.827 100.04 192.668 99.9601 192.504 99.8781C192.745 99.3959 192.986 98.9138 193.227 98.4316Z" fill="#2A2A2A"/>
<path d="M213.236 305.274C213.395 305.434 213.554 305.593 213.718 305.757C213.559 306.234 213.4 306.711 213.236 307.203C213.077 307.044 212.918 306.885 212.754 306.721C212.888 305.623 212.888 305.623 213.236 305.274Z" fill="#2C2C2C"/>
<path d="M184.787 303.828C184.867 303.987 184.947 304.146 185.028 304.31C185.188 304.39 185.347 304.469 185.511 304.551C184.858 304.878 184.303 304.808 183.582 304.792C184.064 304.069 184.064 304.069 184.787 303.828Z" fill="#303030"/>
<path d="M207.208 301.417C207.367 301.417 207.526 301.417 207.69 301.417C207.558 302.231 207.435 302.642 206.967 303.346C206.807 303.346 206.648 303.346 206.484 303.346C206.936 301.959 206.936 301.959 207.208 301.417Z" fill="#2B2B2B"/>
<path d="M211.786 288.64C211.786 288.719 211.786 288.799 211.786 288.881C210.664 289.083 209.768 289.126 208.652 288.881C208.652 288.801 208.652 288.722 208.652 288.64C209.768 288.395 210.664 288.438 211.786 288.64Z" fill="#242424"/>
<path d="M211.545 288.158C212.298 288.249 212.298 288.249 212.991 288.399C212.991 288.558 212.991 288.717 212.991 288.881C212.118 289.173 211.872 289.012 211.062 288.64C211.222 288.481 211.381 288.322 211.545 288.158Z" fill="#3D3D3D"/>
<path d="M330.637 283.337C330.796 283.337 330.955 283.337 331.119 283.337C330.938 284.934 330.938 284.934 330.396 285.748C330.366 284.151 330.366 284.151 330.637 283.337Z" fill="#141414"/>
<path d="M246.743 254.648C246.981 254.728 247.22 254.808 247.466 254.89C247.376 255.357 247.376 255.357 247.225 255.854C246.986 255.973 246.986 255.973 246.743 256.095C246.663 255.936 246.584 255.777 246.502 255.613C246.343 255.533 246.183 255.454 246.02 255.372C246.258 255.133 246.497 254.894 246.743 254.648Z" fill="#272727"/>
<path d="M268.924 238.497C269.083 238.656 269.242 238.815 269.406 238.979C269.009 239.297 268.611 239.616 268.201 239.944C268.042 239.864 267.883 239.784 267.719 239.702C267.719 239.543 267.719 239.384 267.719 239.22C268.321 238.829 268.321 238.829 268.924 238.497Z" fill="#262626"/>
<path d="M298.094 178.71C298.332 178.829 298.332 178.829 298.576 178.951C298.757 179.765 298.757 179.765 298.817 180.639C298.658 180.877 298.499 181.116 298.335 181.362C298.294 181.01 298.254 180.659 298.214 180.307C298.192 180.111 298.17 179.916 298.146 179.714C298.094 179.192 298.094 179.192 298.094 178.71Z" fill="#434343"/>
<path d="M163.57 145.683C164.278 145.878 164.278 145.878 165.017 146.165C165.096 146.403 165.176 146.642 165.258 146.888C164.685 146.828 164.685 146.828 164.052 146.647C163.736 146.15 163.736 146.15 163.57 145.683Z" fill="#232323"/>
<path d="M199.977 301.899C200.136 301.899 200.295 301.899 200.459 301.899C200.399 302.351 200.399 302.351 200.218 302.864C199.721 303.165 199.721 303.165 199.254 303.346C199.254 303.107 199.254 302.869 199.254 302.623C199.413 302.623 199.572 302.623 199.736 302.623C199.816 302.384 199.895 302.145 199.977 301.899Z" fill="#3C3C3C"/>
<path d="M224.324 273.453C224.912 273.649 224.912 273.649 225.53 273.935C225.609 274.174 225.689 274.413 225.771 274.659C225.047 274.659 225.047 274.659 224.641 274.327C224.324 273.935 224.324 273.935 224.324 273.453Z" fill="#292929"/>
<path d="M202.387 255.613C202.839 255.674 202.839 255.674 203.351 255.854C203.652 256.352 203.652 256.352 203.833 256.819C203.595 256.819 203.356 256.819 203.11 256.819C202.703 256.216 202.703 256.216 202.387 255.613Z" fill="#282828"/>
<path d="M257.595 254.89C257.914 254.969 258.232 255.049 258.56 255.131C258.242 255.449 257.923 255.767 257.595 256.095C257.436 256.015 257.277 255.936 257.113 255.854C257.272 255.536 257.432 255.218 257.595 254.89Z" fill="#222222"/>
<path d="M189.848 174.853C190.007 175.171 190.166 175.489 190.33 175.817C190.012 176.056 189.694 176.294 189.366 176.54C189.287 176.381 189.207 176.222 189.125 176.058C189.472 175.425 189.472 175.425 189.848 174.853Z" fill="#242424"/>
<path d="M168.394 130.977C168.474 131.136 168.553 131.295 168.635 131.459C168.289 132.092 168.289 132.092 167.912 132.664C167.753 132.585 167.594 132.505 167.43 132.423C167.852 131.248 167.852 131.248 168.394 130.977Z" fill="#212121"/>
</svg>
