<svg width="386" height="386" viewBox="0 0 386 386" fill="none" xmlns="http://www.w3.org/2000/svg">
<path d="M288.649 104.455C313.449 129.181 325.479 163.242 326 197.801C325.93 228.787 314.703 260.112 294.095 283.404C293.422 284.171 292.749 284.938 292.056 285.729C268.87 311.807 236.615 327.38 201.825 329.767C167.464 331.739 132.57 321.175 106.587 298.187C105.82 297.514 105.053 296.841 104.262 296.147C78.2889 273.05 62.2739 240.376 60.1706 205.62C58.5236 171.269 68.7846 136.697 91.8045 110.68C92.4775 109.912 93.1504 109.145 93.8438 108.355C117.114 82.1816 148.992 67.2402 183.759 64.1918C223.625 62.143 260.295 76.5674 288.649 104.455ZM112.034 106.789C113.023 108.955 114.041 110.547 115.726 112.225C116.16 112.662 116.595 113.098 117.042 113.548C117.754 114.251 117.754 114.251 118.48 114.969C118.981 115.47 119.482 115.971 119.999 116.488C121.654 118.142 123.314 119.79 124.975 121.438C126.124 122.585 127.273 123.732 128.422 124.879C131.445 127.896 134.472 130.908 137.501 133.919C140.591 136.994 143.677 140.072 146.763 143.15C152.818 149.189 158.877 155.222 164.94 161.252C176.552 149.743 187.146 135.983 187.547 118.955C187.53 116.449 187.495 113.952 187.349 111.45C187.239 108.666 187.252 107.138 188.911 104.841C190.616 103.677 190.616 103.677 193.047 103.483C197.413 104.408 200.621 107.789 203.842 110.68C204.382 111.146 204.921 111.612 205.477 112.093C219.271 124.815 222.314 141.463 223.959 159.289C224.438 164.236 225.01 168.925 226.405 173.701C228.407 171.922 229.334 170.26 230.393 167.817C233.003 162.398 236.946 157.597 241.966 154.25C244.114 153.96 246.003 154.111 248.191 154.25C250.386 156.445 250.024 158.001 250.157 161.076C250.212 162.163 250.267 163.25 250.323 164.337C250.4 166.04 250.475 167.743 250.547 169.447C250.942 178.411 252.258 186.557 255.384 195.009C261.489 211.6 262.876 230.966 258.159 248.1C257.476 250.939 257.343 251.901 258.305 254.616C259.872 256.609 261.668 258.341 263.487 260.102C264.262 260.871 264.263 260.871 265.054 261.656C266.703 263.288 268.364 264.909 270.024 266.53C271.146 267.636 272.267 268.743 273.387 269.851C276.132 272.561 278.887 275.262 281.646 277.958C284.885 276.502 286.666 274.357 288.795 271.587C289.169 271.103 289.543 270.619 289.929 270.12C309.026 244.94 317.792 212.835 313.646 181.434C309.602 154.707 297.905 132.298 280.09 112.236C279.639 111.727 279.188 111.219 278.723 110.695C258.496 89.299 227.232 76.3312 198.065 75.5098C166.397 75.0915 135.447 84.8299 112.034 106.789ZM101.457 117.247C85.7484 134.726 75.4624 157.45 72.3535 180.703C72.2824 181.227 72.2113 181.752 72.1381 182.292C69.1812 205.994 73.6047 229.368 84.0241 250.726C84.2668 251.227 84.5095 251.727 84.7596 252.242C98.5285 280.235 123.913 301.602 153.166 312.027C183.494 322.265 216.784 320.565 245.656 306.544C255.984 301.354 265.41 295.224 273.866 287.294C272.592 284.029 270.183 281.858 267.733 279.453C267.286 279.008 266.839 278.564 266.379 278.106C264.956 276.691 263.527 275.282 262.098 273.873C261.13 272.913 260.163 271.952 259.196 270.992C256.828 268.641 254.456 266.296 252.081 263.953C251.599 264.556 251.117 265.16 250.621 265.782C241.489 277.177 231.188 284.534 217.166 288.753C216.333 289.004 216.333 289.004 215.484 289.261C212.309 290.16 209.474 290.658 206.176 290.406C204.718 289.58 204.718 289.58 203.842 288.072C203.307 285.689 203.307 285.689 203.842 282.626C205.254 280.593 206.818 278.757 208.428 276.879C214.894 268.854 215.786 260.695 215.513 250.726C213.01 250.726 212.022 251.189 209.823 252.282C206.911 253.606 204.749 254.441 201.508 253.838C199.827 252.784 199.827 252.784 198.396 250.726C198.041 247.914 198.177 245.14 198.299 242.314C198.48 237.252 198.568 232.965 196.84 228.163C196.326 228.163 195.813 228.163 195.284 228.163C194.341 229.577 194.341 229.577 193.387 231.421C191.356 234.96 189.03 237.874 186.336 240.904C180.832 247.222 176.736 253.728 176.432 262.339C176.96 269.389 179.704 275.086 183.449 280.951C184.733 283.233 184.999 284.743 184.391 287.294C183.224 289.191 183.224 289.191 181.279 290.406C164.81 289.184 151 281.09 140.003 269.235C128.691 255.74 123.915 235.394 125.26 218.049C127.156 200.028 132.338 178.408 143.155 163.586C144.982 162.39 146.48 161.876 148.601 161.252C144.329 156.058 139.6 151.345 134.852 146.594C133.973 145.712 133.093 144.83 132.214 143.948C130.382 142.111 128.548 140.276 126.713 138.442C124.358 136.087 122.008 133.726 119.66 131.364C117.851 129.547 116.039 127.733 114.226 125.92C113.357 125.051 112.49 124.18 111.624 123.308C110.419 122.096 109.209 120.888 107.998 119.682C107.311 118.993 106.623 118.305 105.915 117.596C103.962 115.868 103.429 115.463 101.457 117.247ZM198.396 121.572C198.216 122.531 198.037 123.49 197.852 124.478C194.963 139.367 189.404 149.388 179.86 161.046C176.7 164.805 176.7 164.805 174.277 169.032C175.24 171.629 176.796 173.3 178.737 175.236C179.342 175.843 179.946 176.449 180.569 177.074C181.233 177.732 181.896 178.391 182.58 179.069C183.279 179.767 183.977 180.466 184.697 181.186C186.609 183.099 188.526 185.007 190.445 186.914C192.449 188.909 194.45 190.909 196.451 192.908C200.239 196.691 204.031 200.471 207.825 204.249C212.145 208.551 216.46 212.857 220.774 217.164C229.649 226.022 238.529 234.875 247.413 243.724C253.439 232.417 249.983 214.267 246.635 202.488C245.718 199.69 244.695 196.935 243.643 194.186C241.37 188.054 240.493 181.714 239.632 175.257C237.623 177.266 237.504 178.764 236.909 181.53C236.709 182.433 236.51 183.337 236.304 184.268C235.962 185.885 235.626 187.504 235.301 189.125C234.972 190.735 234.585 192.334 234.186 193.93C231.575 195.235 230.087 195.176 227.184 194.708C218.666 187.868 215.33 176.899 214.051 166.461C213.868 164.758 213.691 163.054 213.519 161.349C213.323 159.558 213.125 157.767 212.927 155.976C212.687 153.776 212.448 151.575 212.21 149.375C211.007 138.662 206.941 130.437 199.952 122.35C199.439 122.093 198.925 121.837 198.396 121.572ZM153.27 165.92C152.353 168.671 152.349 171.179 152.346 174.041C152.335 175.067 152.324 176.093 152.312 177.15C152.322 180.089 152.322 180.089 154.048 183.037C155.845 179.186 157.642 175.334 159.494 171.366C158.611 170.468 157.729 169.569 156.819 168.643C156.323 168.138 155.827 167.632 155.315 167.112C154.243 165.831 154.243 165.831 153.27 165.92ZM167.274 180.703C166.653 182.014 166.039 183.327 165.427 184.642C165.084 185.373 164.741 186.104 164.387 186.857C161.932 192.741 161.691 197.556 161.957 203.795C162.069 208.401 162.069 208.401 160.793 210.052C159.494 211.046 159.494 211.046 157.209 211.387C154.191 210.956 153.658 210.254 151.714 207.934C150.525 205.947 149.51 203.892 148.504 201.807C148.234 201.267 147.965 200.726 147.687 200.169C146.183 197.109 144.928 194.088 143.933 190.817C142.072 192.474 141.231 193.716 140.575 196.115C140.415 196.691 140.254 197.267 140.089 197.861C139.929 198.473 139.77 199.085 139.605 199.716C139.437 200.35 139.269 200.983 139.096 201.635C134.357 219.847 134.625 238.349 143.565 255.315C149.089 264.595 156.687 271.233 166.496 275.623C167.01 275.367 167.523 275.11 168.052 274.845C167.802 274.086 167.551 273.327 167.293 272.545C164.587 263.014 166.169 252.564 170.727 243.943C173.253 239.716 176.244 236.076 179.48 232.394C185.16 225.869 186.917 220.194 187.823 211.657C188.324 209.288 188.697 208.57 190.616 207.156C191.648 206.628 192.685 206.108 193.728 205.6C190.216 202.049 186.698 198.504 183.176 194.963C181.978 193.757 180.781 192.549 179.585 191.34C177.87 189.606 176.15 187.877 174.429 186.149C173.892 185.605 173.356 185.06 172.803 184.499C172.304 184 171.806 183.502 171.293 182.988C170.854 182.546 170.415 182.104 169.963 181.648C168.877 180.537 168.877 180.537 167.274 180.703ZM204.62 217.271C204.941 218.153 205.262 219.036 205.593 219.945C207.518 225.675 208.735 231.61 210.067 237.5C210.564 236.874 211.062 236.248 211.574 235.603C214.09 232.477 215.37 232.567 219.403 232.053C216.393 228.374 213.176 224.963 209.823 221.599C209.404 221.175 208.984 220.752 208.551 220.315C206.867 218.223 206.867 218.223 204.62 217.271ZM222.515 235.166C222.666 235.61 222.816 236.054 222.971 236.512C227.069 249.272 227.103 261.202 223.293 274.067C231.525 271.681 237.19 265.39 241.966 258.507C242.496 257.475 243.016 256.438 243.522 255.395C240.658 252.511 237.791 249.63 234.922 246.752C233.946 245.771 232.97 244.79 231.995 243.808C230.596 242.401 229.196 240.995 227.794 239.591C227.356 239.148 226.917 238.706 226.466 238.25C225.423 237.207 224.36 236.184 223.293 235.166C223.037 235.166 222.78 235.166 222.515 235.166Z" fill="black"/>
</svg>
