<svg width="386" height="386" viewBox="0 0 386 386" fill="none" xmlns="http://www.w3.org/2000/svg">
<path d="M187.126 112.717C188.576 112.757 189.704 113.193 191.005 113.802C191.242 113.911 191.479 114.019 191.724 114.131C198.45 117.302 204.294 121.581 209.887 126.417C210.126 126.617 210.365 126.817 210.611 127.023C211.832 128.053 212.899 129.135 213.931 130.352C214.646 131.176 215.397 131.961 216.148 132.753C229.02 146.616 235.688 166.095 236.732 184.722C236.751 185.053 236.751 185.053 236.77 185.39C236.829 186.46 236.878 187.53 236.915 188.602C236.933 188.985 236.95 189.368 236.968 189.763C236.98 190.103 236.991 190.442 237.003 190.792C237.109 191.663 237.109 191.663 237.744 192.214C238.832 192.772 239.781 192.609 240.903 192.253C241.907 191.723 242.795 191.086 243.695 190.398C243.873 190.272 244.051 190.146 244.234 190.016C246.621 188.182 248.41 185.463 250.119 183.018C250.829 182.053 250.829 182.053 251.449 181.744C252.36 181.647 252.36 181.647 253.31 181.744C254.087 182.574 254.395 183.309 254.627 184.408C254.718 184.836 254.718 184.836 254.811 185.271C254.872 185.58 254.934 185.888 254.997 186.206C255.095 186.69 255.095 186.69 255.196 187.183C258.848 205.73 259.161 226.229 249.898 243.252C249.8 243.438 249.703 243.623 249.602 243.815C243.12 256.09 231.366 264.467 218.304 268.618C215.643 269.407 212.934 269.995 210.197 270.452C209.862 270.509 209.527 270.566 209.182 270.625C206.067 271.101 202.999 271.175 199.853 271.168C199 271.167 198.147 271.174 197.293 271.182C192.033 271.201 186.905 270.563 181.797 269.293C181.474 269.214 181.151 269.135 180.819 269.053C165.142 265.095 150.599 255.899 142.173 241.9C139.607 237.477 137.848 232.765 136.687 227.798C136.636 227.595 136.586 227.393 136.533 227.184C134.884 220.419 135.195 212.302 136.687 205.544C136.74 205.295 136.794 205.046 136.848 204.79C139.391 193.166 145.516 177.142 154.677 169.071C155.258 168.801 155.258 168.801 155.917 168.762C157.141 169.38 157.936 170.127 158.825 171.158C159.07 171.434 159.315 171.71 159.567 171.994C159.795 172.254 160.024 172.513 160.26 172.78C162.843 175.698 166.252 177.877 169.565 179.889C169.593 179.699 169.621 179.508 169.649 179.311C171.251 168.556 174.821 159.473 180.833 150.426C184.653 144.693 184.653 144.693 187.555 138.471C187.675 138.146 187.796 137.821 187.92 137.486C190.073 130.742 188.692 123.984 186.093 117.609C185.521 116.17 185.214 115.012 185.383 113.435C186.004 112.817 186.004 112.817 187.126 112.717ZM190.656 118.072C190.739 118.393 190.821 118.714 190.906 119.045C191.243 120.367 191.571 121.692 191.897 123.017C191.966 123.295 192.035 123.573 192.107 123.86C194.046 132.446 191.704 140.443 187.151 147.776C186.452 148.875 185.737 149.963 185.019 151.049C178.69 160.625 174.416 170.013 173.31 181.534C173.264 181.979 173.264 181.979 173.217 182.433C173.192 182.696 173.168 182.959 173.143 183.229C172.946 184.033 172.711 184.346 172.046 184.835C170.452 184.796 169.208 184.089 167.859 183.309C167.643 183.185 167.426 183.061 167.203 182.933C163.699 180.89 160.627 178.535 157.699 175.737C157.024 175.108 156.361 174.547 155.607 174.017C145.203 188.457 137.066 205.983 139.717 224.202C139.902 225.208 140.142 226.194 140.409 227.18C140.469 227.416 140.529 227.652 140.591 227.896C142.487 235.267 145.979 241.529 150.955 247.271C151.166 247.518 151.376 247.766 151.593 248.022C152.932 249.566 154.339 250.92 155.917 252.216C156.07 252.346 156.223 252.476 156.381 252.611C162.1 257.478 169.38 261.953 176.699 263.961C177.006 263.859 177.313 263.757 177.629 263.652C177.415 263.457 177.201 263.262 176.981 263.061C170.457 256.872 167.606 248.399 167.336 239.541C167.25 234.775 167.681 230.133 168.615 225.461C168.664 225.208 168.713 224.956 168.763 224.696C169.142 222.927 169.142 222.927 170.185 222.234C171.038 222.176 171.038 222.176 172.046 222.544C172.644 223.185 173.146 223.865 173.661 224.574C174.187 225.284 174.731 225.925 175.342 226.562C175.506 226.734 175.67 226.906 175.838 227.083C176.521 227.587 177.112 227.654 177.939 227.798C177.961 227.585 177.983 227.373 178.005 227.154C179.114 216.475 181.209 205.897 188.485 197.507C188.876 197.05 188.876 197.05 189.274 196.582C193.094 192.21 199.349 186.301 205.37 185.646C206.165 185.762 206.165 185.762 206.785 186.38C206.731 188.05 206.413 189.424 205.854 190.997C204.616 194.583 204.691 197.841 206.35 201.332C206.982 202.449 207.647 203.535 208.336 204.616C211.569 209.735 213.732 214.476 215.159 220.38C216.463 219.947 217.293 219.333 218.3 218.409C218.695 218.052 218.695 218.052 219.097 217.687C219.814 217.014 219.814 217.014 220.323 216.288C220.743 215.744 220.743 215.744 221.518 215.492C222.293 215.434 222.293 215.434 223.224 215.744C223.738 216.41 224.202 217.068 224.658 217.772C224.794 217.979 224.93 218.187 225.07 218.401C230.652 227.027 234.737 236.906 232.657 247.332C231.621 252.019 229.431 256.011 226.326 259.634C226.137 259.856 225.948 260.079 225.754 260.308C225.327 260.807 224.896 261.303 224.465 261.798C229.462 260.301 233.77 256.654 237.492 253.143C237.766 252.89 238.04 252.637 238.323 252.375C249.163 242.032 253.347 226.343 253.678 211.809C253.786 203.796 252.879 196.096 251.449 188.235C250.613 189.062 249.786 189.895 248.974 190.745C246.264 193.554 243.492 196.213 239.372 196.368C237.223 196.319 235.66 195.592 234.08 194.107C233.406 193.056 233.359 192.135 233.307 190.902C233.287 190.506 233.268 190.109 233.248 189.701C233.238 189.491 233.229 189.28 233.219 189.063C232.563 175.123 229.458 161.675 222.914 149.289C222.762 148.993 222.61 148.697 222.453 148.391C215.669 135.477 203.973 124.111 190.656 118.072ZM193.758 197.198C193.538 197.394 193.319 197.59 193.093 197.791C185.266 204.987 182.485 216.183 181.728 226.319C181.681 226.873 181.681 226.873 181.632 227.438C181.608 227.768 181.583 228.098 181.558 228.438C181.309 229.529 180.876 230.083 180.111 230.889C178.727 231.628 177.251 231.61 175.774 231.169C174.601 230.645 173.656 229.839 172.667 229.034C172.359 228.83 172.052 228.626 171.736 228.416C169.862 237.627 170.298 248.034 175.623 256.091C179.744 261.997 185.963 265.87 193.066 267.157C202.499 268.533 212.124 266.565 219.812 260.871C225.078 256.778 228.506 251.229 229.611 244.625C230.628 236.042 227.12 227.155 221.983 220.38C220.954 220.838 220.184 221.431 219.327 222.157C215.279 225.417 215.279 225.417 213.216 225.237C212.368 225.016 212.368 225.016 212.058 224.707C211.96 224.045 211.865 223.382 211.779 222.718C210.959 216.459 208.58 211.52 205.176 206.278C202.028 201.418 201.08 197.06 201.822 191.326C199.087 191.326 195.649 195.384 193.758 197.198Z" fill="#89744F" stroke="#89744F" stroke-width="3"/>
<circle cx="196.5" cy="192.5" r="117" stroke="#89744F" stroke-width="7"/>
<line x1="107.017" y1="118.14" x2="297.017" y2="252.14" stroke="#89744F" stroke-width="7"/>
</svg>
