<svg width="386" height="386" viewBox="0 0 386 386" fill="none" xmlns="http://www.w3.org/2000/svg">
<mask id="path-1-inside-1_2919_11351" fill="white">
<path d="M174.126 116.717C175.576 116.757 176.704 117.193 178.005 117.802C178.242 117.911 178.479 118.019 178.724 118.131C185.45 121.302 191.294 125.581 196.887 130.417C197.126 130.617 197.365 130.817 197.611 131.023C198.832 132.053 199.899 133.135 200.931 134.352C201.646 135.176 202.397 135.961 203.148 136.753C216.02 150.616 222.688 170.095 223.732 188.722C223.751 189.053 223.751 189.053 223.77 189.39C223.829 190.46 223.878 191.53 223.915 192.602C223.933 192.985 223.95 193.368 223.968 193.763C223.98 194.103 223.991 194.442 224.003 194.792C224.109 195.663 224.109 195.663 224.744 196.214C225.832 196.772 226.781 196.609 227.903 196.253C228.907 195.723 229.795 195.086 230.695 194.398C230.873 194.272 231.051 194.146 231.234 194.016C233.621 192.182 235.41 189.463 237.119 187.018C237.829 186.053 237.829 186.053 238.449 185.744C239.36 185.647 239.36 185.647 240.31 185.744C241.087 186.574 241.395 187.309 241.627 188.408C241.718 188.836 241.718 188.836 241.811 189.271C241.872 189.58 241.934 189.888 241.997 190.206C242.095 190.69 242.095 190.69 242.196 191.183C245.848 209.73 246.161 230.229 236.898 247.252C236.8 247.438 236.703 247.623 236.602 247.815C230.12 260.09 218.366 268.467 205.304 272.618C202.643 273.407 199.934 273.995 197.197 274.452C196.862 274.509 196.527 274.566 196.182 274.625C193.067 275.101 189.999 275.175 186.853 275.168C186 275.167 185.147 275.174 184.293 275.182C179.033 275.201 173.905 274.563 168.797 273.293C168.474 273.214 168.151 273.135 167.819 273.053C152.142 269.095 137.599 259.899 129.173 245.9C126.607 241.477 124.848 236.765 123.687 231.798C123.636 231.595 123.586 231.393 123.533 231.184C121.884 224.419 122.195 216.302 123.687 209.544C123.74 209.295 123.794 209.046 123.848 208.79C126.391 197.166 132.516 181.142 141.677 173.071C142.258 172.801 142.258 172.801 142.917 172.762C144.141 173.38 144.936 174.127 145.825 175.158C146.07 175.434 146.315 175.71 146.567 175.994C146.795 176.254 147.024 176.513 147.26 176.78C149.843 179.698 153.252 181.877 156.565 183.889C156.593 183.699 156.621 183.508 156.649 183.311C158.251 172.556 161.821 163.473 167.833 154.426C171.653 148.693 171.653 148.693 174.555 142.471C174.675 142.146 174.796 141.821 174.92 141.486C177.073 134.742 175.692 127.984 173.093 121.609C172.521 120.17 172.214 119.012 172.383 117.435C173.004 116.817 173.004 116.817 174.126 116.717ZM177.656 122.072C177.739 122.393 177.821 122.714 177.906 123.045C178.243 124.367 178.571 125.692 178.897 127.017C178.966 127.295 179.035 127.573 179.107 127.86C181.046 136.446 178.704 144.443 174.151 151.776C173.452 152.875 172.737 153.963 172.019 155.049C165.69 164.625 161.416 174.013 160.31 185.534C160.264 185.979 160.264 185.979 160.217 186.433C160.192 186.696 160.168 186.959 160.143 187.229C159.946 188.033 159.711 188.346 159.046 188.835C157.452 188.796 156.208 188.089 154.859 187.309C154.643 187.185 154.426 187.061 154.203 186.933C150.699 184.89 147.627 182.535 144.699 179.737C144.024 179.108 143.361 178.547 142.607 178.017C132.203 192.457 124.066 209.983 126.717 228.202C126.902 229.208 127.142 230.194 127.409 231.18C127.469 231.416 127.529 231.652 127.591 231.896C129.487 239.267 132.979 245.529 137.955 251.271C138.166 251.518 138.376 251.766 138.593 252.022C139.932 253.566 141.339 254.92 142.917 256.216C143.07 256.346 143.223 256.476 143.381 256.611C149.1 261.478 156.38 265.953 163.699 267.961C164.006 267.859 164.313 267.757 164.629 267.652C164.415 267.457 164.201 267.262 163.981 267.061C157.457 260.872 154.606 252.399 154.336 243.541C154.25 238.775 154.681 234.133 155.615 229.461C155.664 229.208 155.713 228.956 155.763 228.696C156.142 226.927 156.142 226.927 157.185 226.234C158.038 226.176 158.038 226.176 159.046 226.544C159.644 227.185 160.146 227.865 160.661 228.574C161.187 229.284 161.731 229.925 162.342 230.562C162.506 230.734 162.67 230.906 162.838 231.083C163.521 231.587 164.112 231.654 164.939 231.798C164.961 231.585 164.983 231.373 165.005 231.154C166.114 220.475 168.209 209.897 175.485 201.507C175.876 201.05 175.876 201.05 176.274 200.582C180.094 196.21 186.349 190.301 192.37 189.646C193.165 189.762 193.165 189.762 193.785 190.38C193.731 192.05 193.413 193.424 192.854 194.997C191.616 198.583 191.691 201.841 193.35 205.332C193.982 206.449 194.647 207.535 195.336 208.616C198.569 213.735 200.732 218.476 202.159 224.38C203.463 223.947 204.293 223.333 205.3 222.409C205.695 222.052 205.695 222.052 206.097 221.687C206.814 221.014 206.814 221.014 207.323 220.288C207.743 219.744 207.743 219.744 208.518 219.492C209.293 219.434 209.293 219.434 210.224 219.744C210.738 220.41 211.202 221.068 211.658 221.772C211.794 221.979 211.93 222.187 212.07 222.401C217.652 231.027 221.737 240.906 219.657 251.332C218.621 256.019 216.431 260.011 213.326 263.634C213.137 263.856 212.948 264.079 212.754 264.308C212.327 264.807 211.896 265.303 211.465 265.798C216.462 264.301 220.77 260.654 224.492 257.143C224.766 256.89 225.04 256.637 225.323 256.375C236.163 246.032 240.347 230.343 240.678 215.809C240.786 207.796 239.879 200.096 238.449 192.235C237.613 193.062 236.786 193.895 235.974 194.745C233.264 197.554 230.492 200.213 226.372 200.368C224.223 200.319 222.66 199.592 221.08 198.107C220.406 197.056 220.359 196.135 220.307 194.902C220.287 194.506 220.268 194.109 220.248 193.701C220.238 193.491 220.229 193.28 220.219 193.063C219.563 179.123 216.458 165.675 209.914 153.289C209.762 152.993 209.61 152.697 209.453 152.391C202.669 139.477 190.973 128.111 177.656 122.072ZM180.758 201.198C180.538 201.394 180.319 201.59 180.093 201.791C172.266 208.987 169.485 220.183 168.728 230.319C168.681 230.873 168.681 230.873 168.632 231.438C168.608 231.768 168.583 232.098 168.558 232.438C168.309 233.529 167.876 234.083 167.111 234.889C165.727 235.628 164.251 235.61 162.774 235.169C161.601 234.645 160.656 233.839 159.667 233.034C159.359 232.83 159.052 232.626 158.736 232.416C156.862 241.627 157.298 252.034 162.623 260.091C166.744 265.997 172.963 269.87 180.066 271.157C189.499 272.533 199.124 270.565 206.812 264.871C212.078 260.778 215.506 255.229 216.611 248.625C217.628 240.042 214.12 231.155 208.983 224.38C207.954 224.838 207.184 225.431 206.327 226.157C202.279 229.417 202.279 229.417 200.216 229.237C199.368 229.016 199.368 229.016 199.058 228.707C198.96 228.045 198.865 227.382 198.779 226.718C197.959 220.459 195.58 215.52 192.176 210.278C189.028 205.418 188.08 201.06 188.822 195.326C186.087 195.326 182.649 199.384 180.758 201.198Z"/>
</mask>
<path d="M174.126 116.717C175.576 116.757 176.704 117.193 178.005 117.802C178.242 117.911 178.479 118.019 178.724 118.131C185.45 121.302 191.294 125.581 196.887 130.417C197.126 130.617 197.365 130.817 197.611 131.023C198.832 132.053 199.899 133.135 200.931 134.352C201.646 135.176 202.397 135.961 203.148 136.753C216.02 150.616 222.688 170.095 223.732 188.722C223.751 189.053 223.751 189.053 223.77 189.39C223.829 190.46 223.878 191.53 223.915 192.602C223.933 192.985 223.95 193.368 223.968 193.763C223.98 194.103 223.991 194.442 224.003 194.792C224.109 195.663 224.109 195.663 224.744 196.214C225.832 196.772 226.781 196.609 227.903 196.253C228.907 195.723 229.795 195.086 230.695 194.398C230.873 194.272 231.051 194.146 231.234 194.016C233.621 192.182 235.41 189.463 237.119 187.018C237.829 186.053 237.829 186.053 238.449 185.744C239.36 185.647 239.36 185.647 240.31 185.744C241.087 186.574 241.395 187.309 241.627 188.408C241.718 188.836 241.718 188.836 241.811 189.271C241.872 189.58 241.934 189.888 241.997 190.206C242.095 190.69 242.095 190.69 242.196 191.183C245.848 209.73 246.161 230.229 236.898 247.252C236.8 247.438 236.703 247.623 236.602 247.815C230.12 260.09 218.366 268.467 205.304 272.618C202.643 273.407 199.934 273.995 197.197 274.452C196.862 274.509 196.527 274.566 196.182 274.625C193.067 275.101 189.999 275.175 186.853 275.168C186 275.167 185.147 275.174 184.293 275.182C179.033 275.201 173.905 274.563 168.797 273.293C168.474 273.214 168.151 273.135 167.819 273.053C152.142 269.095 137.599 259.899 129.173 245.9C126.607 241.477 124.848 236.765 123.687 231.798C123.636 231.595 123.586 231.393 123.533 231.184C121.884 224.419 122.195 216.302 123.687 209.544C123.74 209.295 123.794 209.046 123.848 208.79C126.391 197.166 132.516 181.142 141.677 173.071C142.258 172.801 142.258 172.801 142.917 172.762C144.141 173.38 144.936 174.127 145.825 175.158C146.07 175.434 146.315 175.71 146.567 175.994C146.795 176.254 147.024 176.513 147.26 176.78C149.843 179.698 153.252 181.877 156.565 183.889C156.593 183.699 156.621 183.508 156.649 183.311C158.251 172.556 161.821 163.473 167.833 154.426C171.653 148.693 171.653 148.693 174.555 142.471C174.675 142.146 174.796 141.821 174.92 141.486C177.073 134.742 175.692 127.984 173.093 121.609C172.521 120.17 172.214 119.012 172.383 117.435C173.004 116.817 173.004 116.817 174.126 116.717ZM177.656 122.072C177.739 122.393 177.821 122.714 177.906 123.045C178.243 124.367 178.571 125.692 178.897 127.017C178.966 127.295 179.035 127.573 179.107 127.86C181.046 136.446 178.704 144.443 174.151 151.776C173.452 152.875 172.737 153.963 172.019 155.049C165.69 164.625 161.416 174.013 160.31 185.534C160.264 185.979 160.264 185.979 160.217 186.433C160.192 186.696 160.168 186.959 160.143 187.229C159.946 188.033 159.711 188.346 159.046 188.835C157.452 188.796 156.208 188.089 154.859 187.309C154.643 187.185 154.426 187.061 154.203 186.933C150.699 184.89 147.627 182.535 144.699 179.737C144.024 179.108 143.361 178.547 142.607 178.017C132.203 192.457 124.066 209.983 126.717 228.202C126.902 229.208 127.142 230.194 127.409 231.18C127.469 231.416 127.529 231.652 127.591 231.896C129.487 239.267 132.979 245.529 137.955 251.271C138.166 251.518 138.376 251.766 138.593 252.022C139.932 253.566 141.339 254.92 142.917 256.216C143.07 256.346 143.223 256.476 143.381 256.611C149.1 261.478 156.38 265.953 163.699 267.961C164.006 267.859 164.313 267.757 164.629 267.652C164.415 267.457 164.201 267.262 163.981 267.061C157.457 260.872 154.606 252.399 154.336 243.541C154.25 238.775 154.681 234.133 155.615 229.461C155.664 229.208 155.713 228.956 155.763 228.696C156.142 226.927 156.142 226.927 157.185 226.234C158.038 226.176 158.038 226.176 159.046 226.544C159.644 227.185 160.146 227.865 160.661 228.574C161.187 229.284 161.731 229.925 162.342 230.562C162.506 230.734 162.67 230.906 162.838 231.083C163.521 231.587 164.112 231.654 164.939 231.798C164.961 231.585 164.983 231.373 165.005 231.154C166.114 220.475 168.209 209.897 175.485 201.507C175.876 201.05 175.876 201.05 176.274 200.582C180.094 196.21 186.349 190.301 192.37 189.646C193.165 189.762 193.165 189.762 193.785 190.38C193.731 192.05 193.413 193.424 192.854 194.997C191.616 198.583 191.691 201.841 193.35 205.332C193.982 206.449 194.647 207.535 195.336 208.616C198.569 213.735 200.732 218.476 202.159 224.38C203.463 223.947 204.293 223.333 205.3 222.409C205.695 222.052 205.695 222.052 206.097 221.687C206.814 221.014 206.814 221.014 207.323 220.288C207.743 219.744 207.743 219.744 208.518 219.492C209.293 219.434 209.293 219.434 210.224 219.744C210.738 220.41 211.202 221.068 211.658 221.772C211.794 221.979 211.93 222.187 212.07 222.401C217.652 231.027 221.737 240.906 219.657 251.332C218.621 256.019 216.431 260.011 213.326 263.634C213.137 263.856 212.948 264.079 212.754 264.308C212.327 264.807 211.896 265.303 211.465 265.798C216.462 264.301 220.77 260.654 224.492 257.143C224.766 256.89 225.04 256.637 225.323 256.375C236.163 246.032 240.347 230.343 240.678 215.809C240.786 207.796 239.879 200.096 238.449 192.235C237.613 193.062 236.786 193.895 235.974 194.745C233.264 197.554 230.492 200.213 226.372 200.368C224.223 200.319 222.66 199.592 221.08 198.107C220.406 197.056 220.359 196.135 220.307 194.902C220.287 194.506 220.268 194.109 220.248 193.701C220.238 193.491 220.229 193.28 220.219 193.063C219.563 179.123 216.458 165.675 209.914 153.289C209.762 152.993 209.61 152.697 209.453 152.391C202.669 139.477 190.973 128.111 177.656 122.072ZM180.758 201.198C180.538 201.394 180.319 201.59 180.093 201.791C172.266 208.987 169.485 220.183 168.728 230.319C168.681 230.873 168.681 230.873 168.632 231.438C168.608 231.768 168.583 232.098 168.558 232.438C168.309 233.529 167.876 234.083 167.111 234.889C165.727 235.628 164.251 235.61 162.774 235.169C161.601 234.645 160.656 233.839 159.667 233.034C159.359 232.83 159.052 232.626 158.736 232.416C156.862 241.627 157.298 252.034 162.623 260.091C166.744 265.997 172.963 269.87 180.066 271.157C189.499 272.533 199.124 270.565 206.812 264.871C212.078 260.778 215.506 255.229 216.611 248.625C217.628 240.042 214.12 231.155 208.983 224.38C207.954 224.838 207.184 225.431 206.327 226.157C202.279 229.417 202.279 229.417 200.216 229.237C199.368 229.016 199.368 229.016 199.058 228.707C198.96 228.045 198.865 227.382 198.779 226.718C197.959 220.459 195.58 215.52 192.176 210.278C189.028 205.418 188.08 201.06 188.822 195.326C186.087 195.326 182.649 199.384 180.758 201.198Z" fill="#89744F" stroke="#89744F" stroke-width="2" mask="url(#path-1-inside-1_2919_11351)"/>
<circle cx="183.5" cy="196.5" r="118.5" stroke="#89744F" stroke-width="4"/>
<line x1="93.9051" y1="115.112" x2="287.585" y2="259.272" stroke="#89744F" stroke-width="4"/>
</svg>
