<svg width="134" height="134" viewBox="0 0 134 134" fill="none" xmlns="http://www.w3.org/2000/svg">
<path d="M47.8987 30.0565C44.0656 30.5867 40.7975 32.6206 38.6767 35.7845C37.4685 37.5837 36.8427 39.2178 36.5558 41.356C35.8952 46.1626 38.0161 52.4816 42.5272 59.1743C44.2568 61.7385 46.8383 65.0153 48.4376 66.6754C49.1243 67.3969 49.1764 67.4316 49.5328 67.4316C49.7327 67.4316 49.9935 67.3708 50.1152 67.2926C50.3585 67.1274 52.1838 64.8588 53.5572 62.9988C58.668 56.0887 61.8405 49.7958 62.5446 45.1978C62.7271 44.0505 62.7184 42.0079 62.5359 40.9388C61.6232 35.5585 57.5815 31.369 52.2012 30.213C51.2973 30.0218 48.8114 29.9348 47.8987 30.0565ZM51.6623 32.0991C56.3559 33.0726 59.9283 36.7667 60.641 41.3994C60.8062 42.4512 60.7627 44.346 60.5454 45.4325C59.7545 49.4307 57.0252 54.8197 52.7749 60.7389C51.7666 62.1557 50.3151 64.0592 49.7501 64.7198L49.5067 64.9979L48.5333 63.8506C43.3703 57.7576 39.9109 51.6385 38.8157 46.7015C38.3203 44.4677 38.2421 42.7641 38.5637 41.0605C39.4937 36.193 43.4398 32.5598 48.5072 31.934C49.0895 31.8644 51.0017 31.96 51.6623 32.0991Z" fill="black"/>
<path d="M47.987 35.3149C45.0926 35.8972 42.7805 38.0354 41.9374 40.8951C41.4854 42.4249 41.5723 44.5283 42.1373 45.9625C43.4846 49.3784 47.083 51.5253 50.6032 51.0124C53.8453 50.5344 56.3138 48.3875 57.2612 45.2236C57.4698 44.5283 57.4872 44.3023 57.4872 43.1376C57.4872 42.0685 57.4524 41.7034 57.3047 41.1385C56.9309 39.7825 56.1313 38.3918 55.2099 37.4879C54.7927 37.0793 54.7319 37.0533 54.3233 37.0533C53.9322 37.0533 53.854 37.088 53.628 37.3401C53.4542 37.54 53.3759 37.7138 53.3759 37.9311C53.3759 38.331 53.4715 38.5048 54.0713 39.1654C55.2621 40.4605 55.8097 42.3205 55.5141 44.0502C55.2534 45.5452 54.5146 46.8316 53.4107 47.7269C52.1156 48.7699 50.9683 49.1437 49.282 49.0741C47.6045 48.9959 46.5528 48.5266 45.3359 47.3097C44.2408 46.2145 43.6845 45.0063 43.5802 43.4853C43.4237 41.0602 44.7623 38.783 46.9874 37.7052C47.7262 37.3488 48.7431 37.0967 49.4559 37.0967C49.7949 37.0967 49.9426 37.0446 50.1599 36.862C50.3077 36.7404 50.4641 36.5491 50.5076 36.4448C50.6206 36.158 50.4555 35.6017 50.2034 35.3757C50.0035 35.2106 49.8818 35.1845 49.2647 35.1932C48.8735 35.1932 48.2999 35.254 47.987 35.3149Z" fill="black"/>
<path d="M31.3758 60.2526C30.5935 60.5742 30.0111 61.0696 29.6809 61.7128C29.5592 61.9475 27.0907 68.3708 26.2997 70.5177C26.1346 70.9436 25.7695 71.9258 25.474 72.6907C25.1785 73.4556 24.6048 74.9593 24.1963 76.0371C23.7878 77.1149 23.3097 78.3839 23.1272 78.8619C22.9446 79.34 22.5796 80.2961 22.3188 80.9914C22.0581 81.6868 21.0585 84.3117 20.0937 86.8324C17.8599 92.6994 17.9729 92.3604 18.0163 93.1601C18.1033 94.6551 19.0767 95.8024 20.5022 96.1066C21.1628 96.2457 112.88 96.2457 113.54 96.1066C114.522 95.898 115.339 95.2461 115.748 94.3509C115.974 93.8728 116 93.7164 116 92.9862L115.991 92.1605L111.897 81.2522C109.646 75.2548 107.1 68.4577 106.239 66.1544C105.379 63.851 104.605 61.8432 104.527 61.6868C104.257 61.1826 103.631 60.6003 103.066 60.3395L102.528 60.0874L83.5879 60.0614C62.5101 60.044 64.3615 59.9831 64.092 60.635C63.9095 61.0696 64.0573 61.5564 64.4397 61.7824C64.7092 61.9562 65.0308 61.9562 83.3011 61.9562C103.336 61.9562 102.197 61.9301 102.632 62.3995C102.736 62.5125 103.266 63.7989 103.814 65.2591C104.362 66.7194 104.874 68.0666 104.944 68.2578C105.022 68.449 106.343 71.9693 107.873 76.0805C109.412 80.1918 111.315 85.2765 112.106 87.38C114.192 92.9428 114.157 92.8385 114.088 93.2209C114.053 93.4208 113.914 93.6642 113.705 93.8641C113.445 94.1336 113.306 94.1944 112.914 94.2379C112.654 94.2726 91.8192 94.29 66.6127 94.2726L20.7891 94.2466L20.5544 94.064C20.2067 93.8033 19.9981 93.4991 19.9459 93.1514C19.8938 92.8385 20.0155 92.4995 22.2145 86.7281C22.5187 85.9371 23.7704 82.6516 24.9959 79.4269C26.2215 76.2022 27.3688 73.1687 27.56 72.6907C28.0468 71.413 30.7586 64.2856 31.0542 63.4773C31.5931 62.017 31.7061 61.9562 33.7747 61.9562C35.2871 61.9562 35.5392 61.9041 35.7739 61.5477C35.939 61.2956 35.9651 60.7567 35.826 60.496C35.6174 60.0961 35.3306 60.044 33.5401 60.044C31.9929 60.044 31.8277 60.0614 31.3758 60.2526Z" fill="black"/>
<path d="M68.3695 65.8668C68.0566 65.9885 67.8046 66.3449 67.7872 66.6578C67.7785 66.8316 67.9349 67.3618 68.1349 67.866C68.3261 68.3701 68.6651 69.248 68.8911 69.8216C69.2909 70.8386 69.6907 71.8642 70.4034 73.6808C70.6034 74.185 70.7598 74.6196 70.7598 74.6543C70.7598 74.6891 70.3861 74.9151 69.9341 75.1672C68.9432 75.7234 67.9176 76.5231 67.2744 77.2706C67.0049 77.5661 66.0227 78.8438 65.084 80.0955L63.3717 82.3814H46.8571C35.3317 82.3814 30.2904 82.4075 30.1513 82.477C29.5689 82.7465 29.4386 83.5374 29.8992 84.0242L30.1513 84.2936H37.974C42.2852 84.2936 45.8228 84.3197 45.8402 84.3545C45.8575 84.3979 45.5707 85.3454 45.1883 86.4666C44.8145 87.5879 44.5016 88.6483 44.5016 88.8221C44.4842 89.3871 44.8927 89.7695 45.5099 89.7695C46.1096 89.7695 46.2052 89.587 47.1179 86.8491L47.961 84.3371L56.1401 84.2936L64.3278 84.2502L64.5277 84.0329C64.6494 83.9112 65.5881 82.677 66.6312 81.2949C67.6655 79.9042 68.7172 78.5657 68.9693 78.3136C69.8819 77.3662 71.3856 76.5231 72.8459 76.1146C73.4717 75.9407 73.7846 75.9147 74.8885 75.9147C76.3661 75.9147 76.6355 75.9668 78.4521 76.6448C79.0779 76.8795 80.599 77.4444 81.842 77.9051C85.649 79.3132 88.7433 80.4605 89.795 80.8517C90.3426 81.0603 91.3683 81.4427 92.0723 81.6948C92.7764 81.9555 93.3587 82.1989 93.3587 82.2337C93.3587 82.2684 92.4374 83.4418 91.3161 84.8412C89.1345 87.5531 89.0389 87.7096 89.2996 88.2571C89.5604 88.796 90.3339 88.9699 90.7685 88.5787C90.8641 88.5005 91.8637 87.275 92.9937 85.8756C94.1236 84.4675 95.1319 83.2332 95.2275 83.1202L95.4013 82.929L99.3127 84.3893C103.354 85.9016 103.719 85.9973 104.128 85.7191C104.589 85.3975 104.658 84.6587 104.267 84.2676C104.145 84.1546 103.476 83.8504 102.685 83.5635C101.929 83.2854 99.9993 82.564 98.4 81.9729C96.8007 81.3732 94.958 80.6952 94.3148 80.4518C93.6716 80.2171 92.2635 79.6956 91.1857 79.2958C90.108 78.896 88.0567 78.1311 86.6225 77.6009C85.1883 77.062 83.9976 76.6187 83.9802 76.6013C83.9628 76.5839 84.8233 75.5409 85.8924 74.2806C86.9615 73.0203 88.5173 71.195 89.3518 70.2128C90.1775 69.2306 90.8728 68.4223 90.8815 68.4049C90.8989 68.3875 92.0723 68.796 93.4978 69.3001C94.932 69.813 96.8007 70.4822 97.6612 70.7864C99.4604 71.4296 99.782 71.4644 100.138 71.082C100.425 70.7691 100.495 70.4127 100.338 70.0216C100.191 69.6478 100.051 69.5696 98.8781 69.1524C98.3566 68.9612 97.3744 68.6135 96.7051 68.3788C96.0358 68.1354 95.1145 67.8051 94.6625 67.6487C94.2105 67.4922 93.1762 67.1185 92.3678 66.8316C91.4639 66.5013 90.7598 66.3014 90.5425 66.3014C90.0645 66.3014 90.3948 65.9451 85.7533 71.4296C85.084 72.2206 84.0671 73.4114 83.4934 74.0807C82.9198 74.7586 82.3461 75.4366 82.207 75.5931L81.9723 75.8799L80.2948 75.2454C78.2348 74.4718 77.5047 74.2371 76.6703 74.072C75.9141 73.9242 73.915 73.8981 73.2022 74.0372C72.9415 74.0894 72.6981 74.0981 72.6633 74.0633C72.6286 74.0198 72.0114 72.464 71.29 70.6039C69.5082 66.0233 69.5516 66.1276 69.2387 65.9451C68.9606 65.7712 68.6564 65.7452 68.3695 65.8668Z" fill="black"/>
<path d="M39.4308 67.6059C38.1704 68.449 37.6055 69.3442 37.6055 70.4742C37.6055 71.2999 37.8749 71.917 38.5268 72.6124C41.6993 75.9675 52.8076 76.741 58.5442 74.0031C59.0744 73.751 59.7524 73.3512 60.0566 73.1252C61.4125 72.0909 61.9167 70.648 61.343 69.4051C60.8997 68.4403 59.5264 67.2582 58.8397 67.2582C58.1965 67.2582 57.7359 67.9622 57.9706 68.5794C58.014 68.7097 58.3443 69.0226 58.7094 69.2921C59.6742 70.0048 59.8306 70.4307 59.3786 71.0652C58.5529 72.1952 55.9454 73.1513 52.5121 73.5685C51.0171 73.751 47.2013 73.6989 45.8715 73.4816C42.9249 72.9948 41.0561 72.3082 40.074 71.3521C39.6133 70.9001 39.5525 70.8045 39.5525 70.5003C39.5525 70.0831 39.8914 69.6485 40.5955 69.1704C41.2213 68.7445 41.3777 68.5359 41.3777 68.1013C41.3777 67.8319 41.3169 67.7015 41.0822 67.4668C40.6389 67.0235 40.2652 67.0496 39.4308 67.6059Z" fill="black"/>
</svg>
