<svg width="134" height="134" viewBox="0 0 134 134" fill="none" xmlns="http://www.w3.org/2000/svg">
<path d="M68.7027 14.2358L68.4814 14.4723L68.4662 19.4399L68.4433 24.4152L68.0541 24.5067C67.8405 24.5601 66.9324 24.7585 66.032 24.9417C61.8427 25.8116 60.6447 26.0786 60.4463 26.1855C60.0114 26.4068 60.0037 26.4754 60.0266 30.4434L60.0495 34.068L60.3013 34.3122C60.5074 34.5258 60.6066 34.564 60.8965 34.564C61.1941 34.564 61.2781 34.5258 61.4688 34.3122L61.6901 34.068V30.8631V27.6582L61.8656 27.5819C61.9572 27.5361 62.6897 27.3682 63.4833 27.2004C64.2846 27.0401 65.742 26.7349 66.7264 26.5212C70.351 25.7582 71.0988 25.5979 71.1598 25.5979C71.198 25.5979 71.2361 27.1775 71.2438 29.1157L71.2667 32.6334L71.5185 32.8547C71.7855 33.0989 72.1366 33.1447 72.4876 32.9844C72.8996 32.8013 72.9073 32.7326 72.9073 29.3751C72.9073 26.857 72.9225 26.277 73.0065 26.2999C73.0599 26.3152 74.2655 27.1622 75.6772 28.1924L78.2488 30.0619V33.4423C78.2488 37.1508 78.2488 37.1508 78.7066 37.3874C78.9889 37.5323 79.1873 37.5323 79.4697 37.3874C79.9351 37.1508 79.9275 37.1813 79.9275 33.0913C79.9275 29.4438 79.9275 29.3522 79.7673 29.1615C79.6452 28.9936 78.3098 27.994 76.0358 26.361C75.8374 26.216 74.9218 25.5521 74.0137 24.8883C72.7623 23.9878 72.3044 23.6902 72.1289 23.6902C72.0068 23.6902 71.5261 23.7742 71.0606 23.881C70.5952 23.9878 70.206 24.0718 70.1907 24.0718C70.1755 24.0718 70.1602 21.9581 70.1602 19.3713C70.1602 15.2888 70.1449 14.6402 70.0457 14.4189C69.9008 14.129 69.6566 13.9992 69.2369 13.9992C68.9851 13.9992 68.8782 14.045 68.7027 14.2358Z" fill="black"/>
<path d="M66.4966 28.7341C66.2219 28.7723 65.8556 28.818 65.6801 28.8409C65.0086 28.9325 64.6423 29.5353 64.9323 30.0695C65.1307 30.4358 65.4588 30.5655 66.0311 30.5121L66.4966 30.4586V31.1759C66.4966 32.0306 66.6339 32.3358 67.0536 32.4503C67.4352 32.5571 67.687 32.4808 67.9464 32.1832L68.1753 31.9237V30.6265C68.1753 29.1919 68.1219 28.9707 67.7175 28.7646C67.4733 28.6425 67.252 28.6349 66.4966 28.7341Z" fill="black"/>
<path d="M70.3153 35.4034C69.4988 35.5026 67.469 35.7468 65.8132 35.9299C64.1573 36.1207 61.2882 36.4488 59.4415 36.6624C55.8704 37.0669 55.8322 37.0745 55.6109 37.5095C55.5346 37.6468 55.5117 38.5778 55.5117 41.2256V44.7663L55.7712 45.0257C55.9848 45.2394 56.0917 45.2852 56.3511 45.2852C56.6105 45.2852 56.7174 45.2394 56.931 45.0257L57.1905 44.7663V41.7063C57.1905 39.3179 57.2134 38.6312 57.2897 38.6083C57.3355 38.593 58.9455 38.4023 60.8532 38.1886C62.7609 37.9749 65.5308 37.6697 66.9959 37.5018C68.4687 37.334 69.9109 37.1661 70.2008 37.1279C70.4984 37.0821 70.8494 37.044 70.9792 37.044H71.231L71.2462 45.7888L71.2691 54.5336L71.5209 54.7549C71.788 54.999 72.139 55.0448 72.49 54.8846C72.9326 54.6862 72.9097 55.0982 72.9097 46.0101C72.9097 41.4164 72.925 37.6544 72.9479 37.6544C72.9784 37.6544 73.5126 37.9902 74.1535 38.3946C74.7945 38.799 75.8094 39.4477 76.4199 39.8292C77.0303 40.2184 78.4344 41.1188 79.5485 41.8284L81.5706 43.1257L81.6087 45.8651C81.6316 47.3683 81.6774 48.6656 81.7156 48.7419C81.8071 48.9326 82.1658 49.1005 82.4786 49.1005C82.6694 49.1005 82.822 49.0318 82.9975 48.8792L83.2493 48.6579V45.4836V42.3092L83.0204 42.0955C82.8983 41.9734 82.0895 41.4316 81.2272 40.8822C80.3649 40.3405 78.0376 38.8525 76.046 37.5781C73.0318 35.6552 72.368 35.266 72.1161 35.2431C71.9406 35.2355 71.1318 35.3042 70.3153 35.4034Z" fill="black"/>
<path d="M66.5362 40.1048C65.4603 40.2346 65.3535 40.2651 65.1246 40.4482C64.8346 40.6924 64.7659 41.0587 64.9338 41.4173C65.1169 41.7989 65.4451 41.9438 66.0326 41.8828L66.4981 41.8294V42.5238C66.4981 42.9053 66.5286 43.3021 66.5744 43.4089C66.7957 43.9965 67.8182 43.9965 68.0853 43.4089C68.1463 43.2945 68.1768 42.7451 68.1768 41.9591C68.1768 40.5322 68.1158 40.3109 67.6809 40.1277C67.3985 40.0133 67.3222 40.0056 66.5362 40.1048Z" fill="black"/>
<path d="M60.677 40.593C59.8681 40.6998 59.685 40.7914 59.5095 41.2111C59.3721 41.5392 59.4942 41.9513 59.7842 42.1573C59.975 42.2946 60.1047 42.3175 60.532 42.3023L61.0433 42.2794L61.089 43.073C61.1272 43.836 61.1348 43.8666 61.3714 44.0726C61.73 44.4007 62.1497 44.3855 62.5007 44.0344L62.7602 43.775V42.432C62.7602 41.5621 62.7297 41.0279 62.6686 40.8982C62.4778 40.4709 62.0887 40.4099 60.677 40.593Z" fill="black"/>
<path d="M66.1941 46.4756C65.7973 46.529 65.4462 46.5748 65.4157 46.5748C65.3928 46.5825 65.2631 46.674 65.1334 46.7809C64.8358 47.025 64.7595 47.3913 64.9274 47.7423C65.1105 48.1162 65.4462 48.2612 66.0338 48.2078L66.4993 48.162V48.864C66.4993 49.65 66.5985 49.9323 66.919 50.0773C67.2929 50.2528 67.6363 50.1918 67.9186 49.9095L68.178 49.65V48.3452C68.178 46.3001 68.0865 46.2162 66.1941 46.4756Z" fill="black"/>
<path d="M60.7382 46.8951C60.4025 46.9333 60.0362 47.0019 59.9217 47.0477C59.296 47.2995 59.3113 48.3068 59.9446 48.5662C60.0896 48.6273 60.3262 48.6425 60.6238 48.612L61.0816 48.5586V49.253C61.0816 50.039 61.1884 50.3289 61.5395 50.5121C61.9134 50.7028 62.211 50.657 62.5009 50.3671L62.7604 50.1076V48.7646C62.7604 46.9638 62.6764 46.8035 61.7913 46.8188C61.5471 46.8264 61.074 46.8646 60.7382 46.8951Z" fill="black"/>
<path d="M49.9017 48.6137C48.5587 48.7816 46.9257 48.9723 40.7372 49.6667C35.411 50.2696 35.5483 50.2467 35.3118 50.7121C35.2355 50.8571 35.2126 55.8018 35.2126 73.9171V96.9466H34.0527C32.7479 96.9466 32.3892 97.0153 32.1603 97.3053C31.8245 97.7326 32.0458 98.4728 32.5495 98.6025C32.6715 98.6406 37.9673 98.6559 44.3236 98.6406L55.8689 98.6254L56.0673 98.427C56.342 98.1599 56.4107 97.7555 56.2428 97.4502C56.0063 97.0077 55.9223 96.9848 54.2359 96.9619L52.6869 96.9314V96.5803C52.6716 92.2232 52.6945 50.674 52.7174 50.6511C52.7327 50.6358 54.4038 51.3913 56.4336 52.3299C58.4633 53.2761 60.3939 54.1612 60.7144 54.3138L61.3096 54.5885L61.3249 69.0945L61.3477 83.6081L61.5996 83.8294C61.9582 84.1575 62.3779 84.1423 62.7289 83.7913L62.9884 83.5318V68.6443V53.7568L62.7823 53.5355C62.6373 53.3829 61.9735 53.0319 60.8518 52.513C59.9055 52.0704 58.4176 51.3837 57.5324 50.9716C56.6549 50.5672 55.0524 49.827 53.9765 49.3234C51.7407 48.278 52.0917 48.339 49.9017 48.6137ZM51.0081 73.5432C51.0081 86.3552 50.9776 96.8627 50.9471 96.9085C50.9166 96.9619 48.4976 96.9771 43.8887 96.9619L36.8913 96.939L36.9066 74.375L36.9295 51.811L37.7307 51.7194C38.6845 51.6049 43.4537 51.0632 47.6506 50.5901C49.3065 50.3993 50.7182 50.239 50.7792 50.2238C50.8403 50.2085 50.9166 50.2085 50.9547 50.2238C50.9852 50.239 51.0081 60.7389 51.0081 73.5432Z" fill="black"/>
<path d="M40.6751 53.1905C39.7365 53.2973 39.4999 53.3889 39.2863 53.717C39.1108 53.9917 39.1871 54.48 39.4465 54.7395C39.622 54.9226 39.6907 54.9379 40.202 54.9226L40.7666 54.915L40.7972 55.6704C40.8201 56.403 40.8277 56.4259 41.0719 56.6701C41.2779 56.8761 41.3771 56.9219 41.6594 56.9219C41.9418 56.9219 42.041 56.8761 42.247 56.6701L42.4988 56.4259L42.5217 55.3499C42.5599 54.0069 42.5064 53.6559 42.247 53.3736C41.9799 53.0913 41.7663 53.0607 40.6751 53.1905Z" fill="black"/>
<path d="M46.8944 53.1923C46.3603 53.261 45.9329 53.3525 45.788 53.4365C45.292 53.7264 45.2843 54.5277 45.7651 54.8329C45.9711 54.9626 46.0856 54.9779 46.5281 54.9397L47.0394 54.8939V55.6036C47.0394 56.443 47.1691 56.7406 47.6041 56.8855C47.978 57.0076 48.3748 56.8703 48.5732 56.5498C48.7029 56.3438 48.7182 56.1606 48.7182 55.016C48.7182 53.5128 48.6495 53.2991 48.1306 53.1541C47.9703 53.1083 47.8254 53.0778 47.8025 53.0778C47.7796 53.0855 47.3752 53.1389 46.8944 53.1923Z" fill="black"/>
<path d="M40.6163 59.5163C39.7159 59.6307 39.4793 59.7223 39.3115 60.0046C39.0673 60.4243 39.1817 60.9127 39.5785 61.1569C39.7922 61.2866 39.9067 61.3095 40.3111 61.2637L40.7842 61.2179V61.8513C40.7842 62.6372 40.9215 62.9653 41.3412 63.1714C41.6007 63.2935 41.6617 63.3011 41.9059 63.2095C42.0585 63.1485 42.2493 63.0035 42.3409 62.889C42.4858 62.6906 42.5011 62.5762 42.5011 61.3553C42.5011 59.8902 42.4553 59.7223 42.0433 59.5163C41.7533 59.3865 41.6388 59.3865 40.6163 59.5163Z" fill="black"/>
<path d="M46.7793 59.5257C45.856 59.6478 45.6271 59.747 45.4668 60.1286C45.3295 60.4719 45.3982 60.7924 45.6805 61.0595C45.8942 61.2579 45.9399 61.2732 46.4741 61.2579L47.0388 61.2426V61.9294C47.0388 62.4025 47.0769 62.6848 47.1609 62.8451C47.4279 63.364 48.2597 63.3945 48.5649 62.8909C48.7023 62.6772 48.7175 62.5017 48.7175 61.3647C48.7175 59.9454 48.6641 59.7241 48.2597 59.5181C48.0002 59.3807 47.8934 59.3884 46.7793 59.5257Z" fill="black"/>
<path d="M40.5757 65.8518C39.5837 65.9892 39.4998 66.0197 39.3319 66.2944C39.1488 66.592 39.1412 66.8896 39.3014 67.1948C39.4616 67.5153 39.8127 67.645 40.3468 67.5916L40.7818 67.5458V68.1868C40.7818 68.9651 40.9191 69.3009 41.3235 69.4993C41.5601 69.6137 41.6364 69.6214 41.8882 69.5374C42.0485 69.484 42.2545 69.339 42.3384 69.2246C42.4834 69.0262 42.4987 68.9041 42.4987 67.6908C42.4987 66.2486 42.4529 66.0426 42.0637 65.8442C41.8195 65.7221 41.5372 65.7221 40.5757 65.8518Z" fill="black"/>
<path d="M46.7413 65.858C45.8561 65.9725 45.6272 66.0793 45.4593 66.4761C45.3678 66.7127 45.3601 66.789 45.4517 67.0255C45.5127 67.1781 45.673 67.3765 45.8103 67.4681C46.0393 67.6207 46.1308 67.636 46.5582 67.5978L47.0389 67.5444V68.2464C47.0389 68.7043 47.077 69.0248 47.1457 69.1545C47.4357 69.7115 48.3208 69.7115 48.6108 69.1545C48.7405 68.9103 48.7634 66.56 48.6413 66.2396C48.5421 65.9725 48.1301 65.7359 47.802 65.7436C47.657 65.7512 47.1762 65.8046 46.7413 65.858Z" fill="black"/>
<path d="M40.4903 72.1839C39.5899 72.2907 39.3304 72.4281 39.2236 72.8477C39.132 73.1988 39.216 73.4887 39.4602 73.7176C39.6357 73.8779 39.7349 73.9008 40.2156 73.9008H40.7803V74.5112C40.7803 75.4956 41.0321 75.8848 41.6731 75.8848C42.0775 75.8848 42.3675 75.6482 42.459 75.2362C42.4972 75.0683 42.5353 74.4578 42.5353 73.8779C42.5353 72.0618 42.398 71.955 40.4903 72.1839Z" fill="black"/>
<path d="M46.6648 72.1912C45.9857 72.2752 45.8407 72.321 45.6576 72.4965C45.3829 72.7559 45.3218 73.0459 45.4668 73.3893C45.6347 73.8013 45.8712 73.9158 46.4817 73.8929L47.0006 73.87L47.0387 74.656C47.0769 75.4267 47.0845 75.4419 47.3287 75.6632C47.7408 76.0295 48.3512 75.9379 48.603 75.4724C48.7099 75.2741 48.7251 75.0299 48.7022 73.8776L48.6793 72.5117L48.4275 72.2904C48.1452 72.031 47.9621 72.0234 46.6648 72.1912Z" fill="black"/>
<path d="M40.3783 78.5175C39.4702 78.6319 39.2642 78.7769 39.2031 79.3492C39.165 79.6697 39.1802 79.7155 39.4397 79.9749C39.722 80.2573 39.722 80.2573 40.2485 80.2191L40.7827 80.1809V80.8219C40.7827 81.5697 40.9124 81.936 41.2482 82.1039C41.7365 82.3557 42.3165 82.1268 42.4538 81.6308C42.553 81.2721 42.5606 79.4713 42.4614 79.0516C42.4233 78.8837 42.3012 78.6701 42.1944 78.5709C41.9578 78.3725 41.5839 78.3648 40.3783 78.5175Z" fill="black"/>
<path d="M46.6212 78.5111C45.8047 78.618 45.5453 78.7553 45.4384 79.1827C45.3697 79.4268 45.3774 79.5337 45.4918 79.7626C45.6826 80.1594 45.9039 80.251 46.5296 80.2052L47.0409 80.167V80.9377V81.7008L47.3003 81.9602C47.6513 82.3112 48.071 82.3265 48.4297 81.9984L48.6815 81.7771L48.7044 80.4112C48.7425 78.3356 48.651 78.2517 46.6212 78.5111Z" fill="black"/>
<path d="M40.8212 84.774C40.783 84.7893 40.5083 84.8274 40.2107 84.8503C39.7529 84.8961 39.6537 84.9343 39.4324 85.1556C39.089 85.4989 39.0814 85.9186 39.4019 86.2773C39.6232 86.5215 39.646 86.5291 40.2031 86.5215L40.783 86.5138V87.0632C40.783 87.8034 40.8441 88.0552 41.0654 88.2842C41.4469 88.6657 42.1642 88.5665 42.3855 88.1086C42.5228 87.8263 42.5839 85.7279 42.4694 85.3387C42.3321 84.8809 42.0802 84.7359 41.4393 84.7435C41.1417 84.7435 40.867 84.7588 40.8212 84.774Z" fill="black"/>
<path d="M46.5825 84.8289C46.2696 84.8671 45.911 84.9586 45.7813 85.0349C45.2929 85.3173 45.2853 86.1185 45.766 86.4237C45.972 86.5535 46.0941 86.5687 46.5291 86.5382L47.0403 86.4924V87.2555C47.0403 87.9804 47.0479 88.0262 47.254 88.2475C47.6431 88.6901 48.4444 88.5832 48.6428 88.0491C48.6886 87.9422 48.7191 87.2936 48.7191 86.5992C48.7191 84.8747 48.6351 84.7297 47.6737 84.745C47.3913 84.7526 46.8953 84.7908 46.5825 84.8289Z" fill="black"/>
<path d="M40.9745 91.0705C40.7227 91.1087 40.3335 91.1621 40.1122 91.185C39.1813 91.2995 38.8455 92.2915 39.5781 92.7493C39.7917 92.8867 39.9062 92.9019 40.2954 92.8638L40.7685 92.818L40.799 93.5811C40.8219 94.1991 40.8524 94.3746 40.9745 94.5044C41.3789 94.9469 41.8902 94.9775 42.2793 94.573C42.5006 94.3441 42.5006 94.3365 42.5235 93.2682C42.5617 91.9328 42.5083 91.5818 42.2488 91.2918C42.0123 91.0248 41.6841 90.9713 40.9745 91.0705Z" fill="black"/>
<path d="M46.8814 91.1149C46.4312 91.1683 45.981 91.2522 45.8742 91.2904C45.4469 91.4583 45.2714 92.1145 45.5461 92.5342C45.7368 92.8318 46.0421 92.9234 46.5838 92.8623L47.0417 92.8089V93.5262C47.0417 94.3579 47.1256 94.564 47.5301 94.7624C47.7819 94.8844 47.8582 94.8921 48.1176 94.8158C48.6518 94.6555 48.7204 94.4495 48.7204 92.9539C48.7204 91.5346 48.667 91.3133 48.2626 91.1072C48.0032 90.9775 47.965 90.9775 46.8814 91.1149Z" fill="black"/>
<path d="M66.0992 52.8013C65.6948 52.8547 65.2751 52.9463 65.1759 53.015C64.741 53.2973 64.7181 53.9764 65.1378 54.3274C65.3514 54.5106 65.4277 54.5258 65.9161 54.5106L66.4579 54.4953L66.496 55.2508C66.5494 56.1207 66.5876 56.2351 66.8852 56.3877C67.2362 56.5709 67.6025 56.5327 67.8848 56.2809L68.1366 56.0596V54.5945V53.1294L67.8848 52.9081C67.6025 52.6563 67.3583 52.6411 66.0992 52.8013Z" fill="black"/>
<path d="M79.3257 53.2291C79.0739 53.4657 79.0129 53.6946 79.0129 54.3585V54.9537L78.6161 55.1215C78.0438 55.3581 76.7084 56.144 76.0369 56.64C75.2204 57.2429 73.7248 58.7843 73.1219 59.6313C72.0994 61.0735 71.1074 63.3474 70.8404 64.8736L70.7488 65.4306H70.062C69.2455 65.4306 68.9327 65.5527 68.7495 65.9342C68.5893 66.27 68.658 66.6134 68.9251 66.8957L69.1235 67.1094H82.2864C94.6482 67.1094 95.4647 67.0941 95.6173 66.972C95.9607 66.6973 96.0446 66.2853 95.8386 65.8885C95.6631 65.5527 95.457 65.4764 94.6253 65.4306L93.8698 65.3925L93.7401 64.7439C93.351 62.8209 92.3895 60.7759 91.1152 59.1353C90.6726 58.5706 89.6424 57.5176 89.0091 56.9758C88.4673 56.5103 87.2693 55.7549 86.4375 55.3505L85.5829 54.9384L85.5753 54.305C85.5753 53.6335 85.4608 53.2902 85.2014 53.1452C85.1022 53.0994 84.0339 53.0689 82.2788 53.0689C79.5623 53.0689 79.4936 53.0689 79.3257 53.2291ZM83.8965 58.8301C83.8965 61.745 83.9194 62.9583 83.9881 63.0956C84.2475 63.6832 85.2243 63.6832 85.4837 63.0956C85.5524 62.9659 85.5753 62.0044 85.5753 59.8984C85.5753 57.426 85.5905 56.8842 85.6745 56.8842C85.7355 56.8842 86.0636 57.0597 86.4146 57.2658C88.2079 58.3417 89.6272 59.7686 90.6802 61.539L91.0694 62.1876L90.3216 62.2257C89.3525 62.2715 89.2456 62.3478 88.9404 63.1338C88.6275 63.9503 88.6275 64.225 88.9633 64.5607C89.4288 65.0262 90.0392 64.8736 90.3673 64.2097L90.4971 63.9426L91.1228 63.9274L91.7561 63.9121L91.8935 64.3852C91.9774 64.6447 92.0614 64.988 92.0919 65.1407L92.1453 65.4306H82.2941H72.4504L72.4962 65.217C72.6031 64.7286 72.6946 64.3852 72.7633 64.1487L72.8472 63.9045H73.4272C73.7477 63.9045 74.0529 63.935 74.0987 63.9655C74.1368 63.996 74.2208 64.1334 74.2742 64.2708C74.5413 64.9194 75.3349 65.0109 75.7927 64.4539C76.0674 64.1105 75.663 62.7141 75.2051 62.4012C74.9838 62.2486 74.8465 62.2257 74.2742 62.2257C73.9003 62.2257 73.595 62.2105 73.595 62.1876C73.595 62.0731 73.969 61.4321 74.3886 60.814C74.9533 59.9823 76.1666 58.7003 76.9831 58.0822C77.3112 57.8304 77.8911 57.4413 78.2803 57.2123L78.9747 56.8003L79.0129 59.9289L79.051 63.0498L79.2341 63.2482C79.4936 63.5229 79.8828 63.6221 80.1956 63.4924C80.7145 63.2711 80.6916 63.4772 80.6916 58.8911V54.7476H82.2941H83.8965V58.8301Z" fill="black"/>
<path d="M66.0801 59.1271C65.2942 59.2339 65.0958 59.3179 64.9355 59.6307C64.7829 59.9283 64.7906 60.1573 64.9737 60.4472C65.1874 60.8059 65.3781 60.8745 65.9809 60.8364L66.4998 60.7982V61.5537V62.3167L66.7593 62.5762C67.1866 63.0035 67.7894 62.9119 68.0641 62.3778C68.1557 62.2099 68.1786 61.8589 68.1786 60.844V59.5392L67.9191 59.2797C67.6826 59.0432 67.6292 59.0203 67.2171 59.0279C66.9653 59.0355 66.4617 59.0813 66.0801 59.1271Z" fill="black"/>
<path d="M71.222 67.9866C70.8939 68.1621 70.8176 68.4597 70.871 69.4288C70.9244 70.4894 71.0771 71.2372 71.4586 72.3818C71.8172 73.473 72.1301 74.0988 72.8398 75.1671C73.5876 76.2888 74.7398 77.4257 75.892 78.1964C77.7616 79.4402 79.6006 80.0431 81.8364 80.1346C83.4464 80.2033 84.8886 79.9744 86.3766 79.4174C90.5659 77.8531 93.5495 73.7859 93.7174 69.4211L93.7632 68.3376L93.5113 68.101C93.3206 67.9255 93.1985 67.8721 92.9467 67.8721C92.3438 67.8721 92.0615 68.2689 92.0615 69.1159C92.0615 70.2605 91.6571 71.7943 91.0314 73.0533C89.9402 75.2205 87.9791 76.9984 85.7357 77.8454C82.05 79.2342 77.9065 78.2575 75.1747 75.3578C74.1751 74.2819 73.4731 73.1068 73.0229 71.7332C72.7253 70.8099 72.6185 70.2376 72.5345 69.1388C72.4735 68.3299 72.4658 68.2994 72.2293 68.0858C71.9546 67.8416 71.5578 67.8034 71.222 67.9866Z" fill="black"/>
<path d="M66.1565 70.9551C65.2637 71.0619 65.0806 71.1458 64.9203 71.5121C64.7677 71.886 64.844 72.2447 65.1416 72.4888C65.3629 72.672 65.4316 72.6872 65.92 72.6643L66.4617 72.6414L66.4999 73.4045C66.5533 74.2744 66.5762 74.3584 66.8738 74.5339C67.2172 74.7399 67.5987 74.7017 67.8887 74.4423L68.1405 74.221V72.7559V71.2908L67.8887 71.0695C67.6064 70.8177 67.4537 70.8101 66.1565 70.9551Z" fill="black"/>
<path d="M66.042 77.2892C65.2942 77.3884 65.0958 77.48 64.9355 77.7928C64.7829 78.0904 64.7906 78.3193 64.9737 78.6093C65.1874 78.968 65.3781 79.0366 65.9809 78.9908L66.4998 78.9451V79.7005C66.4998 80.4254 66.5075 80.4712 66.7135 80.6925C67.095 81.1198 67.736 81.074 68.026 80.6009C68.1633 80.372 68.1786 80.2118 68.1786 79.0214V77.7013L67.9191 77.4418C67.675 77.1976 67.6292 77.1824 67.179 77.19C66.9119 77.1976 66.4006 77.2434 66.042 77.2892Z" fill="black"/>
<path d="M73.419 81.7996C70.5804 82.2804 68.1767 84.0965 66.9329 86.6985C66.7879 87.0038 66.6506 87.3166 66.6277 87.4082C66.5895 87.5608 66.559 87.5608 62.4537 87.5608C58.7299 87.5608 58.295 87.5761 58.1042 87.6905C57.86 87.8279 57.7227 88.0797 57.7227 88.3773C57.7227 88.4841 57.9134 89.5219 58.1423 90.6818C59.8058 99.0527 61.0878 105.554 62.2248 111.292C62.7742 114.085 63.2626 116.481 63.3007 116.611C63.3465 116.748 63.4686 116.931 63.5754 117.015C63.7738 117.168 63.8577 117.168 75.1894 117.168H86.6125L86.8109 116.962C86.9254 116.84 87.0322 116.664 87.0627 116.558C87.1085 116.382 86.7957 114.726 85.8495 109.995C85.6663 109.095 85.4908 108.225 85.4679 108.072L85.4145 107.79L89.9777 107.759C95.0368 107.729 94.9834 107.736 96.067 107.21C97.4405 106.546 98.4325 105.333 98.8522 103.807C99.0048 103.227 99.0124 103.127 98.9895 96.0996L98.9666 88.9725L98.753 88.2094C98.5088 87.3166 97.9212 86.0576 97.4176 85.3479C96.9369 84.6688 95.8762 83.631 95.2123 83.1884C94.4187 82.6619 93.3504 82.1812 92.4424 81.937L91.6412 81.731L82.8277 81.7157C75.8151 81.7004 73.8921 81.7157 73.419 81.7996ZM92.0227 83.5776C94.7163 84.333 96.6469 86.4009 97.2116 89.1327C97.3108 89.6058 97.326 90.7047 97.326 96.359C97.326 102.929 97.326 103.036 97.1658 103.517C97.0742 103.784 96.9216 104.142 96.8224 104.318C96.5324 104.814 95.7846 105.47 95.2123 105.745L94.6934 105.989H86.9483C79.4854 105.989 79.1955 105.981 78.936 105.844C78.3942 105.546 78.028 105.18 77.7762 104.661C77.5549 104.219 77.5243 104.081 77.5243 103.547C77.5243 103.036 77.5549 102.868 77.738 102.509C78.0051 101.952 78.5621 101.441 79.0963 101.243C79.4931 101.098 79.7525 101.082 85.384 101.037C90.8857 100.991 91.2749 100.976 91.4504 100.846C91.8319 100.571 91.8319 100.625 91.8319 96.1225C91.8319 91.4983 91.8319 91.4983 91.3817 91.2693C91.0917 91.1167 90.8934 91.1167 90.611 91.2617C90.1379 91.5059 90.1532 91.3456 90.1532 95.512V99.3121L87.0551 99.3274C85.3535 99.3426 83.9036 99.3274 83.8273 99.2968C83.7357 99.2663 83.6671 99.1366 83.6365 98.9153C83.5068 98.0683 81.5076 88.1331 81.4389 87.9881C81.4007 87.8889 81.271 87.7592 81.1489 87.6905C80.9505 87.5684 80.3782 87.5608 74.6705 87.5608C71.2214 87.5608 68.4056 87.5379 68.4056 87.515C68.4056 87.4845 68.5659 87.1945 68.7719 86.8512C69.6113 85.4318 71.1069 84.2186 72.6636 83.7073C73.6785 83.3792 73.7395 83.3716 82.7895 83.3868L91.4122 83.4021L92.0227 83.5776ZM80.0654 89.5601C80.2943 90.491 81.9883 99.2511 81.9502 99.3045C81.9273 99.3426 81.3244 99.3808 80.6072 99.3884C79.4549 99.396 79.2413 99.4189 78.7224 99.5792C77.6541 99.9149 76.7842 100.64 76.3034 101.609C75.6548 102.899 75.6319 104.119 76.2424 105.417C76.7231 106.432 77.8296 107.34 78.936 107.637C79.1344 107.691 80.1951 107.744 81.4847 107.775L83.69 107.82L84.4378 111.598C84.8575 113.673 85.1932 115.398 85.1932 115.436C85.1932 115.466 80.5995 115.482 74.991 115.474L64.7811 115.451L64.1935 112.513C63.873 110.896 63.1252 107.118 62.53 104.119C61.9348 101.121 61.042 96.6032 60.5384 94.0851C60.0424 91.5669 59.6303 89.4456 59.6303 89.3693C59.6303 89.2472 60.1645 89.2396 69.8097 89.2396H79.9891L80.0654 89.5601Z" fill="black"/>
</svg>
