<svg width="134" height="134" viewBox="0 0 134 134" fill="none" xmlns="http://www.w3.org/2000/svg">
<path d="M42.0215 20.2556L41.738 20.5208L40.9699 25.038C40.5584 27.5252 40.2109 29.6923 40.2109 29.8569C40.2109 30.2684 40.5035 30.6616 40.8967 30.7896C41.2808 30.9176 41.3357 30.8993 43.5028 29.9849C44.3349 29.6283 45.0207 29.354 45.0299 29.3631C45.039 29.3723 50.4248 42.7957 52.9029 48.968C53.9087 51.4917 54.6037 53.1102 54.7408 53.2474C55.2529 53.7594 56.149 53.5491 56.3868 52.8542L56.5239 52.4793L55.6827 50.3853C55.2255 49.2423 53.7441 45.5389 52.3908 42.1739C51.0284 38.7998 49.1538 34.1363 48.2211 31.7954C47.2793 29.4546 46.4472 27.452 46.374 27.3423C46.31 27.2325 46.0814 27.0862 45.8802 27.0314C45.5511 26.9308 45.4596 26.9399 45.0756 27.1137C44.0514 27.5709 42.6433 28.1378 42.5884 28.1195C42.5518 28.1012 42.7256 26.9217 42.9633 25.486C43.2102 24.0504 43.4114 22.8525 43.4114 22.8068C43.4114 22.6605 43.64 22.7794 45.1213 23.7121C49.3276 26.373 49.6842 26.5833 49.9768 26.5833C50.5711 26.5833 51.0009 26.1627 51.0009 25.5866C51.0009 25.1843 50.8546 24.9191 50.4706 24.6722C49.8579 24.2607 43.832 20.4934 43.4022 20.2465C42.8444 19.9173 42.4055 19.9173 42.0215 20.2556Z" fill="black"/>
<path d="M62.7307 24.8452C62.5753 24.9366 62.3924 25.1012 62.3467 25.2018C62.2735 25.3298 62.2461 37.7749 62.2461 67.0358V108.696L62.5021 108.97C62.9685 109.501 63.9286 109.373 64.1663 108.733C64.2212 108.596 64.2578 107.114 64.2578 105.167C64.2578 103.338 64.2944 101.838 64.3309 101.838C64.3767 101.838 65.1082 102.277 65.9586 102.807C66.809 103.338 68.1897 104.206 69.0401 104.737L70.5672 105.688V107.187C70.5672 108.66 70.5672 108.687 70.8049 108.961C71.2713 109.519 72.1765 109.4 72.4509 108.742C72.652 108.266 72.6429 25.7321 72.4417 25.2475C72.1765 24.6166 71.2621 24.4977 70.8049 25.0372L70.5672 25.3207V28.7405C70.5672 31.4197 70.5397 32.1604 70.4575 32.1513C70.3934 32.1513 68.9853 31.2917 67.321 30.2493L64.3035 28.3565L64.2578 26.7928C64.2121 25.1286 64.1846 25.0463 63.7 24.7903C63.3525 24.6166 63.0782 24.6257 62.7307 24.8452ZM67.2936 32.6268C68.9213 33.6417 70.3203 34.5379 70.4117 34.611C70.558 34.739 70.5672 35.0408 70.5672 38.5795C70.5672 40.8473 70.5306 42.4017 70.4849 42.4017C70.4392 42.4017 69.031 41.5422 67.3485 40.4998L64.3035 38.5887L64.2761 34.6933C64.2669 32.5445 64.2761 30.7888 64.2944 30.7888C64.3218 30.7888 65.6751 31.6209 67.2936 32.6268ZM67.3028 42.8681C68.9213 43.8831 70.3203 44.7701 70.4117 44.8523C70.558 44.9804 70.5672 45.2638 70.5672 48.6837C70.558 50.7137 70.5397 52.3688 70.5215 52.3688C70.4757 52.3688 67.1839 50.3296 66.4524 49.8541C66.2786 49.7444 65.7117 49.3878 65.1996 49.0678L64.2578 48.4917V44.7609C64.2578 42.7126 64.2761 41.0301 64.3035 41.0301C64.3309 41.0301 65.6751 41.8622 67.3028 42.8681ZM67.5496 52.9448L70.5215 54.8194L70.5489 58.6416C70.558 60.7447 70.5397 62.4912 70.5032 62.5187C70.4575 62.5552 69.0401 61.714 67.3485 60.6533L64.2578 58.7239V54.8102C64.2578 51.116 64.2669 50.9057 64.4224 50.988C64.5047 51.0429 65.9129 51.9207 67.5496 52.9448ZM67.5039 63.1405L70.5215 65.0424L70.5489 68.8281C70.558 70.9129 70.5489 72.6686 70.5306 72.7326C70.5032 72.7966 69.2962 72.1016 67.3759 70.9038L64.2578 68.9652V65.0973C64.2578 62.0706 64.2852 61.2385 64.3767 61.2476C64.4315 61.2476 65.8489 62.098 67.5039 63.1405ZM64.971 71.7907C65.3094 72.0102 66.1232 72.5223 66.7724 72.9337C67.4308 73.3361 68.5372 74.031 69.2413 74.4791L70.5215 75.2746L70.5489 79.0694C70.558 81.1542 70.5489 82.9099 70.5306 82.9739C70.5032 83.0379 69.287 82.3247 67.3942 81.1451L64.3035 79.2066L64.2761 75.2929C64.2669 73.144 64.2761 71.3884 64.3035 71.3884C64.3309 71.3884 64.6327 71.5713 64.971 71.7907ZM65.9677 82.6539C67.8788 83.8517 68.5738 84.2906 69.7259 85.0222L70.5672 85.5525V89.2742C70.5672 92.31 70.5489 92.9775 70.4483 92.9409C70.3843 92.9135 68.9578 92.0448 67.2936 91.0024L64.2578 89.1096V85.3696C64.2578 83.3122 64.2761 81.6297 64.2944 81.6297C64.3218 81.6297 65.0716 82.0869 65.9677 82.6539ZM67.5314 93.5627L70.5672 95.4555V99.3326C70.5672 101.463 70.5397 103.21 70.5123 103.21C70.4757 103.21 69.0584 102.341 67.3576 101.271L64.2578 99.3418V95.4555C64.2578 92.246 64.2761 91.5876 64.3767 91.6242C64.4498 91.6516 65.8671 92.5203 67.5314 93.5627Z" fill="black"/>
<path d="M93.2534 38.0129C91.3697 38.1684 89.358 38.7262 87.5658 39.604C82.6006 42.018 79.2081 46.7821 78.5315 52.2777C78.3303 53.8504 78.4218 55.9993 78.7601 57.6727C79.0984 59.346 80.2414 62.1075 80.8083 62.6287C81.3661 63.1499 82.244 62.8939 82.4634 62.1532C82.564 61.8149 82.5457 61.7509 82.0154 60.6262C80.9364 58.3402 80.6346 57.1057 80.5615 54.6826C80.4975 52.6069 80.6255 51.6559 81.1833 49.9459C82.7926 44.9533 86.752 41.4328 92.0281 40.2807C92.7505 40.1252 93.2534 40.0886 94.6159 40.0795C96.5635 40.0704 97.3865 40.1984 99.1239 40.7653C104.107 42.3838 107.847 46.7547 109.292 52.6434C110.133 56.0633 110.216 59.0534 109.566 62.9031C108.807 67.4842 107.646 70.5749 105.452 73.9034C104.373 75.5401 103.33 76.8203 100.797 79.6641C96.2252 84.7848 94.3873 87.0525 92.1561 90.3169C91.1868 91.7251 90.8577 92.0909 90.0896 92.6487C89.3763 93.1516 88.782 93.4533 87.9407 93.7094C87.0446 93.9928 85.2706 94.0111 84.4202 93.7551C82.4451 93.1607 80.9364 91.908 80.0768 90.1798C79.6653 89.3477 79.4642 88.5887 79.3819 87.528C79.3179 86.8605 79.2904 86.769 79.0161 86.4947C78.7784 86.257 78.6504 86.2021 78.312 86.2021C77.4525 86.2021 77.1507 86.7782 77.3245 88.1132C77.5896 90.2163 78.3943 91.9263 79.7934 93.3619C80.5797 94.1757 81.3204 94.7061 82.3811 95.209C83.643 95.8034 84.6031 96.0137 86.1119 96.0137C87.5567 96.0137 88.3065 95.8674 89.5226 95.3644C91.2783 94.6421 92.4579 93.5996 93.9392 91.4325C96.024 88.3784 98.1546 85.7449 101.657 81.8587C106.393 76.6008 108.058 74.26 109.594 70.6481C111.039 67.2831 112.081 62.0892 112.081 58.3402C112.081 53.759 110.947 49.5619 108.762 45.9683C105.442 40.5093 99.5811 37.5009 93.2534 38.0129Z" fill="black"/>
<path d="M94.022 44.1031C92.3395 44.35 91.3428 44.6335 90.2181 45.1821C87.6669 46.4532 85.7924 48.5746 84.8505 51.2721C84.439 52.4608 84.3293 53.1832 84.3293 54.7011C84.3293 56.219 84.439 56.9414 84.8505 58.1301C85.4266 59.7852 86.5605 61.5774 87.2463 61.9157C87.7309 62.1535 88.1881 62.0163 88.5904 61.486C90.0535 59.584 91.8366 58.6605 94.1134 58.6513C95.2656 58.6513 95.9788 58.7976 96.9481 59.264C98.7403 60.1144 100.103 61.7603 100.624 63.708C100.834 64.5035 100.834 66.1037 100.624 66.9084C100.121 68.8104 98.7952 70.438 97.0395 71.3067C96.0337 71.7913 95.4393 71.9285 93.8391 72.0291C91.3885 72.1662 90.0626 72.7606 88.2704 74.4888C87.8315 74.9186 86.9171 75.961 86.2404 76.8023C84.4939 78.9694 83.9361 79.4266 83.1314 79.2986C81.7964 79.0974 81.3849 77.3235 82.0982 74.754C82.4731 73.3824 82.4182 72.8978 81.8604 72.6326C81.3301 72.3765 80.7357 72.5137 80.4614 72.9435C80.2693 73.2544 79.803 75.1655 79.7024 76.0982C79.3275 79.2712 80.7997 81.3834 83.3692 81.3926C84.9237 81.3926 85.7832 80.7616 87.9595 78.0093C89.5871 75.961 90.4558 75.1563 91.7086 74.5985C92.4309 74.2694 93.007 74.1596 94.3512 74.0956C97.3413 73.9493 99.8102 72.5686 101.438 70.1363C102.407 68.7006 102.855 67.1644 102.864 65.3539C102.864 63.7446 102.627 62.7296 101.922 61.3305C101.081 59.6572 99.7187 58.3038 98.0454 57.4717C96.5092 56.7036 94.7535 56.3745 93.2356 56.5665C91.3702 56.8042 89.9255 57.4077 88.5173 58.5416C87.5389 59.328 87.6394 59.3463 87.1274 58.2033C86.6427 57.1334 86.469 56.3653 86.4141 55.0577C86.3501 53.6221 86.5056 52.7443 87.0177 51.4915C88.0418 48.9952 90.1632 47.1481 92.7784 46.4532C94.0403 46.1148 95.7411 46.1148 97.0121 46.4532C99.3347 47.0658 101.429 48.73 102.471 50.7874C102.773 51.4001 103.084 51.6378 103.568 51.6378C104.4 51.6378 104.812 50.888 104.455 50.0376C104.181 49.3793 103.111 47.9071 102.407 47.2121C100.469 45.2919 97.9905 44.2129 95.3113 44.1031C94.7535 44.0848 94.1774 44.0848 94.022 44.1031Z" fill="black"/>
<path d="M37.7583 45.2997C37.1365 45.6015 37.0085 46.4885 37.5023 47.092C39.1117 49.0671 40.2455 50.7862 41.3154 52.871C45.0004 60.0582 45.7502 68.169 43.4551 75.8592C42.3761 79.4802 40.337 83.3939 38.0967 86.1554C37.3103 87.1246 37.1914 87.3349 37.1914 87.7373C37.1914 88.1671 37.4109 88.5328 37.7766 88.7066C38.5081 89.054 38.8922 88.8529 39.8523 87.6458C41.5714 85.4878 43.5008 82.2051 44.5432 79.6448C45.7137 76.7736 46.5092 73.6554 46.8475 70.5465C47.0578 68.6994 47.0487 65.3526 46.8475 63.4507C46.1709 57.1596 43.638 51.0422 39.6786 46.1318C38.8831 45.1443 38.4441 44.9614 37.7583 45.2997Z" fill="black"/>
<path d="M28.495 52.9453C27.855 53.3751 27.7727 54.0518 28.2756 54.6736C30.2873 57.1607 31.2474 58.7975 32.0246 61.0744C32.6922 63.0221 33.0762 65.2441 33.0762 67.1826C33.0762 69.0114 32.683 71.398 32.0978 73.1263C31.4577 75.0191 30.1684 77.4148 29.0162 78.8322C28.3487 79.646 28.2939 79.7648 28.3487 80.222C28.4127 80.8438 28.8151 81.2188 29.4003 81.2188C29.6563 81.2188 29.9398 81.1547 30.077 81.0633C30.3604 80.8804 31.668 79.1431 32.2715 78.1555C33.6889 75.8329 34.713 73.0074 35.1519 70.2002C35.3714 68.7554 35.3714 65.6373 35.1428 64.1651C34.5393 60.2423 32.9756 56.7676 30.4336 53.7043C29.6198 52.7259 29.1168 52.5247 28.495 52.9453Z" fill="black"/>
<path d="M21.4911 59.5932C20.8602 59.9681 20.8419 60.5076 21.4088 61.7055C21.866 62.6748 22.3141 64.1561 22.4787 65.2625C22.5427 65.7289 22.5701 66.5701 22.5336 67.4845C22.497 68.7556 22.4513 69.1213 22.2044 70.0632C22.0398 70.6667 21.7289 71.5719 21.4911 72.0749C20.8419 73.483 20.8602 74.0957 21.5734 74.4615C21.9301 74.6443 22.5793 74.5895 22.8536 74.3517C23.3382 73.922 24.3258 71.3342 24.6276 69.6974C24.8653 68.4355 24.8653 65.5094 24.6367 64.2658C24.2801 62.4004 23.2742 59.9316 22.7256 59.5932C22.3415 59.3646 21.866 59.3555 21.4911 59.5932Z" fill="black"/>
<path d="M55.0969 80.5876C54.7951 80.7431 54.6946 80.9351 54.1185 82.389C53.8716 83.0017 52.1617 87.2719 50.3146 91.8714C48.4675 96.4709 46.5655 101.217 46.0809 102.414C45.2945 104.399 45.1939 104.591 45.0202 104.554C44.9196 104.527 44.2703 104.28 43.5937 103.987C42.917 103.704 42.1215 103.384 41.838 103.283C41.3351 103.1 41.3168 103.1 40.9693 103.265C40.7499 103.375 40.567 103.557 40.4664 103.759C40.311 104.07 40.3201 104.161 41.0791 108.687C41.5088 111.22 41.8746 113.369 41.902 113.461C42.0026 113.762 42.405 114 42.8073 114C43.2096 114 43.2371 113.982 45.7425 112.4C46.4009 111.988 47.7725 111.129 48.8058 110.48C49.8391 109.839 50.7809 109.218 50.9089 109.099C51.0918 108.916 51.1375 108.788 51.1375 108.413C51.1375 108.002 51.101 107.919 50.8358 107.681C50.2597 107.169 50.2048 107.188 46.7575 109.346C45.0659 110.416 43.6577 111.257 43.6211 111.229C43.5754 111.184 42.6884 106.164 42.6793 105.926C42.6793 105.816 42.9079 105.898 44.3709 106.52C45.5505 107.023 45.6694 107.06 45.9803 106.968C46.4466 106.831 46.5746 106.648 47.0684 105.432C47.489 104.38 49.583 99.1866 53.6064 89.1739C56.5691 81.8312 56.5782 81.7946 56.5782 81.4472C56.5782 80.6974 55.7644 80.2219 55.0969 80.5876Z" fill="black"/>
</svg>
