<svg width="31" height="22" viewBox="0 0 31 22" fill="none" xmlns="http://www.w3.org/2000/svg">
<path d="M2.26042 0H28.7396C29.9873 0 31 0.9856 31 2.2V19.8C31 20.3835 30.7618 20.9431 30.3379 21.3556C29.914 21.7682 29.3391 22 28.7396 22H2.26042C1.66092 22 1.08597 21.7682 0.662061 21.3556C0.23815 20.9431 0 20.3835 0 19.8L0 2.2C0 0.9856 1.01267 0 2.26042 0ZM1.9375 5.54651V19.8C1.9375 19.9735 2.08217 20.1143 2.26042 20.1143H28.7396C28.8252 20.1143 28.9074 20.0812 28.9679 20.0222C29.0285 19.9633 29.0625 19.8834 29.0625 19.8V5.54651L16.7658 13.6337C16.0012 14.1366 14.9988 14.1366 14.2342 13.6337L1.9375 5.54651ZM1.9375 2.2V3.27109L15.3192 12.0711C15.3726 12.1062 15.4355 12.125 15.5 12.125C15.5645 12.125 15.6274 12.1062 15.6808 12.0711L29.0625 3.27109V2.2C29.0625 2.11665 29.0285 2.03671 28.9679 1.97777C28.9074 1.91883 28.8252 1.88571 28.7396 1.88571H2.26042C2.17477 1.88571 2.09264 1.91883 2.03208 1.97777C1.97152 2.03671 1.9375 2.11665 1.9375 2.2Z" fill="black"/>
</svg>
