<svg width="35" height="25" viewBox="0 0 35 25" fill="none" xmlns="http://www.w3.org/2000/svg">
<path d="M0 2.62044C0 2.16736 0.179985 1.73284 0.500359 1.41247C0.820734 1.09209 1.25526 0.912109 1.70833 0.912109H32.4583C32.9114 0.912109 33.3459 1.09209 33.6663 1.41247C33.9867 1.73284 34.1667 2.16736 34.1667 2.62044C34.1667 3.07352 33.9867 3.50804 33.6663 3.82842C33.3459 4.14879 32.9114 4.32878 32.4583 4.32878H1.70833C1.25526 4.32878 0.820734 4.14879 0.500359 3.82842C0.179985 3.50804 0 3.07352 0 2.62044ZM0 12.9251C0 12.472 0.179985 12.0375 0.500359 11.7171C0.820734 11.3968 1.25526 11.2168 1.70833 11.2168H32.4583C32.9114 11.2168 33.3459 11.3968 33.6663 11.7171C33.9867 12.0375 34.1667 12.472 34.1667 12.9251C34.1667 13.3782 33.9867 13.8127 33.6663 14.1331C33.3459 14.4535 32.9114 14.6334 32.4583 14.6334H1.70833C1.25526 14.6334 0.820734 14.4535 0.500359 14.1331C0.179985 13.8127 0 13.3782 0 12.9251ZM1.70833 21.5232C1.25526 21.5232 0.820734 21.7031 0.500359 22.0235C0.179985 22.3439 0 22.7784 0 23.2315C0 23.6846 0.179985 24.1191 0.500359 24.4395C0.820734 24.7598 1.25526 24.9398 1.70833 24.9398H32.4583C32.9114 24.9398 33.3459 24.7598 33.6663 24.4395C33.9867 24.1191 34.1667 23.6846 34.1667 23.2315C34.1667 22.7784 33.9867 22.3439 33.6663 22.0235C33.3459 21.7031 32.9114 21.5232 32.4583 21.5232H1.70833Z" fill="black"/>
</svg>
