<svg width="37" height="37" viewBox="0 0 37 37" fill="none" xmlns="http://www.w3.org/2000/svg">
<g clip-path="url(#clip0_2853_55)">
<path d="M17.5756 0C14.6048 0.0431667 8.22227 0.530333 4.6564 3.80329C2.00781 6.45496 1.07356 10.3292 0.976438 15.1345C0.879313 19.9399 0.752896 28.9463 9.43556 31.3883H9.44019L9.43402 35.113C9.43402 35.113 9.37698 36.6192 10.3744 36.9275C11.5723 37.3006 12.2769 36.1567 13.4269 34.9203C14.0544 34.242 14.9254 33.2491 15.5806 32.4845C21.5161 32.987 26.0825 31.8431 26.6036 31.6751C27.7999 31.2866 34.5832 30.4171 35.6871 21.4122C36.8279 12.1314 35.1321 6.25762 32.0796 3.61212C31.1607 2.76421 27.4453 0.0662917 19.1681 0.0308333C19.1681 0.0308333 18.5591 -0.00770833 17.5694 0.004625L17.5756 0ZM17.665 2.61004C18.5052 2.60387 19.0216 2.63625 19.0216 2.63625C26.0239 2.66708 29.377 4.77608 30.1556 5.48217C32.7379 7.69446 34.056 12.987 33.094 20.74V20.7431C32.1628 28.2634 26.6591 28.7351 25.6446 29.0604C25.213 29.1992 21.2016 30.1966 16.1588 29.8683C16.1588 29.8683 12.4033 34.4007 11.2301 35.5786C11.0451 35.7636 10.8292 35.836 10.6874 35.8006C10.487 35.7497 10.4315 35.5107 10.433 35.1623L10.4639 28.9679C3.12244 26.9329 3.54948 19.2678 3.63427 15.2548C3.71752 11.2403 4.4714 7.95037 6.71144 5.73808C9.7331 3.00471 15.1505 2.627 17.6727 2.6085L17.665 2.61004ZM18.2508 6.62146C18.1313 6.62749 18.0186 6.67901 17.9358 6.76547C17.8531 6.85193 17.8066 6.96677 17.8058 7.08644C17.805 7.20612 17.85 7.32156 17.9316 7.4091C18.0132 7.49664 18.1252 7.54965 18.2446 7.55725C20.7483 7.57267 22.7864 8.38512 24.4545 10.0116C26.1087 11.6242 26.952 13.8164 26.972 16.6932C26.9751 16.9506 27.1879 17.1557 27.4453 17.1557C27.5685 17.154 27.6862 17.104 27.7727 17.0162C27.8593 16.9285 27.9078 16.8102 27.9078 16.687C27.8862 13.6283 26.9551 11.1432 25.1081 9.3425C23.2736 7.55417 20.9564 6.63996 18.2508 6.62146ZM12.1458 7.69292C11.818 7.64742 11.4844 7.71079 11.1961 7.87329L11.1807 7.87638C10.5178 8.25717 9.92273 8.74279 9.41398 9.31321L9.40165 9.32554C8.99054 9.82299 8.75415 10.3102 8.69248 10.787C8.68046 10.8583 8.67684 10.9308 8.68169 11.0029C8.68169 11.2136 8.71509 11.4191 8.7819 11.6195L8.80194 11.635C9.01006 12.375 9.53115 13.6021 10.6596 15.6495C11.3071 16.8335 12.0518 17.962 12.8889 19.0195C13.3051 19.5509 13.7522 20.0566 14.2301 20.5365L14.4336 20.74C14.9126 21.2159 15.4183 21.663 15.9506 22.0813C17.009 22.9187 18.1364 23.665 19.3207 24.3121C21.3681 25.4421 22.5983 25.9617 23.3352 26.1713L23.3506 26.1929C23.6191 26.2794 23.9028 26.3083 24.1831 26.2777C24.6621 26.2212 25.1493 25.9848 25.6446 25.5685C25.6508 25.5685 25.6493 25.5655 25.657 25.5608C26.2274 25.0521 26.7099 24.4508 27.0907 23.791L27.0954 23.7756C27.4422 23.1096 27.3266 22.4775 26.8179 22.0489C26.8117 22.0489 25.7418 21.1547 25.2191 20.7693C24.6641 20.3757 24.0922 20.0108 23.5033 19.6747C22.717 19.2354 21.9123 19.5113 21.5793 19.943L20.8901 20.8125C20.5356 21.2488 19.8773 21.1917 19.8773 21.1917C15.0673 19.9646 13.78 15.0945 13.78 15.0945C13.78 15.0945 13.7229 14.4377 14.1623 14.0831L15.0303 13.3925C15.4573 13.061 15.7333 12.2562 15.2924 11.4685C14.9569 10.8773 14.5915 10.3036 14.1978 9.7495C13.7839 9.20759 13.3573 8.67557 12.9182 8.15387C12.7251 7.91156 12.4496 7.74862 12.1443 7.696L12.1458 7.69292ZM19.0679 9.04958C18.944 9.0459 18.8237 9.09159 18.7335 9.17659C18.6433 9.26159 18.5906 9.37894 18.5869 9.50283C18.5832 9.62672 18.6289 9.747 18.7139 9.8372C18.7989 9.92741 18.9163 9.98015 19.0401 9.98383C20.8285 10.1149 22.1497 10.7022 23.1179 11.7567C24.0891 12.8174 24.5516 14.1062 24.5146 15.7188C24.5213 15.8374 24.5725 15.9491 24.658 16.0315C24.7434 16.114 24.8568 16.1612 24.9755 16.1637C25.0943 16.1663 25.2096 16.1239 25.2985 16.0452C25.3873 15.9664 25.4432 15.857 25.455 15.7389C25.4936 13.9274 24.9401 12.358 23.8101 11.1231C22.6692 9.87437 21.0705 9.19142 19.108 9.04804H19.071L19.0679 9.04958ZM19.7817 11.5625C19.663 11.5642 19.5493 11.6108 19.4635 11.6929C19.3777 11.775 19.3262 11.8864 19.3192 12.005C19.3069 12.2624 19.5042 12.4829 19.7632 12.4983C20.5695 12.5415 21.1121 12.7681 21.4791 13.1489C21.8491 13.5266 22.0772 14.1047 22.1204 14.9434C22.1363 15.0596 22.1952 15.1657 22.2854 15.2406C22.3757 15.3155 22.4908 15.3539 22.608 15.348C22.7251 15.3422 22.8359 15.2927 22.9183 15.2092C23.0007 15.1257 23.0488 15.0144 23.0531 14.8971C23.0069 13.9043 22.7216 13.081 22.1589 12.4967C21.5931 11.914 20.7822 11.6118 19.8156 11.561H19.7879L19.7817 11.5625Z" fill="white"/>
</g>
<defs>
<clipPath id="clip0_2853_55">
<rect width="37" height="37" fill="white"/>
</clipPath>
</defs>
</svg>
