<svg width="65" height="65" viewBox="0 0 65 65" fill="none" xmlns="http://www.w3.org/2000/svg">
<path d="M32.5 0L60.6458 16.25V48.75L32.5 65L4.35417 48.75V16.25L32.5 0Z" fill="#FF0016"/>
<path d="M20.794 49V46.654L34.18 33.544C35.4067 32.348 36.3267 31.3053 36.94 30.416C37.5533 29.496 37.9673 28.6373 38.182 27.84C38.3967 27.0427 38.504 26.2913 38.504 25.586C38.504 23.7153 37.86 22.2433 36.572 21.17C35.3147 20.0967 33.444 19.56 30.96 19.56C29.0587 19.56 27.372 19.8513 25.9 20.434C24.4587 21.0167 23.2167 21.9213 22.174 23.148L19.828 21.124C21.0853 19.652 22.6953 18.5173 24.658 17.72C26.6207 16.9227 28.8133 16.524 31.236 16.524C33.4133 16.524 35.2993 16.8767 36.894 17.582C38.4887 18.2567 39.7153 19.2533 40.574 20.572C41.4633 21.8907 41.908 23.4393 41.908 25.218C41.908 26.2607 41.7547 27.288 41.448 28.3C41.172 29.312 40.6507 30.3853 39.884 31.52C39.148 32.624 38.0593 33.8813 36.618 35.292L24.336 47.344L23.416 46.056H43.38V49H20.794Z" fill="white"/>
</svg>
