<svg width="25" height="22" viewBox="0 0 25 22" fill="none" xmlns="http://www.w3.org/2000/svg">
<path d="M24.6523 0.2407C24.514 0.122964 24.3457 0.0446619 24.1655 0.0142293C23.9854 -0.0162032 23.8002 0.00238757 23.63 0.0679987L1.01187 8.79218C0.691321 8.91503 0.419938 9.1372 0.238578 9.42522C0.057219 9.71325 -0.0243005 10.0515 0.00629272 10.3892C0.036886 10.7268 0.177936 11.0455 0.408208 11.2973C0.63848 11.5491 0.94551 11.7204 1.28307 11.7853L7.14352 12.9194V19.36C7.14237 19.7108 7.24814 20.0539 7.44714 20.3447C7.64613 20.6356 7.92918 20.8608 8.25959 20.9913C8.58949 21.1241 8.95229 21.1559 9.30081 21.0828C9.64933 21.0096 9.96746 20.8348 10.2138 20.581L13.0397 17.6924L17.5229 21.56C17.8464 21.8428 18.2635 21.9993 18.6959 22C18.8854 21.9999 19.0736 21.9705 19.2539 21.9131C19.5485 21.821 19.8135 21.6544 20.0224 21.4299C20.2313 21.2055 20.377 20.931 20.4448 20.6338L24.9749 1.20981C25.0154 1.03463 25.0068 0.851888 24.95 0.681167C24.8931 0.510445 24.7903 0.358183 24.6523 0.2407ZM17.8287 4.20074L7.8299 11.2584L2.29423 10.1881L17.8287 4.20074ZM8.92922 19.36V14.1371L11.6959 16.5285L8.92922 19.36ZM18.6981 20.24L9.47052 12.2649L22.7517 2.88292L18.6981 20.24Z" fill="black"/>
</svg>
