<svg width="26" height="29" viewBox="0 0 26 29" fill="none" xmlns="http://www.w3.org/2000/svg">
<path d="M7.66119 6.66985C7.41205 6.63337 7.15794 6.68353 6.94135 6.81194H6.92258C6.4199 7.10685 5.96682 7.47816 5.58076 7.91516C5.25905 8.28647 5.08478 8.66181 5.03921 9.02374C5.0124 9.23822 5.03116 9.45538 5.09417 9.66047L5.11829 9.67387C5.48022 10.7369 5.95207 11.7597 6.52848 12.7221C7.27204 14.0738 8.18663 15.324 9.24966 16.442L9.28183 16.4875L9.33277 16.5251L9.3636 16.5613L9.40113 16.5934C10.5231 17.6596 11.7762 18.5785 13.1304 19.328C14.6786 20.1712 15.6183 20.5693 16.1826 20.7355V20.7436C16.3475 20.7945 16.4976 20.8173 16.6491 20.8173C17.13 20.7828 17.5852 20.5873 17.9413 20.2623C18.377 19.8763 18.7456 19.4219 19.0325 18.9165V18.9071C19.3019 18.3977 19.2108 17.9178 18.822 17.5921C18.0419 16.909 17.1974 16.303 16.3006 15.7825C15.7001 15.4567 15.0901 15.6538 14.8435 15.9835L14.3167 16.6484C14.0459 16.9782 13.5553 16.9326 13.5553 16.9326L13.5419 16.9406C9.88103 16.0063 8.90382 12.2999 8.90382 12.2999C8.90382 12.2999 8.85824 11.7959 9.19738 11.5385L9.8569 11.0077C10.1733 10.7503 10.3931 10.1417 10.054 9.54117C9.53462 8.64496 8.92993 7.801 8.24832 7.02106C8.09922 6.83792 7.89042 6.71311 7.65851 6.66851M13.8475 5.05859C13.6698 5.05859 13.4993 5.12921 13.3736 5.2549C13.2479 5.3806 13.1773 5.55108 13.1773 5.72883C13.1773 5.90659 13.2479 6.07707 13.3736 6.20277C13.4993 6.32846 13.6698 6.39908 13.8475 6.39908C15.5419 6.39908 16.9494 6.9527 18.0633 8.01436C18.6357 8.59479 19.0821 9.28245 19.3743 10.0358C19.6679 10.7905 19.8019 11.5961 19.7671 12.4031C19.7596 12.5809 19.8231 12.7543 19.9435 12.8853C20.0639 13.0162 20.2314 13.094 20.4092 13.1015C20.5869 13.109 20.7604 13.0455 20.8914 12.9251C21.0223 12.8047 21.1001 12.6372 21.1076 12.4594C21.1476 11.4668 20.9828 10.4767 20.6237 9.55055C20.2628 8.6197 19.7133 7.77355 19.0097 7.0653L18.9963 7.05189C17.6143 5.73152 15.8663 5.05859 13.8475 5.05859Z" fill="black"/>
<path d="M13.8011 7.26111C13.6233 7.26111 13.4529 7.33172 13.3272 7.45742C13.2015 7.58311 13.1309 7.75359 13.1309 7.93135C13.1309 8.10911 13.2015 8.27958 13.3272 8.40528C13.4529 8.53097 13.6233 8.60159 13.8011 8.60159H13.8239C15.0464 8.68872 15.9365 9.09623 16.5598 9.76513C17.1992 10.4541 17.5303 11.3107 17.5049 12.3697C17.5008 12.5474 17.5675 12.7195 17.6903 12.8481C17.8131 12.9767 17.9819 13.0513 18.1597 13.0553C18.3374 13.0594 18.5095 12.9927 18.6381 12.8699C18.7667 12.7471 18.8412 12.5783 18.8453 12.4005C18.8775 11.0104 18.4298 9.8107 17.5424 8.8536V8.85092C16.6349 7.87773 15.3896 7.36298 13.8909 7.26245L13.8681 7.25977L13.8011 7.26111Z" fill="black"/>
<path d="M13.776 9.5065C13.6863 9.49859 13.596 9.50883 13.5103 9.53661C13.4247 9.56439 13.3455 9.60915 13.2775 9.66821C13.2095 9.72727 13.1542 9.79942 13.1147 9.88036C13.0752 9.96129 13.0525 10.0493 13.0478 10.1393C13.0431 10.2292 13.0566 10.3191 13.0874 10.4037C13.1183 10.4883 13.1658 10.5659 13.2273 10.6317C13.2888 10.6975 13.3629 10.7502 13.4452 10.7867C13.5275 10.8233 13.6163 10.8429 13.7063 10.8443C14.2666 10.8738 14.6246 11.0427 14.8498 11.2692C15.0763 11.4971 15.2452 11.8631 15.276 12.4355C15.2777 12.5254 15.2975 12.6141 15.3341 12.6962C15.3708 12.7784 15.4236 12.8523 15.4895 12.9136C15.5553 12.9749 15.6329 13.0223 15.7174 13.053C15.802 13.0837 15.8919 13.0971 15.9817 13.0923C16.0715 13.0875 16.1595 13.0647 16.2403 13.0252C16.3212 12.9857 16.3932 12.9304 16.4522 12.8625C16.5112 12.7945 16.5559 12.7154 16.5837 12.6299C16.6114 12.5443 16.6217 12.454 16.6138 12.3644C16.5709 11.5601 16.3189 10.8497 15.8028 10.3269C15.2841 9.80409 14.5776 9.5494 13.776 9.5065Z" fill="black"/>
<path fill-rule="evenodd" clip-rule="evenodd" d="M6.45757 1.55105C10.7231 0.597568 15.1465 0.597568 19.412 1.55105L19.8664 1.65158C21.113 1.93104 22.2579 2.55029 23.174 3.44065C24.0902 4.33102 24.7418 5.45771 25.0568 6.69582C26.1405 10.9623 26.1405 15.432 25.0568 19.6985C24.7418 20.9366 24.0902 22.0633 23.174 22.9537C22.2579 23.844 21.113 24.4633 19.8664 24.7427L19.4107 24.8433C16.739 25.4398 13.9978 25.6649 11.2645 25.5122L7.70824 28.6945C7.57417 28.8145 7.41033 28.8964 7.23383 28.9315C7.05733 28.9666 6.87464 28.9537 6.70482 28.8941C6.53501 28.8346 6.38429 28.7305 6.26841 28.5928C6.15254 28.4551 6.07574 28.2889 6.04604 28.1114L5.45757 24.5966C4.32944 24.2449 3.31022 23.6101 2.49712 22.7526C1.68401 21.8952 1.10414 20.8437 0.812801 19.6985C-0.270934 15.432 -0.270934 10.9623 0.812801 6.69582C1.12773 5.45771 1.77941 4.33102 2.69556 3.44065C3.61172 2.55029 4.75656 1.93104 6.00315 1.65158L6.45757 1.55105ZM18.9737 3.51217C14.9968 2.62317 10.8727 2.62317 6.89591 3.51217L6.44015 3.61405C5.55671 3.81269 4.74549 4.25193 4.09628 4.88316C3.44708 5.51438 2.98523 6.31295 2.76186 7.19046C1.76051 11.1323 1.76051 15.262 2.76186 19.2039C2.98533 20.0815 3.44739 20.8802 4.09684 21.5115C4.7463 22.1427 5.55781 22.5819 6.44149 22.7803L6.56213 22.8071C6.7573 22.8507 6.93501 22.9516 7.07255 23.0968C7.21009 23.2419 7.30121 23.4249 7.33425 23.6221L7.72835 25.9787L10.2377 23.7333C10.3379 23.6434 10.4552 23.5745 10.5825 23.5308C10.7099 23.487 10.8447 23.4693 10.979 23.4787C13.6587 23.6679 16.3517 23.4669 18.9737 22.8821L19.4281 22.7803C20.3118 22.5819 21.1233 22.1427 21.7727 21.5115C22.4222 20.8802 22.8842 20.0815 23.1077 19.2039C24.1077 15.2628 24.1077 11.1328 23.1077 7.19046C22.8842 6.31278 22.4222 5.51409 21.7727 4.88285C21.1233 4.25161 20.3118 3.81247 19.4281 3.61405L18.9737 3.51217Z" fill="black"/>
</svg>
